<svg id="A" xmlns="http://www.w3.org/2000/svg" viewBox="0 0 369.21 500"><defs><style>.cls-1{fill:#bdc91a;}</style></defs><path class="cls-1" d="M221.31,513.74A51.62,51.62,0,0,1,172,550.24h-1a51.57,51.57,0,0,1-51.58-51.57v-1.06s-.59-103.64,0-132.27l0-1.41V233.31h0a51.37,51.37,0,0,1,17.28-38.48C139.69,192.1,259.69,72,262.23,68.91a50.41,50.41,0,0,1,40.26-18.65h.17c10.6.22,80.14.16,130.87.09a54.17,54.17,0,0,1,54.2,52.17c0,.12,0,.25,0,.37s0,.36,0,1a51.61,51.61,0,0,1-36.08,48.2c-5.21,1.64-158.61,29.27-162.17,30.14A51.22,51.22,0,0,0,250.38,232v.86h0A52.63,52.63,0,0,0,303,285.51h0a51.37,51.37,0,0,0,35.17-12.9c10.69-9.44,48.4-64.71,56.33-73.8a51,51,0,0,1,40.06-17.5h0a52.63,52.63,0,0,1,52.63,52.62h0V365.51h0c0,17.8.59,83.12,1,131.05a52.13,52.13,0,0,1-53.15,52.62h0a52.66,52.66,0,0,1-50-36.07c-.62-1.87-30.37-154-31-157.39A53,53,0,0,0,304.5,313c-1,0-1.54-.09-1.48-.15h-.27a52.9,52.9,0,0,0-51.32,40C250.48,356.68,222.23,510.73,221.31,513.74Z" transform="translate(-119.06 -50.24)"/></svg>