<svg id="B" xmlns="http://www.w3.org/2000/svg" viewBox="0 0 350.29 500"><defs><style>.cls-1{fill:#bdc91a;}</style></defs><path class="cls-1" d="M445,549.45H270s-59.46.53-74.5.53h0c-27.62,0-50-23.57-50-52.64h0V365.76h0c0-29.07,22.38-52.63,50-52.63h0a48.8,48.8,0,0,1,37,17.18c8.05,9.3,47.5,66.46,49.6,69.11a49,49,0,0,0,38.44,19h0c27.61,0,50-23.56,50-52.63h0c0-26.5-18.6-48.42-42.81-52.09-2.35-.36-139-27.23-142.27-27.93-22.79-4.91-39.92-26.13-39.92-51.56h0c0-.09,0-.35,0-.27s-.12-.4-.13-1.36v-.23c-.21-13.93.64-130.25.64-130.25h0c-.55-28.4,21-51.81,48-52.09h0c29-.3,53.4,23,55.87,53.48C252.45,134.94,270,233.65,270,234.7h0c0,24.07,15.36,44.42,36.4,50.66,4,1.19,146.33,28.52,149.54,29.16C478.45,319,495.43,340,495,365.09v.14c-.11,20.75.29,85.07.61,132.11v.9c.2,28.63-22.08,51.8-49.28,51.24Z" transform="translate(-145.35 -49.98)"/></svg>