<svg id="D_B" data-name="D B" xmlns="http://www.w3.org/2000/svg" viewBox="0 0 350.29 500"><defs><style>.cls-1{fill:#bdc91a;}</style></defs><path class="cls-1" d="M195,549.45H370s59.46.53,74.5.53h0c27.61,0,50-23.57,50-52.64h0V365.76h0c0-29.07-22.39-52.63-50-52.63h0a48.78,48.78,0,0,0-37,17.18c-8.05,9.3-47.5,66.46-49.6,69.11a49,49,0,0,1-38.44,19h0c-27.61,0-50-23.56-50-52.63h0c0-26.5,18.6-48.42,42.8-52.09,2.35-.36,139-27.23,142.28-27.93,22.78-4.91,39.92-26.13,39.92-51.56h0c0-.09-.05-.35,0-.27s.12-.4.13-1.36v-.23c.21-13.93-.64-130.25-.64-130.25h0c.55-28.4-21-51.81-48-52.09h0c-29-.3-53.4,23-55.87,53.48C387.54,134.94,370,233.65,370,234.7h0c0,24.07-15.36,44.42-36.4,50.66-4,1.19-146.33,28.52-149.54,29.16C161.54,319,144.56,340,145,365.09v.14c.1,20.75-.29,85.07-.61,132.11v.9c-.2,28.63,22.08,51.8,49.28,51.24Z" transform="translate(-144.35 -49.98)"/></svg>