<svg id="E" xmlns="http://www.w3.org/2000/svg" viewBox="0 0 369.45 500"><defs><style>.cls-1{fill:#bdc91a;}</style></defs><path class="cls-1" d="M504.23,104c0-.6,0-1.2,0-1.82v-.9A50.87,50.87,0,0,0,452.38,50L451,50H320.36a51.24,51.24,0,0,0-30,9.66c-4.88,3.51-138.23,135.58-142.78,141.67a51.22,51.22,0,0,0-10.24,31.55v.44c.16,7.92-1.06,132.44-1.06,132.44V497.37h0A53.72,53.72,0,0,0,188.89,550l1.05,0h52.63l211.3-.85a52,52,0,0,0,51.84-52h0a53.42,53.42,0,0,0-53.42-53.42H321.51l-4.88.07a73.09,73.09,0,0,1-74.06-73.08V365.8s27.48-150.21,30.94-156.93a51.19,51.19,0,0,1,45.55-27.79h.87a52.63,52.63,0,0,1,52.63,52.63h0a51.36,51.36,0,0,1-12.91,35.17c-9.44,10.69-64.7,48.4-73.79,56.33a51,51,0,0,0-17.51,40.06h0A52.63,52.63,0,0,0,321,417.9h0l2.64,0a49.77,49.77,0,0,0,29.2-9.78c4-3,135.17-131.82,138.28-135.06a48.1,48.1,0,0,0,13.44-33.57C504.39,188.33,504.16,114.63,504.23,104Z" transform="translate(-136.26 -50)"/></svg>