<svg id="Layer_1" data-name="Layer 1" xmlns="http://www.w3.org/2000/svg" viewBox="0 0 500 500"><defs><style>.cls-1{fill:#e0804d;}.cls-2{fill:#bdc91a;}</style></defs><g id="Layer_2" data-name="Layer 2"><rect class="cls-1" width="500" height="500"/></g><path class="cls-2" d="M372.43,485.89H198.21s-59.18.49-74.16.49h-.51a47.8,47.8,0,0,1-47.77-47.82h0V312.66a50.77,50.77,0,0,1,48.72-50.73h1.05a49.71,49.71,0,0,1,36.15,16.64c7.85,8.81,45.39,63.84,56.09,72.62A47.65,47.65,0,0,0,248.05,362h.46a49.77,49.77,0,0,0,49.78-49.77c0-8.2,1.5-124.94,1.5-124.94a48.38,48.38,0,0,0-31.73-45.39c-3-1.12-154.46-29.32-159.83-31.33A49.69,49.69,0,0,1,75.84,64V60.91a46.4,46.4,0,0,1,45.5-47.28h1.21L251,14l124.45.1a48.81,48.81,0,0,1,48.82,48.72,49.58,49.58,0,0,1-16.17,36.7c-2.56,2.36-57.89,42.72-66.51,50.08a50.82,50.82,0,0,0-17.84,37v.93a48.94,48.94,0,0,0,17.66,38.13c8.51,7.12,53.9,41.61,58.95,44.88a47.77,47.77,0,0,1,21.95,41.06v.13c-.1,19.61.3,80.44.62,124.94v.84a48.13,48.13,0,0,1-47.79,48.47h-2.67Z" transform="translate(0 0)"/></svg>