<svg viewBox="0 0 368.48 500" xmlns="http://www.w3.org/2000/svg"><path d="m433.22 549.47h-184.22s-62.58.52-78.42.52h-.53a50.54 50.54 0 0 1 -50.52-50.56v-133.13a53.68 53.68 0 0 1 51.52-53.64h1.11a52.54 52.54 0 0 1 38.22 17.59c8.31 9.32 48 67.51 59.32 76.79a50.35 50.35 0 0 0 32 11.41h.49a52.64 52.64 0 0 0 52.64-52.63c0-8.67 1.58-132.11 1.58-132.11a51.16 51.16 0 0 0 -33.55-48c-3.21-1.18-163.33-31-169-33.13a52.53 52.53 0 0 1 -34.25-49.25v-1.18-2.06a49.06 49.06 0 0 1 48.7-50h.69l135.78.37c6.32 0 79.66.07 131.59.11a51.61 51.61 0 0 1 51.63 51.51 52.46 52.46 0 0 1 -17.1 38.81c-2.71 2.49-61.21 45.17-70.33 52.95a53.74 53.74 0 0 0 -18.86 39.09v.73.25a51.75 51.75 0 0 0 18.67 40.32c9 7.53 57 44 62.33 47.45a50.54 50.54 0 0 1 23.22 43.42 1 1 0 0 0 0 .14c-.11 20.74.31 85.06.65 132.11v.89a50.89 50.89 0 0 1 -51.88 51.24z" fill="#bdc91a" transform="translate(-119.47 -49.99)"/></svg>