<?xml version="1.0" encoding="utf-8"?>
<!-- Generator: Adobe Illustrator 24.2.3, SVG Export Plug-In . SVG Version: 6.00 Build 0)  -->
<svg version="1.1" id="Layer_1" xmlns="http://www.w3.org/2000/svg" xmlns:xlink="http://www.w3.org/1999/xlink" x="0px" y="0px"
	 viewBox="0 0 477 500" style="enable-background:new 0 0 477 500;" xml:space="preserve">
<style type="text/css">
	.st0{fill:#BDC91A;}
</style>
<path class="st0" d="M314.7,499.5H130.5c0,0-62.7,0.5-78.5,0.5h-0.5c-27.9,0-45.7-22.6-39.8-50.6l0,0L40,316.3
	c6.1-28.8,33.9-52.5,62.9-53.6h1.1c14.6,0.3,27.1,6.7,34.5,17.6c6.3,9.3,33.7,67.5,43,76.8c7.5,7.4,17.9,11.4,29.6,11.4h0.5
	c29.1,0,57.6-23.6,63.8-52.6c1.8-8.7,29.7-132.1,29.7-132.1c4.5-21.5-4.8-40.6-23.3-48c-3-1.2-156.7-31-162-33.1
	c-19-7.6-28.5-27.3-23.8-49.2l0.3-1.2l0.4-2.1c5.2-27.1,31.5-49.5,58.7-50c0.2,0,0.4,0,0.6,0h0.7l135.7,0.4
	c6.3,0,79.6,0.1,131.6,0.1c28.5,0,46.7,23,40.7,51.5c-3.1,14.8-12.3,28.9-25.3,38.8c-3.2,2.5-70.8,45.2-81.6,52.9
	c-13.6,9.8-23.4,24-27.2,39.1l-0.2,0.7l-0.1,0.2c-3.5,15.6,0.2,30.4,10.1,40.3c7.4,7.5,47.6,44,52.2,47.5c12.7,9.5,18,25.9,14,43.4
	c0,0,0,0.1,0,0.1c-4.5,20.7-17.8,85.1-27.4,132.1l-0.2,0.9c-5.8,28.1-33.3,51-61.4,51.2c-0.5,0-0.9,0-1.3,0L314.7,499.5z"/>
</svg>
