<svg id="medium" xmlns="http://www.w3.org/2000/svg" xmlns:xlink="http://www.w3.org/1999/xlink" viewBox="0 0 367.81 70.03"><defs><style>.cls-1{fill:url(#linear-gradient);}.cls-2{fill:url(#linear-gradient-2);}.cls-3{fill:#becc34;}</style><linearGradient id="linear-gradient" x1="-240.17" y1="-186.41" x2="-203.55" y2="-186.41" gradientTransform="translate(37.5 378.5) rotate(90)" gradientUnits="userSpaceOnUse"><stop offset="0" stop-color="#e0804d"/><stop offset="0.1" stop-color="#d98252"/><stop offset="0.24" stop-color="#c6885f"/><stop offset="0.4" stop-color="#a79274"/><stop offset="0.58" stop-color="#7c9f93"/><stop offset="0.78" stop-color="#45b1b9"/><stop offset="0.99" stop-color="#02c5e7"/><stop offset="1" stop-color="#00c6e9"/></linearGradient><linearGradient id="linear-gradient-2" x1="177.53" y1="-186.45" x2="212.74" y2="-186.45" gradientTransform="matrix(0, -1, -1, 0, 10.31, 213.47)" gradientUnits="userSpaceOnUse"><stop offset="0" stop-color="#e0804d"/><stop offset="0.1" stop-color="#d98252"/><stop offset="0.24" stop-color="#c6885f"/><stop offset="0.4" stop-color="#a79274"/><stop offset="0.58" stop-color="#7c9f93"/><stop offset="0.78" stop-color="#45b1b9"/><stop offset="0.99" stop-color="#02c5e7"/><stop offset="1" stop-color="#00c6e9"/></linearGradient></defs><g id="Layer_3_copy" data-name="Layer 3 copy"><path class="cls-1" d="M56.31,138.33l335.17,1.08a130.63,130.63,0,0,0,0,20.59c.64,6.75-8.91,10-8.91,10L56.43,175Z" transform="translate(-27.19 -105.63)"/><polygon class="cls-2" points="29.36 0.73 29.24 32.7 364.29 35.94 362.85 16.98 348.67 0.73 29.36 0.73"/></g><path class="cls-3" d="M373.69,105.63,49,106.07c-12.07,0-21.85,11-21.83,24.57l0,21.19c0,13.18,9.54,23.84,21.28,23.83l325.28-.45c11.74,0,21.24-10.71,21.23-23.88l0-21.88C395,116.28,385.43,105.61,373.69,105.63Zm17.06,40.46c0,13.17-9.49,23.87-21.23,23.88l-251.38.35c-11.74,0-21.27-10.65-21.29-23.83v-10.7c0-13.55,9.77-24.55,21.84-24.57l250.77-.34c11.74,0,21.27,10.65,21.28,23.82Z" transform="translate(-27.19 -105.63)"/></svg>