<svg id="small" xmlns="http://www.w3.org/2000/svg" xmlns:xlink="http://www.w3.org/1999/xlink" viewBox="0 0 316 70.03"><defs><style>.cls-1{fill:url(#linear-gradient);}.cls-2{fill:url(#linear-gradient-2);}.cls-3{fill:#becc34;}</style><linearGradient id="linear-gradient" x1="-153.17" y1="-159.78" x2="-116.55" y2="-159.78" gradientTransform="translate(37.5 378.5) rotate(90)" gradientUnits="userSpaceOnUse"><stop offset="0" stop-color="#e0804d"/><stop offset="0.1" stop-color="#d98252"/><stop offset="0.24" stop-color="#c6885f"/><stop offset="0.4" stop-color="#a79274"/><stop offset="0.58" stop-color="#7c9f93"/><stop offset="0.78" stop-color="#45b1b9"/><stop offset="0.99" stop-color="#02c5e7"/><stop offset="1" stop-color="#00c6e9"/></linearGradient><linearGradient id="linear-gradient-2" x1="90.53" y1="-162.3" x2="125.74" y2="-162.3" gradientTransform="matrix(0, -1, -1, 0, 3.5, 126.47)" gradientUnits="userSpaceOnUse"><stop offset="0" stop-color="#e0804d"/><stop offset="0.1" stop-color="#d98252"/><stop offset="0.24" stop-color="#c6885f"/><stop offset="0.4" stop-color="#a79274"/><stop offset="0.58" stop-color="#7c9f93"/><stop offset="0.78" stop-color="#45b1b9"/><stop offset="0.99" stop-color="#02c5e7"/><stop offset="1" stop-color="#00c6e9"/></linearGradient></defs><g id="Layer_3_copy_2" data-name="Layer 3 copy 2"><path class="cls-1" d="M47.67,225.33l299.19,1.08a144.58,144.58,0,0,0,0,20.59c.57,6.75-8,10-8,10L47.77,262Z" transform="translate(-34 -192.63)"/><polygon class="cls-2" points="18.85 0.73 18.75 32.7 312.86 35.94 311.59 16.98 299.15 0.73 18.85 0.73"/></g><path class="cls-3" d="M331,192.63l-277.32.44c-10.78,0-19.67,11-19.66,24.57l0,21.19c0,13.18,8.68,23.84,19.16,23.83l277.87-.45c10.48,0,19-10.71,18.95-23.88l0-21.88C350,203.28,341.46,192.61,331,192.63Zm15.22,40.46c0,13.17-8.47,23.87-18.95,23.88l-224.39.35c-10.48,0-19-10.65-19-23.83v-10.7c0-13.55,8.71-24.55,19.49-24.57l223.85-.34c10.48,0,19,10.65,19,23.82Z" transform="translate(-34 -192.63)"/></svg>