<svg id="Layer_21" data-name="Layer 21" xmlns="http://www.w3.org/2000/svg" xmlns:xlink="http://www.w3.org/1999/xlink" viewBox="0 0 367.81 70.03"><defs><style>.cls-1{fill:url(#linear-gradient);}.cls-2{fill:url(#linear-gradient-2);}.cls-3{fill:#becc34;}</style><linearGradient id="linear-gradient" x1="502" y1="-1628.47" x2="538.62" y2="-1628.47" gradientTransform="translate(198.5 217.5) rotate(90)" gradientUnits="userSpaceOnUse"><stop offset="0" stop-color="#e0804d"/><stop offset="0.12" stop-color="#e18554"/><stop offset="0.29" stop-color="#e39267"/><stop offset="0.49" stop-color="#e6a786"/><stop offset="0.71" stop-color="#ebc5b1"/><stop offset="0.95" stop-color="#f1ebe7"/><stop offset="1" stop-color="#f2f2f2"/></linearGradient><linearGradient id="linear-gradient-2" x1="-242.64" y1="-1628.51" x2="-207.43" y2="-1628.51" gradientTransform="matrix(0, -1, -1, 0, -1431.75, -206.7)" gradientUnits="userSpaceOnUse"><stop offset="0" stop-color="#e0804d"/><stop offset="0.12" stop-color="#e18554"/><stop offset="0.29" stop-color="#e39267"/><stop offset="0.49" stop-color="#e6a786"/><stop offset="0.71" stop-color="#ebc5b1"/><stop offset="0.96" stop-color="#f1ebe7"/><stop offset="1" stop-color="#f2f2f2"/></linearGradient></defs><path class="cls-1" d="M1659.37,719.5l335.17,1.08a130.63,130.63,0,0,0,0,20.59c.64,6.75-8.91,10-8.91,10l-326.14,5Z" transform="translate(-1630.25 -686.8)"/><polygon class="cls-2" points="29.36 0.73 29.24 32.7 364.29 35.94 362.85 16.98 348.67 0.73 29.36 0.73"/><path class="cls-3" d="M1976.75,686.8l-324.67.44c-12.07,0-21.85,11-21.83,24.57l0,21.19c0,13.18,9.54,23.84,21.28,23.83l325.28-.45c11.74,0,21.24-10.71,21.23-23.88l0-21.88C1998,697.45,1988.49,686.78,1976.75,686.8Zm17.06,40.46c0,13.17-9.49,23.87-21.23,23.88l-251.38.35c-11.74,0-21.27-10.65-21.29-23.83V717c0-13.55,9.76-24.55,21.84-24.57l250.77-.34c11.74,0,21.27,10.65,21.28,23.82Z" transform="translate(-1630.25 -686.8)"/></svg>