<svg id="Layer_17" data-name="Layer 17" xmlns="http://www.w3.org/2000/svg" xmlns:xlink="http://www.w3.org/1999/xlink" viewBox="0 0 425.05 184.2"><defs><style>.cls-1{fill:url(#radial-gradient);}.cls-2{fill:none;stroke:#bcca33;stroke-miterlimit:10;stroke-width:4.7px;}</style><radialGradient id="radial-gradient" cx="296.88" cy="92.03" r="46.12" gradientUnits="userSpaceOnUse"><stop offset="0" stop-color="#e0804d"/><stop offset="0.2" stop-color="#dd814f"/><stop offset="0.34" stop-color="#d48455"/><stop offset="0.46" stop-color="#c48860"/><stop offset="0.57" stop-color="#af8f6f"/><stop offset="0.68" stop-color="#929883"/><stop offset="0.78" stop-color="#6fa29b"/><stop offset="0.87" stop-color="#46afb7"/><stop offset="0.96" stop-color="#17bdd7"/><stop offset="1" stop-color="#00c4e7"/></radialGradient></defs><circle class="cls-1" cx="296.88" cy="92.03" r="46.12"/><path class="cls-2" d="M1762.51,191.16a45.09,45.09,0,0,0,45.11-45.11m-90,0a45.08,45.08,0,0,0,45.11,45.11m0-90a45.08,45.08,0,0,0-45.11,45.11m90,0a45.09,45.09,0,0,0-45.11-45.11m-44.64,60.5-39.39,15.59a89.79,89.79,0,0,0,173-18.47l.32-2.12,38.09-4m-254-31.35,39,2.46m174.09,46.89,42-4" transform="translate(-1466.04 -53.81)"/><path class="cls-2" d="M1466,136.51h168.4l38.34,2.27.69-3.34a90.7,90.7,0,0,1,2.16-11.72,89.79,89.79,0,0,1,172-6.56L1807,132.28" transform="translate(-1466.04 -53.81)"/></svg>