<?xml version="1.0" encoding="utf-8"?>
<!-- Generator: Adobe Illustrator 24.2.3, SVG Export Plug-In . SVG Version: 6.00 Build 0)  -->
<svg version="1.1" id="Layer_1" xmlns="http://www.w3.org/2000/svg" xmlns:xlink="http://www.w3.org/1999/xlink" x="0px" y="0px"
	 viewBox="0 0 367.8 70" style="enable-background:new 0 0 367.8 70;" xml:space="preserve">
<style type="text/css">
	.st0{fill:#BECC34;}
</style>
<image style="overflow:visible;" width="347" height="36" xlink:href="8B9F60B45D680845.png"  transform="matrix(1 0 0 1 21 1.03)">
</image>
<image style="overflow:visible;" width="354" height="33" xlink:href="8B9F60B45D68084B.png"  transform="matrix(1 0 0 1 14 35.03)">
</image>
<image style="display:none;overflow:visible;" width="353" height="38" xlink:href="8B9F60B45D68084C.png"  transform="matrix(1 0 0 1 14 1.03)">
</image>
<image style="display:none;overflow:visible;" width="360" height="34" xlink:href="8B9F60B45D68084F.png"  transform="matrix(1 0 0 1 7 35.03)">
</image>
<path class="st0" d="M346.5,0L21.8,0.4C9.8,0.4,0,11.4,0,25v21.2C0,59.4,9.5,70.1,21.3,70l325.3-0.5c11.7,0,21.2-10.7,21.2-23.9
	V23.8C367.8,10.6,358.2,0,346.5,0z M363.6,40.5c0,13.2-9.5,23.9-21.2,23.9L91,64.7c-11.7,0-21.3-10.6-21.3-23.8V30.2
	c0-13.5,9.8-24.5,21.8-24.6l250.8-0.3c11.7,0,21.3,10.6,21.3,23.8L363.6,40.5z"/>
</svg>
