<svg id="Layer_24" data-name="Layer 24" xmlns="http://www.w3.org/2000/svg" xmlns:xlink="http://www.w3.org/1999/xlink" viewBox="0 0 367.81 70.03"><defs><style>.cls-1{fill:url(#linear-gradient);}.cls-2{fill:url(#linear-gradient-2);}.cls-3{fill:#becc34;}</style><linearGradient id="linear-gradient" x1="699.17" y1="-1628.13" x2="735.79" y2="-1628.13" gradientTransform="translate(198.5 217.5) rotate(90)" gradientUnits="userSpaceOnUse"><stop offset="0" stop-color="#e0804d"/><stop offset="0.2" stop-color="#dd874b"/><stop offset="0.48" stop-color="#d59a45"/><stop offset="0.82" stop-color="#c7b83a"/><stop offset="1" stop-color="#becc34"/></linearGradient><linearGradient id="linear-gradient-2" x1="-439.81" y1="-1628.17" x2="-404.6" y2="-1628.17" gradientTransform="matrix(0, -1, -1, 0, -1431.4, -403.87)" gradientUnits="userSpaceOnUse"><stop offset="0" stop-color="#e0804d"/><stop offset="0.2" stop-color="#dd874b"/><stop offset="0.48" stop-color="#d59a45"/><stop offset="0.82" stop-color="#c7b83a"/><stop offset="1" stop-color="#becc34"/></linearGradient></defs><path class="cls-1" d="M1659,916.67l335.17,1.08a127.89,127.89,0,0,0,0,20.59c.64,6.75-8.92,10-8.92,10l-326.14,4.95Z" transform="translate(-1629.9 -883.97)"/><polygon class="cls-2" points="29.36 0.73 29.24 32.7 364.29 35.94 362.85 16.98 348.67 0.73 29.36 0.73"/><path class="cls-3" d="M1976.41,884l-324.67.44c-12.07,0-21.85,11-21.84,24.57l0,21.19c0,13.18,9.54,23.84,21.28,23.83l325.28-.45c11.74,0,21.24-10.71,21.23-23.88l0-21.88C1997.68,894.62,1988.15,884,1976.41,884Zm17,40.46c0,13.18-9.49,23.87-21.23,23.89l-251.38.34c-11.74,0-21.26-10.65-21.28-23.83v-10.7c0-13.55,9.76-24.55,21.84-24.57l250.77-.34c11.74,0,21.27,10.65,21.28,23.82Z" transform="translate(-1629.9 -883.97)"/></svg>