<svg id="Layer_22" data-name="Layer 22" xmlns="http://www.w3.org/2000/svg" xmlns:xlink="http://www.w3.org/1999/xlink" viewBox="0 0 367.81 70.03"><defs><style>.cls-1{fill:url(#linear-gradient);}.cls-2{fill:url(#linear-gradient-2);}.cls-3{fill:#becc34;}</style><linearGradient id="linear-gradient" x1="598.17" y1="-1634.37" x2="634.79" y2="-1634.37" gradientTransform="translate(198.5 217.5) rotate(90)" gradientUnits="userSpaceOnUse"><stop offset="0" stop-color="#e0804d"/><stop offset="0.14" stop-color="#df8454"/><stop offset="0.34" stop-color="#dc8f67"/><stop offset="0.58" stop-color="#d7a286"/><stop offset="0.85" stop-color="#d0bbb0"/><stop offset="1" stop-color="#ccc"/></linearGradient><linearGradient id="linear-gradient-2" x1="-338.81" y1="-1634.41" x2="-303.6" y2="-1634.41" gradientTransform="matrix(0, -1, -1, 0, -1437.65, -302.87)" gradientUnits="userSpaceOnUse"><stop offset="0" stop-color="#e0804d"/><stop offset="0.14" stop-color="#df8454"/><stop offset="0.34" stop-color="#dc8f67"/><stop offset="0.58" stop-color="#d7a286"/><stop offset="0.85" stop-color="#d0bbb0"/><stop offset="1" stop-color="#ccc"/></linearGradient></defs><path class="cls-1" d="M1665.27,815.67l335.17,1.08a130.63,130.63,0,0,0,0,20.59c.64,6.75-8.91,10-8.91,10l-326.14,4.95Z" transform="translate(-1636.15 -782.97)"/><polygon class="cls-2" points="29.36 0.73 29.24 32.7 364.29 35.94 362.85 16.98 348.67 0.73 29.36 0.73"/><path class="cls-3" d="M1982.66,783l-324.67.44c-12.08,0-21.86,11-21.84,24.57l0,21.19c0,13.18,9.54,23.84,21.28,23.83l325.28-.45c11.74,0,21.25-10.71,21.23-23.88l0-21.88C2003.92,793.62,1994.4,783,1982.66,783Zm17,40.46c0,13.18-9.49,23.87-21.23,23.88l-251.38.35c-11.74,0-21.27-10.65-21.28-23.83l0-10.7c0-13.55,9.77-24.55,21.84-24.57l250.77-.34c11.74,0,21.27,10.65,21.29,23.82Z" transform="translate(-1636.15 -782.97)"/></svg>