<svg id="left" xmlns="http://www.w3.org/2000/svg" xmlns:xlink="http://www.w3.org/1999/xlink" viewBox="0 0 107.11 397.5"><defs><style>.cls-1{fill:none;stroke:#b9c733;stroke-miterlimit:10;stroke-width:2px;}.cls-2{fill:#b9c733;}.cls-3{fill:url(#linear-gradient);}.cls-4{fill:url(#linear-gradient-2);}</style><linearGradient id="linear-gradient" x1="-477.9" y1="-160.52" x2="-468.9" y2="-160.52" gradientTransform="translate(683.77 185.51)" gradientUnits="userSpaceOnUse"><stop offset="0" stop-color="#01c3e6"/><stop offset="0.12" stop-color="#10c3d8"/><stop offset="0.36" stop-color="#36c4b2"/><stop offset="0.68" stop-color="#74c676"/><stop offset="1" stop-color="#b9c733"/></linearGradient><linearGradient id="linear-gradient-2" x1="100.13" y1="1167.7" x2="109.13" y2="1167.7" gradientTransform="translate(107.22 -761.71)" xlink:href="#linear-gradient"/></defs><rect class="cls-1" x="1" y="1" width="105.11" height="395.5" rx="19.31"/><path class="cls-2" d="M160.14,396.72a13.79,13.79,0,0,0,1.19,4A23,23,0,0,0,169,410c2.6,1.69,5.7,2.08,9,3a37.75,37.75,0,0,0,10.38,1.22h48.35A45,45,0,0,0,248,413c7.68-2.13,13.38-6.61,16-12a14.26,14.26,0,0,0,1-4.28Z" transform="translate(-159 -16.72)"/><path class="cls-2" d="M265,34.22A20,20,0,0,0,258,22c-1.87-1.45-3.57-2-6-3-4.32-1.82-9.84-2.28-15.27-2.28H188.38A58.05,58.05,0,0,0,177,18c-7.57,1.83-11.93,5-15,10a17.15,17.15,0,0,0-1.86,6.22Z" transform="translate(-159 -16.72)"/><rect class="cls-3" x="205.87" y="-1.47" width="9" height="52.92" rx="4.5" transform="translate(76.36 -202.11) rotate(90)"/><rect class="cls-4" x="207.34" y="379.53" width="9" height="52.92" rx="4.5" transform="translate(-353.14 601.11) rotate(-90)"/></svg>