<svg id="right" xmlns="http://www.w3.org/2000/svg" xmlns:xlink="http://www.w3.org/1999/xlink" viewBox="0 0 424.89 398"><defs><style>.cls-1{fill:none;stroke:#b9c733;stroke-miterlimit:10;stroke-width:2px;}.cls-2{fill:#b9c733;}.cls-3{fill:url(#linear-gradient);}.cls-4{fill:url(#linear-gradient-2);}</style><linearGradient id="linear-gradient" x1="-477.9" y1="-446.41" x2="-468.9" y2="-446.41" gradientTransform="translate(969.65 471.39)" gradientUnits="userSpaceOnUse"><stop offset="0" stop-color="#01c3e6"/><stop offset="0.12" stop-color="#10c3d8"/><stop offset="0.36" stop-color="#36c4b2"/><stop offset="0.68" stop-color="#74c676"/><stop offset="1" stop-color="#b9c733"/></linearGradient><linearGradient id="linear-gradient-2" x1="-323.87" y1="979.67" x2="-315.87" y2="979.67" gradientTransform="translate(813.98 -573.18)" xlink:href="#linear-gradient"/></defs><rect class="cls-1" x="1" y="1.5" width="422.89" height="395.5" rx="19.31"/><path class="cls-2" d="M286.11,397.17c0,9.1,10.68,16.55,23.74,16.55H685.26c13.06,0,23.74-7.45,23.74-16.55v-1.45H286.11Z" transform="translate(-285.11 -16.22)"/><path class="cls-2" d="M709,32.77c0-9.1-10.68-16.55-23.74-16.55H309.85c-13.06,0-23.74,7.45-23.74,16.55v1.45H709Z" transform="translate(-285.11 -16.22)"/><rect class="cls-3" x="491.76" y="-154.59" width="9" height="359.15" rx="4.5" transform="translate(236.13 -487.49) rotate(90)"/><rect class="cls-4" x="490.11" y="223.98" width="8" height="365.02" rx="4" transform="translate(-197.49 884.38) rotate(-90)"/></svg>