<svg id="RIGHT-GREY" xmlns="http://www.w3.org/2000/svg" xmlns:xlink="http://www.w3.org/1999/xlink" viewBox="0 0 424.89 398"><defs><style>.cls-1{fill:none;stroke:#b9c733;stroke-miterlimit:10;stroke-width:2px;}.cls-2{fill:#b9c733;}.cls-3{fill:url(#linear-gradient);}.cls-4{fill:url(#linear-gradient-2);}</style><linearGradient id="linear-gradient" x1="48.04" y1="-417.45" x2="57.04" y2="-417.45" gradientTransform="translate(414.76 968.37)" gradientUnits="userSpaceOnUse"><stop offset="0" stop-color="#a9aabf"/><stop offset="0.13" stop-color="#aaacb6"/><stop offset="0.35" stop-color="#adb19e"/><stop offset="0.62" stop-color="#b1b976"/><stop offset="0.93" stop-color="#b8c43f"/><stop offset="1" stop-color="#b9c733"/></linearGradient><linearGradient id="linear-gradient-2" x1="-849.8" y1="950.71" x2="-841.8" y2="950.71" gradientTransform="translate(1310.96 -18.29)" gradientUnits="userSpaceOnUse"><stop offset="0" stop-color="#a9aabf"/><stop offset="0.13" stop-color="#aaacb6"/><stop offset="0.35" stop-color="#adb19e"/><stop offset="0.62" stop-color="#b1b976"/><stop offset="0.93" stop-color="#b8c43f"/><stop offset="1" stop-color="#b9c733"/></linearGradient></defs><rect class="cls-1" x="1" y="1.5" width="422.89" height="395.5" rx="19.31"/><path class="cls-2" d="M257.15,923.1c0,9.11,10.68,16.55,23.74,16.55H656.31c13.05,0,23.73-7.44,23.73-16.55v-1.45H257.15Z" transform="translate(-256.15 -542.15)"/><path class="cls-2" d="M680,558.7c0-9.1-10.68-16.55-23.73-16.55H280.89c-13.06,0-23.74,7.45-23.74,16.55v1.45H680Z" transform="translate(-256.15 -542.15)"/><rect class="cls-3" x="462.8" y="371.35" width="9" height="359.15" rx="4.5" transform="translate(762.07 -458.53) rotate(90)"/><rect class="cls-4" x="461.16" y="749.91" width="8" height="365.02" rx="4" transform="translate(-723.42 855.42) rotate(-90)"/></svg>