<svg id="LEFT_GREY" data-name="LEFT GREY" xmlns="http://www.w3.org/2000/svg" xmlns:xlink="http://www.w3.org/1999/xlink" viewBox="0 0 107.11 397.5"><defs><style>.cls-1{fill:none;stroke:#b9c733;stroke-miterlimit:10;stroke-width:2px;}.cls-2{fill:#b9c733;}.cls-3{fill:url(#linear-gradient);}.cls-4{fill:url(#linear-gradient-2);}</style><linearGradient id="linear-gradient" x1="48.04" y1="-131.57" x2="57.04" y2="-131.57" gradientTransform="translate(128.88 682.49)" gradientUnits="userSpaceOnUse"><stop offset="0" stop-color="#a9aabf"/><stop offset="0.13" stop-color="#aaacb6"/><stop offset="0.35" stop-color="#adb19e"/><stop offset="0.62" stop-color="#b1b976"/><stop offset="0.93" stop-color="#b8c43f"/><stop offset="1" stop-color="#b9c733"/></linearGradient><linearGradient id="linear-gradient-2" x1="-425.8" y1="1138.74" x2="-416.8" y2="1138.74" gradientTransform="translate(604.19 -206.82)" gradientUnits="userSpaceOnUse"><stop offset="0" stop-color="#a9aabf"/><stop offset="0.13" stop-color="#aaacb6"/><stop offset="0.35" stop-color="#adb19e"/><stop offset="0.62" stop-color="#b1b976"/><stop offset="0.93" stop-color="#b8c43f"/><stop offset="1" stop-color="#b9c733"/></linearGradient></defs><rect class="cls-1" x="1" y="1" width="105.11" height="395.5" rx="19.31"/><path class="cls-2" d="M131.18,922.65a13.79,13.79,0,0,0,1.19,4,22.88,22.88,0,0,0,7.67,9.29c2.61,1.69,5.7,2.09,9,3a37.82,37.82,0,0,0,10.39,1.22h48.34A45,45,0,0,0,219,938.93c7.68-2.12,13.38-6.61,16-12a13.61,13.61,0,0,0,1-4.28Z" transform="translate(-130.04 -542.65)"/><path class="cls-2" d="M236,560.15a20,20,0,0,0-7-12.22c-1.87-1.45-3.57-2-6-3-4.32-1.82-9.84-2.28-15.27-2.28H159.43A58.93,58.93,0,0,0,148,543.93c-7.57,1.84-11.92,5-15,10a17.35,17.35,0,0,0-1.86,6.22Z" transform="translate(-130.04 -542.65)"/><rect class="cls-3" x="176.92" y="524.46" width="9" height="52.92" rx="4.5" transform="translate(602.29 -173.15) rotate(90)"/><rect class="cls-4" x="178.39" y="905.46" width="9" height="52.92" rx="4.5" transform="translate(-879.08 572.15) rotate(-90)"/></svg>