<svg id="_" data-name="???" xmlns="http://www.w3.org/2000/svg" viewBox="0 0 500 500"><defs><style>.cls-1{fill:#bdc91a;}</style></defs><path class="cls-1" d="M926.21,482.74h0a52.64,52.64,0,0,0-49.43,34.52c-1.4,3.81-22.63,37.9-46.89,57.58C818.25,584.29,805.1,588,794.63,588h0A52.63,52.63,0,0,1,742,535.37h0v-.13a52.64,52.64,0,0,1,42-51.44c3.42-.7,152.35-28.13,157.07-29.52a52.66,52.66,0,0,0,37.73-50.49h0V272.21h0a52.53,52.53,0,0,0-21.48-42.42c-3.73-2.76-50.75-29.7-70.62-53.9a56,56,0,0,1-13.16-35.26h0A52.63,52.63,0,0,1,926.21,88h0a52.63,52.63,0,0,1,52.63,52.63h0l26.32,263.16h0a52.63,52.63,0,0,0,52.63,52.63h0a52.63,52.63,0,0,0,52.63-52.63h0l26.32-263.16h0A52.63,52.63,0,0,1,1189.37,88h0A52.63,52.63,0,0,1,1242,140.63h0V272.21h0a52.62,52.62,0,0,1-52.63,52.62h0l-5.56,2.78a85.16,85.16,0,0,0-45.38,59.27c-1.12,5.5-27.48,149-27.48,149h0A52.65,52.65,0,0,1,1058.31,588h-.52a52.64,52.64,0,0,1-46.85-28.62l-12.1-28.22a79.88,79.88,0,0,0-72.63-48.42Z" transform="translate(-742 -88)"/></svg>