<?xml version="1.0" encoding="utf-8"?>
<!-- Generator: Adobe Illustrator 24.2.3, SVG Export Plug-In . SVG Version: 6.00 Build 0)  -->
<svg version="1.1" xmlns="http://www.w3.org/2000/svg" xmlns:xlink="http://www.w3.org/1999/xlink" x="0px" y="0px"
	 viewBox="0 0 1366 768" style="enable-background:new 0 0 1366 768;" xml:space="preserve">
<style type="text/css">
	.st0{display:none;}
	.st1{display:inline;fill:#BDC91A;}
	.st2{display:inline;fill:#2EC5E9;}
	.st3{display:inline;fill:#E0804D;}
	.st4{display:inline;fill:none;stroke:#BDC91A;stroke-width:3;stroke-miterlimit:10;}
	.st5{fill:none;stroke:#BDC91A;stroke-miterlimit:10;}
	.st6{fill:none;stroke:#BDC91A;stroke-width:3;stroke-miterlimit:10;}
	.st7{fill:#BDC91A;}
	.st8{display:none;fill:#BDC91A;}
	.st9{display:inline;fill:#C61E1E;stroke:#FF1D25;stroke-width:2;stroke-miterlimit:10;}
</style>
<g id="Layer_2" class="st0">
	<rect x="716" y="6" class="st1" width="37.8" height="24"/>
	<rect x="759.4" y="6" class="st2" width="41.3" height="24"/>
	<rect x="806.4" y="6" class="st3" width="41.3" height="24"/>
</g>
<g id="_x3F__x3F__x3F__15_" class="st0">
	<path class="st1" d="M800.43,272.93L800.43,272.93v-125v0c0-27.6,22.4-49.95,50-49.89l3.41,0.01l0,0
		c25.73,0,46.59,20.86,46.59,46.59v3.29l25,125v0c0,27.61,22.39,50,50,50h0h0c24.59,0,45.04-17.75,49.22-41.14
		c0.51-2.88,26.24-141.3,26.98-144.64c4.96-22.18,24.76-38.72,48.39-38.72h50.91c0,0,59.46-0.5,74.5-0.5l0,0h0
		c27.61,0,50,22.39,50,50v0v125v0c0,27.61-22.39,50-50,50h0l0,0c-14.64,0-27.82-6.29-36.96-16.33c-8.05-8.83-47.5-63.13-49.6-65.65
		c-9.17-11.01-22.99-18.02-38.44-18.02h0l0,0c-27.61,0-50,22.39-50,50v0v0c0,25.17,18.6,46,42.8,49.49
		c2.35,0.34,139.02,25.86,142.28,26.53c22.78,4.66,39.92,24.82,39.92,48.98v0c0,0.08-0.05,0.34,0,0.26
		c0.07-0.11,0.12,0.37,0.13,1.29c0.26,14.83-5.39,29.15-15.54,39.97c-30.13,32.1-98.03,103.02-129.09,123.98
		c-12.39,8.36-24.94,9.5-30.49,9.5h-0.01h-0.01c-23.64,0-43.45-16.42-48.66-38.47c-0.87-3.7-26.58-143.89-27.06-146.6
		c-3.95-22.68-23.74-39.93-47.56-39.94h0h-1.72c-27.61,0-50,22.39-50,50v0v0c0,0.18,0,0.37-0.01,0.56
		c-0.17,17.36,8.8,32.66,22.41,41.36c1.5,0.96,49.09,36.79,57.25,42.71c12.28,8.91,20.19,23.49,19.87,39.88l-0.02,1v0.02
		c0,27.6-22.37,49.98-49.98,49.98h-0.02c0,0-108.95-0.5-124.49-0.5h-0.01h-0.01c-27.61,0-49.99-22.39-49.99-50v0v0
		c0-12.84-0.5-125.5-0.5-125.5C799.93,381,800.43,286.32,800.43,272.93z"/>
</g>
<g id="_x3F__x3F__x3F__14_" class="st0">
	<path class="st1" d="M1096.87,292.66c29.95-0.1,54.32,25.41,52.49,55.36c-1.41,27.96-155.01,181.48-184.07,181.48
		c-29.07,0-52.64-23.56-52.63-52.63c-9.61-32.29-20.1-137.51-39.47-166.84c-30.85-35.85-93.47-11.71-92.11,35.27
		c-4.55,43.97,66.91,68.05,91.05,96.32c32.77,36.29,5.17,87.41-38.42,87.89c0,0-131.58,0-131.58,0c-29,0-52.5-23.51-52.5-52.5
		c-0.36-30.72,0.38-99.88,0.4-131.18c-0.41-20.33,10.95-38.28,27.79-47.15c4.94-2.61,41.61-23.74,62.74-48.64
		c9.91-11.68,14.21-36.32,14.21-36.32c2.97-12.97,27.9-143.19,30.45-152.07c33.72-71.75,138.87-9.93,87.97,55.75
		c-24.61,28.43-93.54,52.3-92.1,96.31c0,29.07,23.56,52.63,52.63,52.63C833.71,266.34,1096.86,292.66,1096.87,292.66z"/>
</g>
<g id="_x3F__x3F__x3F__13_" class="st0">
	<path class="st1" d="M127.43,261.93L127.43,261.93v-125v0c0-27.6,22.4-49.95,50-49.89l3.41,0.01h0c15.81,0,77.14,0.14,122.09,0.26
		c27.64,0.07,50,22.49,50,50.13v0l0,0.01c-0.35,17.01-9.16,31.89-22.36,40.67c-4.9,3.26-39.41,23.62-60.64,45.32
		c-13.08,13.38-17.62,26.73-17.5,38.5v0v0c0,27.61,22.39,50,50,50h0h0c24.59,0,45.04-17.75,49.22-41.14
		c0.51-2.88,26.24-141.3,26.99-144.64c4.96-22.18,24.76-38.72,48.39-38.72h50.91c0,0,59.46-0.5,74.5-0.5h0h0c27.61,0,50,22.39,50,50
		v0v125v0c0,27.61-22.39,50-50,50h0h0c-14.64,0-27.82-6.29-36.96-16.33c-8.05-8.83-47.5-63.13-49.6-65.65
		c-9.17-11.01-22.99-18.02-38.44-18.02h0h0c-27.61,0-50,22.39-50,50v0v0c0,25.17,18.6,46,42.8,49.49
		c2.35,0.34,139.02,25.86,142.28,26.53c22.78,4.66,39.92,24.82,39.92,48.98v0c0,0.08-0.05,0.34,0,0.26
		c0.07-0.11,0.12,0.37,0.13,1.29c0.26,14.83-5.39,29.15-15.54,39.97c-30.13,32.1-98.03,103.02-129.09,123.98
		c-12.39,8.36-24.94,9.5-30.49,9.5h-0.01h-0.01c-23.64,0-43.45-16.42-48.66-38.47c-0.87-3.7-26.58-143.89-27.06-146.6
		c-3.95-22.68-23.74-39.93-47.56-39.94h0h-1.72c-27.61,0-50,22.39-50,50v0v0c0,0.18,0,0.37-0.01,0.56
		c-0.17,17.36,8.8,32.66,22.41,41.36c1.5,0.96,49.09,36.79,57.25,42.71c12.28,8.91,20.19,23.49,19.87,39.88l-0.02,1v0.02
		c0,27.6-22.37,49.98-49.98,49.98h-0.02c0,0-108.95-0.5-124.49-0.5h-0.01h-0.01c-27.61,0-49.99-22.39-49.99-50v0v0
		c0-12.84-0.5-125.5-0.5-125.5C126.93,370,127.43,275.32,127.43,261.93z"/>
</g>
<g id="_x3F__x3F__x3F__12_" class="st0">
	<path class="st1" d="M766.41,281.91L766.41,281.91l0-125v0c0-27.6,22.4-49.95,50-49.89l3.41,0.01h0c15.81,0,77.14,0.14,122.09,0.26
		c27.64,0.07,50,22.49,50,50.13v0l0,0.01c-0.35,17.01-9.16,31.89-22.36,40.67c-4.9,3.26-39.41,23.62-60.64,45.32
		c-13.08,13.38-17.62,26.73-17.5,38.5v0v0c0,27.61,22.39,50,50,50h0l0,0c24.59,0,45.04-17.75,49.22-41.14
		c0.51-2.88,26.24-141.3,26.98-144.64c4.96-22.18,24.76-38.72,48.39-38.72l50.91,0c0,0,59.46-0.5,74.5-0.5l0,0h0
		c27.61,0,50,22.39,50,50v0v125v0c0,27.61-22.39,50-50,50h0l0,0c-14.64,0-27.82-6.29-36.96-16.33c-8.05-8.83-47.5-63.13-49.6-65.65
		c-9.17-11.01-22.99-18.02-38.44-18.02l0,0h0c-27.61,0-50,22.39-50,50v0v0c0,25.17,18.6,46,42.8,49.49
		c2.35,0.34,139.02,25.86,142.28,26.53c22.78,4.66,39.92,24.82,39.92,48.98v0c0,0.08-0.05,0.34,0,0.26
		c0.07-0.11,0.12,0.37,0.13,1.29c0.26,14.83-0.63,123.95-0.63,123.95v0.99c0,26.9-22.1,48.56-49,48.01l0,0l-0.01,0
		c-13.32,0.27-25.49-4.8-34.48-13.23c-3.05-2.85-175.75-192.61-179.66-196.64c-8.77-9.03-21.04-14.63-34.62-14.64h0h-1.72
		c-27.61,0-50,22.39-50,50v0v0c0,0.18,0,0.37-0.01,0.56c-0.17,17.36,8.8,32.66,22.41,41.36c1.5,0.96,49.09,36.79,57.25,42.71
		c12.28,8.91,20.19,23.49,19.87,39.88l-0.02,1v0.02c0,27.6-22.37,49.98-49.98,49.98h-0.02c0,0-108.95-0.5-124.49-0.5h-0.01h-0.01
		c-27.61,0-49.99-22.39-49.99-50l0,0v0c0-12.84-0.5-125.5-0.5-125.5C765.91,389.99,766.41,295.3,766.41,281.91z"/>
</g>
<g id="_x3F__x3F__x3F__11_" class="st0">
	<path class="st1" d="M796.41,259.91L796.41,259.91v-125v0c0-27.6,22.4-49.95,50-49.89l3.41,0.01h0c15.81,0,77.14,0.14,122.09,0.26
		c27.64,0.07,50,22.49,50,50.13v0l0,0.01c-0.35,17.01-9.16,31.89-22.36,40.67c-4.9,3.26-39.41,23.62-60.64,45.32
		c-13.08,13.38-17.62,26.73-17.5,38.5v0v0c0,27.61,22.39,50,50,50h0h0c24.59,0,45.04-17.75,49.22-41.14
		c0.51-2.88,26.24-141.3,26.99-144.64c4.96-22.18,24.76-38.72,48.39-38.72h50.91c0,0,59.46-0.5,74.5-0.5l0,0l0,0
		c27.61,0,50,22.39,50,50v0v125v0c0,27.61-22.39,50-50,50h0l0,0c-14.64,0-27.82-6.29-36.96-16.33c-8.05-8.83-47.5-63.13-49.6-65.65
		c-9.17-11.01-22.99-18.02-38.44-18.02l0,0l0,0c-27.61,0-50,22.39-50,50v0v0c0,25.17,18.6,46,42.8,49.49
		c2.35,0.34,139.02,25.86,142.28,26.53c22.78,4.66,39.92,24.82,39.92,48.98v0c0,0.08-0.05,0.34,0,0.26
		c0.08-0.11,0.12,0.37,0.13,1.29c0.26,14.83-0.63,123.95-0.63,123.95v0.99c0,26.9-22.1,48.56-49,48.01l0,0l-0.01,0h0
		c-21.3,0.43-39.65-12.79-46.8-31.56c-2.06-5.42-29.87-154.13-31.41-159.05c-6.22-19.86-24.8-34.31-46.79-34.24
		c-48.24,0.15-115.2,0.34-123.77,0.34l0,0h-1.72c-27.61,0-50,22.39-50,50v0v0c0,0.18,0,0.37-0.01,0.56
		c-0.17,17.36,8.8,32.66,22.41,41.36c1.5,0.96,49.09,36.79,57.25,42.71c12.28,8.91,20.19,23.49,19.87,39.88l-0.02,1v0.02
		c0,27.6-22.37,49.98-49.98,49.98h-0.02c0,0-108.95-0.5-124.49-0.5h-0.01h-0.01c-27.61,0-49.99-22.39-49.99-50v0v0
		c0-12.84-0.5-125.5-0.5-125.5C795.91,367.99,796.41,273.3,796.41,259.91z"/>
</g>
<g id="_x3F__x3F__x3F__10_" class="st0">
	<path class="st1" d="M451.94,355.34c-80.91,215.28-9.17,195.51-251.47,194.13c-27.39,0.5-49.9-19.55-49.9-44.46
		c-0.59-0.43,0.42-408.51,0-409.12c0-25.05,22.34-45.36,49.9-45.36c23.85,0,43.79,15.21,48.72,35.54
		c0.77,3.16,51.53,153.01,52.4,156.37c10.84,46.07,87.32,45.51,97.31-0.77c0.36-1.48,51.48-152.71,52.31-155.99
		c5.09-20.14,24.93-35.15,48.63-35.15c0,0,149.68,0,149.68,0c52.95-0.82,69.16,68.54,19.51,87.12
		c-1.12,0.43-181.45,50.32-182.54,50.6c-47.03,10.74-48.3,74.73-1.66,86.99c0,0,176.5,48.72,176.5,48.72
		c21.85,4.82,38.08,22.73,38.08,44.08c0,25.05-22.34,45.36-49.89,45.36c-10.03,1.54-31.02-7.13-35.43-12.89
		c-41.37-33.04-68.62-55.29-78.33-64.21c-25.61-24.76-74.83-13.45-83.93,19.35"/>
</g>
<g id="E_copy_4" class="st0">
	<path class="st4" d="M549.08,150.75c0-0.57,0.01-1.15,0.01-1.73l0.01-0.85c0.2-27.2-22.08-49.21-49.28-48.67l-1.34,0.03
		c0,0-100.46,0-124.09,0h0h0c-10.65,0-20.5,3.4-28.53,9.18c-4.63,3.33-131.32,128.81-135.65,134.59
		c-6.25,8.35-9.89,18.75-9.73,29.97c0,0.1,0,0.18,0,0.25l0,0.17c0.15,7.53-1,125.83-1,125.83c0,2,0,125,0,125v0
		c0.56,27.38,22.62,49.43,50,49.98l1,0.02h50l200.75-0.8c27.23-0.11,49.25-22.21,49.25-49.45v0c0-28.03-22.72-50.75-50.75-50.75
		H375.48l-4.64,0.06c-38.71,0.52-70.36-30.72-70.36-69.43v-4.63c0,0,26.11-142.71,29.39-149.1c8.08-15.7,24.46-26.41,43.28-26.4
		c0.12,0,0.24,0,0.35,0c0.16,0,0.31,0,0.47,0h0h0c27.61,0,50,22.39,50,50v0v0l0,0.01c0.25,12.8-4.42,24.53-12.26,33.41
		c-8.97,10.16-61.47,45.98-70.11,53.52c-10.55,9.21-17.08,22.9-16.63,38.05v0v0c0,27.61,22.38,50,50,50h0l2.51-0.03
		c7.64-0.08,123.01,1.51,123.01,1.51h0c27.22-0.56,48.99-22.78,48.97-50.01c-0.03-47.4-0.07-113.18-0.09-121.01
		C549.23,230.9,549.02,160.89,549.08,150.75z"/>
	<path class="st1" d="M1189.08,177.75c0-0.57,0.01-1.15,0.01-1.73l0.01-0.85c0.2-27.2-22.08-49.21-49.28-48.67l-1.34,0.03
		c0,0-100.46,0-124.09,0h0h0c-10.65,0-20.5,3.4-28.53,9.18c-4.63,3.33-131.32,128.81-135.65,134.59
		c-6.25,8.35-9.89,18.75-9.73,29.97c0,0.1,0,0.18,0,0.25l0,0.17c0.15,7.53-1,125.83-1,125.83c0,2,0,125,0,125v0
		c0.56,27.38,22.62,49.43,50,49.98l1,0.02h50l200.75-0.8c27.23-0.11,49.25-22.21,49.25-49.45v0c0-28.03-22.72-50.75-50.75-50.75
		h-124.25l-4.64,0.06c-38.71,0.52-70.36-30.72-70.36-69.43v-4.63c0,0,26.11-142.71,29.39-149.1c8.08-15.7,24.46-26.41,43.28-26.4
		c0.12,0,0.24,0,0.35,0c0.16,0,0.31,0,0.47,0h0h0c27.61,0,50,22.39,50,50v0v0l0,0.01c0.25,12.8-4.42,24.53-12.26,33.41
		c-8.97,10.16-61.47,45.98-70.11,53.52c-10.55,9.21-17.08,22.9-16.63,38.05v0v0c0,27.61,22.38,50,50,50h0l2.51-0.03
		c7.64-0.08,123.01,1.51,123.01,1.51l0,0c27.22-0.56,48.99-22.78,48.97-50.01c-0.03-47.4-0.07-113.18-0.09-121.01
		C1189.23,257.9,1189.02,187.89,1189.08,177.75z"/>
</g>
<g id="E_copy_6" class="st0">
	<path class="st4" d="M407.81,111.89c-8.71-7.7-20.16-12.38-32.72-12.38c-0.24,0-0.47,0-0.71,0h0h0c-6.75,0-75.17-0.01-124.39-0.01
		c-0.28,0-0.57,0-0.85,0c-27.38,0-49.53,22.26-49.39,49.64c0,0.28,0,0.57,0,0.85c0.25,48.74,0.62,116.18,0.72,123.27
		c0,0.1,0,0.18,0,0.25l0,0.17c0.15,7.53-1,125.83-1,125.83c0,2,0,125,0,125v0c0.56,27.38,22.62,49.43,50,49.98l1,0.02h50l200.75-0.8
		c27.23-0.11,49.25-22.21,49.25-49.45v0c0-28.03-22.72-50.75-50.75-50.75H375.48l-4.64,0.06c-38.71,0.52-70.36-30.72-70.36-69.43
		v-4.63c0,0,26.11-142.71,29.39-149.1c8.08-15.7,24.46-26.41,43.28-26.4c0.12,0,0.24,0,0.35,0c0.16,0,0.31,0,0.47,0h0h0
		c27.61,0,50,22.39,50,50v0v0l0,0.01c0.25,12.8-4.42,24.53-12.26,33.41c-8.97,10.16-61.47,45.98-70.11,53.52
		c-10.55,9.21-17.08,22.9-16.63,38.05v0v0c0,27.61,22.38,50,50,50h0l2.51-0.03c10.4-0.11,19.98-3.55,27.74-9.29
		c3.81-2.82,128.41-125.24,131.37-128.31c7.94-8.27,12.81-19.52,12.77-31.9c-0.01-1.81-0.01-3.56-0.01-5.26
		c-0.03-11.44-3.99-21.95-10.59-30.25C536.48,241.1,418.3,121.16,407.81,111.89z"/>
	<path class="st1" d="M1040.81,110.89c-8.71-7.7-20.16-12.38-32.72-12.38c-0.24,0-0.47,0-0.71,0h0h0c-6.75,0-75.17-0.01-124.39-0.01
		c-0.28,0-0.57,0-0.85,0c-27.38,0-49.53,22.26-49.39,49.64c0,0.28,0,0.57,0,0.85c0.25,48.74,0.62,116.18,0.72,123.27
		c0,0.1,0,0.18,0,0.25l0,0.17c0.15,7.53-1,125.83-1,125.83c0,2,0,125,0,125v0c0.56,27.38,22.62,49.43,50,49.98l1,0.02h50l200.75-0.8
		c27.23-0.11,49.25-22.21,49.25-49.45v0c0-28.03-22.72-50.75-50.75-50.75h-124.25l-4.64,0.06c-38.71,0.52-70.36-30.72-70.36-69.43
		v-4.63c0,0,26.11-142.71,29.39-149.1c8.08-15.7,24.46-26.41,43.28-26.4c0.12,0,0.24,0,0.35,0c0.16,0,0.31,0,0.47,0h0h0
		c27.61,0,50,22.39,50,50v0v0l0,0.01c0.25,12.8-4.42,24.53-12.26,33.41c-8.97,10.16-61.47,45.98-70.11,53.52
		c-10.55,9.21-17.08,22.9-16.63,38.05v0v0c0,27.61,22.38,50,50,50h0l2.51-0.03c10.4-0.11,19.98-3.55,27.74-9.29
		c3.81-2.82,128.41-125.24,131.37-128.31c7.94-8.27,12.81-19.52,12.77-31.9c-0.01-1.81-0.01-3.56-0.01-5.26
		c-0.03-11.44-3.99-21.95-10.59-30.25C1169.48,240.1,1051.3,120.16,1040.81,110.89z"/>
</g>
<g id="E_copy" class="st0">
	<path class="st4" d="M251.73,574.1c-0.57,0-1.15,0.01-1.73,0.01l-0.85,0.01c-27.2,0.2-49.21-22.08-48.67-49.28l0.03-1.34
		c0,0,0-100.46,0-124.09v0v0c0-10.65,3.4-20.5,9.18-28.53c3.33-4.63,128.81-131.32,134.59-135.65c8.35-6.25,18.75-9.89,29.97-9.73
		c0.1,0,0.18,0,0.25,0l0.17,0c7.53,0.15,125.83-1,125.83-1c2,0,125,0,125,0h0c27.38,0.56,49.43,22.62,49.98,50l0.02,1v50
		l-0.8,200.75c-0.11,27.23-22.21,49.25-49.45,49.25h0c-28.03,0-50.75-22.72-50.75-50.75V400.5l0.06-4.64
		c0.52-38.71-30.72-70.36-69.43-70.36h-4.63c0,0-142.71,26.11-149.1,29.39c-15.7,8.08-26.41,24.46-26.4,43.28c0,0.12,0,0.24,0,0.35
		c0,0.16,0,0.31,0,0.47v0v0c0,22.84,15.31,42.1,36.24,48.08c4.37,1.25,147.27,28.86,151.49,29.93c21.22,5.4,37.05,24.53,37.27,47.5
		l0,0.49v0.01c0,27.61-22.39,49.99-50,49.99h0h0C485.43,575,266.68,574,251.73,574.1z"/>
	<path class="st1" d="M838.88,296.75c0-0.57-0.01-1.15-0.01-1.73l-0.01-0.85c-0.2-27.2,22.08-49.21,49.28-48.67l1.34,0.03
		c0,0,100.46,0,124.09,0l0,0h0c10.65,0,20.5,3.4,28.53,9.18c4.63,3.33,131.32,128.81,135.65,134.59c6.25,8.35,9.89,18.75,9.73,29.97
		c0,0.1,0,0.18,0,0.25l0,0.17c-0.15,7.53,1,125.83,1,125.83c0,2,0,125,0,125v0c-0.56,27.38-22.62,49.43-50,49.98l-1,0.02h-50
		l-200.75-0.8c-27.23-0.11-49.25-22.21-49.25-49.45v0c0-28.03,22.72-50.75,50.75-50.75h124.25l4.64,0.06
		c38.71,0.52,70.36-30.72,70.36-69.43v-4.63c0,0-26.11-142.71-29.39-149.1c-8.08-15.7-24.46-26.41-43.28-26.4c-0.12,0-0.24,0-0.35,0
		c-0.16,0-0.31,0-0.47,0h0h0c-22.84,0-42.1,15.31-48.08,36.24c-1.25,4.37-28.86,147.27-29.93,151.49
		c-5.4,21.22-24.53,37.05-47.5,37.27l-0.49,0h-0.01c-27.61,0-49.99-22.39-49.99-50v0v0C837.98,530.44,838.98,311.7,838.88,296.75z"
		/>
</g>
<g id="_x3F__x3F__x3F__9_" class="st0">
	<path class="st1" d="M1238.5,199.5c-72.29,10.05-193.61,14.46-253,25c-22.66,4.02-29.03,10.21-33,14
		C939.53,250.88,936,266.17,936,275v0v0c0,27.61,22.38,50,50,50h0l250,25l0,0c27.61,0,50,22.39,50,50v0l-0.13,2.59
		C1284.53,429.15,1138.61,575,1111,575h0h-0.01c-27.61,0-49.99-22.39-49.99-50v0l-25-125c0,0-1.69-19.82-12.5-33.5
		c-8.72-11.03-25.18-16.5-37.5-16.5h0h0c-27.61,0-50,22.39-50,50v0v0c0,8.8-0.25,19.53,11.5,32.5c17.55,19.36,57.56,40.23,75,59
		c11.57,12.45,13.5,25.65,13.5,33.5v0v0c0,27.61-22.39,50-50,50H861h0c-27.55,0-49.88-22.33-49.88-49.88V475l0.38-74.5l0-0.63
		c-0.14-19.14,10.59-35.81,26.41-44.17c4.69-2.48,39.53-22.55,59.6-46.21C906.92,298.4,911,275,911,275l25-125
		c0,0,1.4-13.48,3.93-19.46C947.52,112.59,965.29,100,986,100h0h0h250l0,0c27.55,0,49.83,22.44,49.62,49.99l-0.01,3.5
		C1285.55,179.31,1264.31,200.05,1238.5,199.5L1238.5,199.5z"/>
	<path class="st5" d="M200,400"/>
	<path class="st4" d="M627.5,199.5c-72.29,10.05-193.61,14.46-253,25c-22.66,4.02-29.03,10.21-33,14
		C328.53,250.88,325,266.17,325,275v0v0c0,27.61,22.38,50,50,50h0l250,25h0c27.61,0,50,22.39,50,50v0l-0.13,2.59
		C673.53,429.15,527.61,575,500,575h0h-0.01c-27.61,0-49.99-22.39-49.99-50v0l-25-125c0,0-1.69-19.82-12.5-33.5
		c-8.72-11.03-25.18-16.5-37.5-16.5h0h0c-27.61,0-50,22.39-50,50v0v0c0,8.8-0.25,19.53,11.5,32.5c17.55,19.36,57.56,40.23,75,59
		c11.57,12.45,13.5,25.65,13.5,33.5v0v0c0,27.61-22.39,50-50,50H250h0c-27.55,0-49.88-22.33-49.88-49.88V475l0.38-74.5l0-0.63
		c-0.14-19.14,10.59-35.81,26.41-44.17c4.69-2.48,39.53-22.55,59.6-46.21C295.92,298.4,300,275,300,275l25-125
		c0,0,1.4-13.48,3.93-19.46C336.52,112.59,354.29,100,375,100h0h0h250h0c27.55,0,49.83,22.44,49.62,49.99l-0.01,3.5
		C674.55,179.31,653.31,200.05,627.5,199.5L627.5,199.5z"/>
</g>
<g id="_x3F__x3F__x3F__8_" class="st0">
	<path class="st5" d="M200,400"/>
	<path class="st6" d="M627.5,199.5c-72.29,10.05-193.61,14.46-253,25c-22.66,4.02-29.03,10.21-33,14
		C328.53,250.88,325,266.17,325,275v0v0c0,27.61,22.38,50,50,50h0l250,25h0c27.61,0,50,22.39,50,50v0l-0.13,2.59
		C673.53,429.15,527.61,575,500,575h0h-0.01c-27.61,0-49.99-22.39-49.99-50v0l-25-125c0,0-1.69-19.82-12.5-33.5
		c-8.72-11.03-25.18-16.5-37.5-16.5h0h0c-27.61,0-50,22.39-50,50v0v0c0,8.8-0.25,19.53,11.5,32.5c17.55,19.36,57.56,40.23,75,59
		c11.57,12.45,13.5,25.65,13.5,33.5v0v0c0,27.61-22.39,50-50,50H250h0c-27.55,0-49.88-22.33-49.88-49.88V475l0.38-74.5l0-0.63
		c-0.14-19.14,10.59-35.81,26.41-44.17c4.69-2.48,39.53-22.55,59.6-46.21C295.92,298.4,300,275,300,275l25-125
		c0,0,1.4-13.48,3.93-19.46C336.52,112.59,354.29,100,375,100h0h0h250h0c27.55,0,49.83,22.44,49.62,49.99l-0.01,3.5
		C674.55,179.31,653.31,200.05,627.5,199.5L627.5,199.5z"/>
	<path class="st1" d="M1262.5,179.24c-76.09,10.58-203.8,15.23-266.32,26.32c-23.85,4.23-30.56,10.75-34.74,14.74
		c-13.65,13.03-17.37,29.12-17.37,38.42v0v0c0,29.07,23.56,52.63,52.63,52.63h0l263.16,26.32l0,0c29.07,0,52.63,23.56,52.63,52.63v0
		l-0.14,2.73c-1.41,27.96-155.01,181.48-184.07,181.48h0h-0.01c-29.06,0-52.62-23.57-52.62-52.63v0l-26.32-131.58
		c0,0-1.77-20.86-13.16-35.26c-9.17-11.61-26.5-17.37-39.47-17.37h0h0c-29.07,0-52.63,23.56-52.63,52.63v0v0
		c0,9.26-0.26,20.56,12.11,34.21c18.47,20.38,60.58,42.35,78.95,62.11c12.18,13.1,14.21,27,14.21,35.26v0v0
		c0,29.07-23.56,52.63-52.63,52.63H865.13l0,0c-29,0-52.5-23.51-52.5-52.5v-52.76l0.4-78.42l0-0.66
		c-0.15-20.15,11.15-37.69,27.79-46.49c4.94-2.61,41.61-23.74,62.74-48.64c9.91-11.68,14.21-36.32,14.21-36.32l26.32-131.58
		c0,0,1.47-14.19,4.14-20.49c7.99-18.89,26.69-32.14,48.5-32.14h0h0h263.16l0,0c29,0,52.45,23.62,52.23,52.62l-0.01,3.68
		C1312.02,157.98,1289.67,179.81,1262.5,179.24L1262.5,179.24z"/>
</g>
<g id="_x3F__x3F__x3F__7_" class="st0">
	<path class="st6" d="M375,475L375,475c-21.57,0-39.95,13.66-46.96,32.8c-1.33,3.62-21.5,36.01-44.54,54.7
		c-11.07,8.98-23.56,12.5-33.5,12.5h0h0c-27.61,0-50-22.38-50-50v0l0-0.12c0.06-24.12,17.19-44.22,39.94-48.87
		c3.25-0.66,144.73-26.72,149.22-28.05C409.88,441.86,425,422.7,425,400v0V275v0c0-16.54-8.03-31.2-20.4-40.3
		c-3.55-2.61-48.22-28.21-67.1-51.2c-9.17-11.16-12.5-23.53-12.5-33.5v0v0c0-27.61,22.39-50,50-50h0h0c27.61,0,50,22.39,50,50v0
		l25,250v0.01c0,27.61,22.39,49.99,50,49.99h0h0c27.61,0,50-22.38,50-50v0l25-250v0c0-27.61,22.38-50,50-50h0h0
		c27.61,0,50,22.39,50,50v0v125v0.01c0,27.61-22.39,49.99-50,49.99h0l-5.28,2.64c-22.53,11.26-38.23,32.19-43.11,56.3
		c-1.06,5.22-26.11,141.55-26.11,141.55v0c-0.28,27.42-22.59,49.5-50.01,49.5H500h0c-19.4,0-36.22-11.05-44.51-27.19L444,521
		C432.15,493.35,405.08,475.3,375,475L375,475z"/>
	<path class="st1" d="M598.21,467.74L598.21,467.74c-22.7,0-42.05,14.38-49.43,34.52c-1.4,3.81-22.63,37.9-46.88,57.58
		c-11.65,9.45-24.8,13.16-35.26,13.16h0h0c-29.07,0-52.63-23.56-52.63-52.63v0l0-0.13c0.06-25.39,18.09-46.55,42.04-51.44
		c3.42-0.7,152.35-28.13,157.07-29.52c21.81-6.43,37.73-26.6,37.73-50.49v0V257.21v0c0-17.41-8.45-32.84-21.48-42.42
		c-3.74-2.75-50.76-29.69-70.63-53.89c-9.65-11.75-13.16-24.77-13.16-35.26v0v0c0-29.07,23.57-52.63,52.63-52.63h0h0
		c29.07,0,52.63,23.56,52.63,52.63v0l26.32,263.16v0.01c0,29.07,23.57,52.63,52.63,52.63h0h0c29.07,0,52.63-23.56,52.63-52.63v0
		l26.32-263.16v0c0-29.07,23.56-52.63,52.63-52.63h0h0C890.44,73,914,96.57,914,125.63v0v131.58v0.01
		c0,29.06-23.57,52.62-52.63,52.62h0l-5.56,2.78c-23.71,11.86-40.24,33.89-45.38,59.27c-1.11,5.5-27.48,149-27.48,149v0
		c-0.29,28.86-23.78,52.11-52.64,52.11h-0.52h0c-20.42,0-38.12-11.63-46.85-28.62l-12.1-28.22
		C658.37,487.05,629.88,468.06,598.21,467.74L598.21,467.74z"/>
</g>
<g id="_x3F__x3F__x3F__6_" class="st0">
	<path id="shape1" class="st1" d="M355.05,566.95c-9.45,9.02-22.24,14.55-36.33,14.55h0H187.13h0c-29.05,0-52.58-23.58-52.52-52.63
		l0.01-3.59v0c0-27.08,21.96-49.04,49.04-49.04h3.46l131.58-26.32h0c29.07,0,52.63-23.56,52.63-52.63v0v0
		c0-29.07-23.56-52.63-52.63-52.63l-1.74,0h0c-18.3,0-34.35,9.66-43.32,24.17c-4.8,7.77-43.09,58.28-44.37,59.99
		c-9.6,12.82-24.91,21.11-42.15,21.11h0h0c-29.02,0-52.56-23.49-52.63-52.5l0-0.13v0v0c0-17,8.06-32.12,20.57-41.74
		c5.8-4.46,46.3-27.93,69.43-52.47c12.29-13.04,15.26-26.18,15.26-37.37v0v0c0-9.84-2.81-23.61-13.16-35.26
		c-23.57-26.54-67.62-51.03-74.04-56.63c-11.07-9.65-18.06-23.85-18.06-39.69v0v0c0-29.07,23.56-52.63,52.63-52.63h0h131.58h0
		c29.07,0,52.63,23.56,52.63,52.63v0v0c0,15.41-6.62,29.28-17.19,38.91c-9.29,8.47-66.45,50-69.1,52.21
		c-11.59,9.65-18.97,24.2-18.97,40.46v0v0c0,29.07,23.56,52.63,52.63,52.63h0h0c26.5,0,48.42-19.58,52.09-45.06
		c0.36-2.47,27.23-146.34,27.93-149.77c4.91-23.98,26.13-42.02,51.56-42.02h0c29.07,0,52.63,23.56,52.63,52.63v0
		c0,19.28-10.37,36.14-25.83,45.3c-7.85,4.65-46.58,36.13-54.87,41.36c-14.78,9.32-24.71,25.65-25.07,44.38l-0.02,1.06v0
		c0,29.07,23.56,52.63,52.63,52.63h1.05h0c14.44,0,27.49-5.87,36.93-15.34c7.81-7.84,35.61-53.52,56.79-74.84
		c4.6-4.64,12.03-9.21,15.76-10.87c9.47-4.21,21.58-4.74,21.58-4.74h0h0c4.09,0,8.07,0.47,11.89,1.35
		c23.34,5.39,40.74,26.3,40.74,51.28v0.01v0.01c0,24.89-17.28,45.74-40.49,51.22c-3.9,0.92-151.46,27.98-154.32,28.48
		c-23.88,4.16-42.03,24.99-42.04,50.06v0v1.81c0,29.07,23.56,52.63,52.63,52.63h0l131.58,26.32h0c29.06,0,52.63,23.56,52.63,52.62
		v0.01v0.01c-0.01,29.06-23.57,52.62-52.63,52.62h0h0c-13.51,0-25.84-5.09-35.16-13.46c-4.51-4.05-44.5-63.31-53.79-72.33
		c-4.62-4.48-10.67-10.76-16.84-13.68c-11.84-5.61-25.79-5.79-25.79-5.79h-0.01c-17.29,0-32.63,8.34-42.22,21.21
		C405.21,501.28,358.54,563.61,355.05,566.95z"/>
</g>
<g id="_x3F__x3F__x3F__4_" class="st0">
	<path id="shape2" class="st1" d="M944.09,339.53c-13.57,1.11-25.89,8.37-33.44,19.7l-0.68,1.01c-15.12,21.6-45.39,64.4-51.08,69.67
		c-9.39,8.7-21.96,14.02-35.77,14.01l-0.52,0c-28.86-0.29-52.1-23.77-52.1-52.63l0.11-262.42c0.01-28.74,22.75-52.8,51.49-53.35
		c25.9-0.5,47.65,17.72,52.61,42.04c0.17,0.85,27.59,147.56,27.99,150.17c3.86,25.26,25.68,44.61,52.03,44.62
		c25.87,0,47.38-18.66,51.8-43.26c0.55-3.04,27.15-140.95,27.15-140.96c0-26.85,20.12-49.01,46.1-52.22c2.14-0.26,4.32-0.4,6.54-0.4
		c6.36,0,27.89,2.63,39.47,18.42c36.69,50.03,122.41,122.72,123.73,123.71c12.76,9.6,21.01,24.88,21.01,42.08
		c0,0.86-0.53,20.53-11.05,32.11c-11.93,13.13-32.46,19.97-32.63,20c-28.73,5.49-147.61,27.16-150.18,27.61
		c-24.57,4.24-43.32,25.56-43.5,51.34l0.07,0.86c1.54,19.24,11.61,36.79,27.44,47.83c1.41,0.98,2.68,1.87,3.73,2.64l49.29,35.82
		c15.31,9.35,25.48,26.3,25.25,45.61c-0.35,28.96-24.55,51.98-53.51,51.98h-130.7l-0.53-0.01c-28.86-0.29-52.1-23.77-52.1-52.63
		c0-19.48,10.58-36.49,26.32-45.59l64.25-48.8c9.16-10.09,14.54-23.04,15.22-36.66l0,0l0-0.46c-0.27-29.17-23.98-52.68-53.15-52.7h0
		L944.09,339.53z"/>
</g>
<g id="_x3F__x3F__x3F__3_" class="st0">
	<path class="st6" d="M375,575L375,575H250h0c-27.6,0-49.95-22.4-49.89-50l0.01-3.41v0c0-25.73,20.86-46.59,46.59-46.59H250l125-25
		h0c27.61,0,50-22.39,50-50v0v0c0-24.59-17.75-45.04-41.14-49.22c-2.88-0.51-141.3-26.24-144.64-26.99
		c-22.18-4.96-38.72-24.76-38.72-48.39V224.5c0,0-0.5-59.46-0.5-74.5v0v0c0-27.61,22.39-50,50-50h0h125h0c27.61,0,50,22.39,50,50v0
		v0c0,14.64-6.29,27.82-16.33,36.96c-8.83,8.05-63.13,47.5-65.65,49.6C332.01,245.73,325,259.55,325,275v0v0c0,27.61,22.39,50,50,50
		h0h0c25.17,0,46-18.6,49.49-42.8c0.34-2.35,25.86-139.02,26.53-142.28C455.68,117.14,475.84,100,500,100h0c0.08,0,0.34,0.05,0.26,0
		c-0.11-0.07,0.37-0.12,1.29-0.13c14.83-0.26,29.15,5.39,39.97,15.54c32.1,30.13,103.02,98.03,123.98,129.09
		c8.36,12.39,9.5,24.94,9.5,30.49V275v0.01c0,23.64-16.42,43.45-38.47,48.66c-3.7,0.87-143.89,26.58-146.6,27.06
		c-22.68,3.95-39.93,23.74-39.94,47.56v0V400c0,27.61,22.39,50,50,50h0h0c0.18,0,0.37,0,0.56,0.01c17.36,0.17,32.66-8.8,41.36-22.41
		c0.96-1.5,36.79-49.09,42.71-57.25c8.91-12.28,23.49-20.19,39.88-19.87l1,0.02h0.02c27.6,0,49.98,22.37,49.98,49.98v0.02
		c0,0-0.5,108.95-0.5,124.49V525v0.01c0,27.61-22.39,49.99-50,49.99h0h0c-12.84,0-125.5,0.5-125.5,0.5
		C483.08,575.5,388.39,575,375,575z"/>
	<path class="st1" d="M699.79,549.15L699.79,549.15h-131.4h0c-29.01,0-52.51-23.55-52.44-52.56l0.01-3.59v0
		c0-27.05,21.93-48.97,48.98-48.97h3.46l131.4-26.28l0,0c29.03,0,52.56-23.53,52.56-52.56v0v0c0-25.85-18.66-47.34-43.25-51.74
		c-3.02-0.54-148.54-27.58-152.05-28.37c-23.31-5.21-40.7-26.03-40.7-50.87V180.7c0,0-0.53-62.5-0.53-78.32v0v0
		c0-29.03,23.53-52.56,52.56-52.56h0h131.4l0,0c29.03,0,52.56,23.53,52.56,52.56v0v0c0,15.39-6.62,29.24-17.16,38.85
		c-9.28,8.46-66.36,49.93-69.01,52.14c-11.58,9.64-18.95,24.16-18.95,40.41v0v0c0,29.03,23.53,52.56,52.56,52.56h0l0,0
		c26.46,0,48.35-19.55,52.02-45c0.36-2.47,27.19-146.14,27.89-149.56c4.9-23.95,26.09-41.96,51.49-41.96h0c0.09,0,0.35,0.05,0.27,0
		c-0.12-0.08,0.39-0.12,1.35-0.14c15.59-0.27,30.65,5.66,42.02,16.34c33.74,31.67,108.3,103.06,130.33,135.7
		c8.79,13.02,9.99,26.22,9.99,32.06v0.01v0.01c0,24.85-17.26,45.68-40.44,51.15c-3.89,0.92-151.26,27.94-154.11,28.44
		c-23.85,4.16-41.98,24.96-41.98,49.99v0v1.81c0,29.03,23.53,52.56,52.56,52.56h0h0c0.19,0,0.39,0,0.59,0.01
		c18.25,0.18,34.33-9.25,43.47-23.55c1.01-1.58,38.68-51.6,44.9-60.18c9.37-12.91,24.69-21.22,41.92-20.88l1.05,0.02h0.02
		c29.01,0,52.54,23.52,52.54,52.54v0.03c0,0-0.53,114.53-0.53,130.87v0.01v0.01c-0.01,29.02-23.54,52.55-52.56,52.55h0h0
		c-13.49,0-131.92,0.53-131.92,0.53C813.4,549.68,713.86,549.15,699.79,549.15z"/>
</g>
<g id="_x3F__x3F__x3F__2_" class="st0">
	<path class="st6" d="M375.5,475.5L375.5,475.5c-17.12-0.34-32.34,8.13-41.36,21.22c-5.44,7.89-39.13,51.77-41.07,54.89
		c-8.82,14.19-24.62,23.58-42.56,23.4L250,575h0c-27.6,0-49.95-22.4-49.89-50l0.01-3.41v0c0-15.81,0.14-77.14,0.26-122.09
		c0.07-27.64,22.49-50,50.13-50h0l0.01,0c17.01,0.35,31.89,9.16,40.67,22.36c3.26,4.9,23.62,39.41,45.32,60.64
		c13.38,13.08,26.73,17.62,38.5,17.5h0h0c27.61,0,50-22.39,50-50v0v0c0-24.59-17.75-45.04-41.14-49.22
		c-2.88-0.51-141.3-26.24-144.64-26.99c-22.18-4.96-38.72-24.76-38.72-48.39V224.5c0,0-0.5-59.46-0.5-74.5v0v0
		c0-27.61,22.39-50,50-50h0h125h0c27.61,0,50,22.39,50,50v0v0c0,14.64-6.29,27.82-16.33,36.96c-8.83,8.05-63.13,47.5-65.65,49.6
		C332.01,245.73,325,259.55,325,275v0v0c0,27.61,22.39,50,50,50h0h0c25.17,0,46-18.6,49.49-42.8
		c0.34-2.35,25.86-139.02,26.53-142.28C455.68,117.14,475.84,100,500,100h0c0.08,0,0.34,0.05,0.26,0c-0.11-0.07,0.37-0.12,1.29-0.13
		c14.83-0.26,123.95,0.63,123.95,0.63h0.99c26.9,0,48.56,22.1,48.01,49v0l0,0.01v0c0.43,21.3-12.79,39.65-31.56,46.8
		c-5.42,2.06-154.13,29.87-159.05,31.41c-19.86,6.22-34.31,24.8-34.24,46.79c0.15,48.24,0.34,115.2,0.34,123.77v0V400
		c0,27.61,22.39,50,50,50h0h0c0.18,0,0.37,0,0.56,0.01c17.36,0.17,32.66-8.8,41.36-22.41c0.96-1.5,36.79-49.09,42.71-57.25
		c8.91-12.28,23.49-20.19,39.88-19.87l1,0.02h0.02c27.6,0,49.98,22.37,49.98,49.98v0.02c0,0-0.5,108.95-0.5,124.49V525v0.01
		c0,27.61-22.39,49.99-50,49.99h0h0l-0.09,0c-15,0.03-28.44-6.64-37.5-17.18c-3.26-3.79-35.01-57.65-61.91-75.32
		c-8.14-5.35-18.73-7-26-7h0C499.5,475.5,382.26,475.5,375.5,475.5z"/>
	<path class="st1" d="M333.64,241c0.36-18-8.54-33.99-22.3-43.47c-8.29-5.72-54.41-41.12-57.68-43.16
		c-43.97-25.95-24.38-98.95,27.96-97.69c20.39-0.2,81.45,0.31,131.89,0.28c50.96-0.82,71.81,68.53,29.04,95.42
		c-5.15,3.42-41.42,24.82-63.72,47.63c-66.63,71.38,62.19,140.04,85.88,49.77c46.51-209.11-11.75-193.28,211-193.22
		c29.02,0,52.55,23.52,52.55,52.54c0,0,0,131.36,0,131.36c1.61,46.95-61.56,70.56-91.39,35.38c-8.45-9.27-49.92-66.34-52.12-68.99
		c-28.85-37.34-94.65-14.52-92.94,33.61c0,26.45,19.54,48.34,44.98,52c204.61,43.24,195.4-5.83,190.94,212.29
		c0.6,56.68-82.15,69.02-100.68,17.29c-50.37-211.91,10.61-207.78-214.06-202.76c-50.88-1.96-72.09,70.99-29,96.59
		c1.58,1.01,51.59,38.66,60.16,44.89c12.91,9.36,21.22,24.68,20.88,41.91c0.53,29.38-23.13,53.65-52.57,53.6
		c-0.01,0-114.5-0.53-130.85-0.53c-29.02-0.01-52.54-23.53-52.54-52.55c-0.06-15.79,6.96-29.97,18.06-39.51
		c3.98-3.42,60.58-36.8,79.15-65.06C340.81,379.49,330.89,270.38,333.64,241z"/>
</g>
<g id="_x3F__x3F__x3F__1_" class="st0">
	<path class="st6" d="M409.52,561.17C400.54,569.74,388.39,575,375,575h0h0c-27.26,0.28-49.5-21.74-49.5-49v-1.49
		c0-16.01,7.66-30.19,19.49-39.13c5.69-4.3,50.77-38.42,59.09-44.44c12.54-9.08,20.75-23.78,20.91-40.43l0-0.5v0
		c0-27.61-22.39-50-50-50l-1.65,0h0c-17.39,0-32.63,9.18-41.15,22.96c-4.56,7.38-40.94,55.37-42.15,56.99
		C280.93,442.12,266.38,450,250,450h0h0c-27.57,0-49.93-22.31-50-49.88l0-0.12v0v0c0-16.15,7.66-30.51,19.54-39.65
		c5.51-4.24,43.98-26.54,65.96-49.85c11.68-12.39,14.5-24.87,14.5-35.5v0v0c0-9.35-2.67-22.43-12.5-33.5
		c-22.39-25.21-64.24-48.47-70.34-53.8C206.64,178.54,200,165.04,200,150v0v0c0-27.61,22.39-50,50-50h0l1.33,0.01
		c20.43,0.2,37.87,12.71,45.32,30.45c2.48,5.91,28.95,153.44,30.08,157.6C332.47,309.34,351.9,325,375,325h0h0
		c25.17,0,46-18.6,49.49-42.8c0.34-2.35,25.86-139.02,26.53-142.28C455.68,117.14,475.84,100,500,100h0c27.62,0,50,22.39,50,50v0
		c0,18.32-9.85,34.33-24.54,43.04c-7.46,4.42-44.25,34.33-52.12,39.29c-14.04,8.85-23.47,24.37-23.82,42.16l-0.02,1.01v0
		c0,27.61,22.39,50,50,50h1h0c13.72,0,26.12-5.58,35.08-14.57c7.42-7.45,33.83-50.84,53.95-71.1c4.37-4.4,11.43-8.75,14.97-10.33
		c9-4,20.5-4.5,20.5-4.5h0h0c3.88,0,7.66,0.44,11.29,1.28c22.17,5.12,38.71,24.99,38.71,48.71V275v0.01
		c0,23.64-16.42,43.45-38.47,48.66c-3.7,0.87-143.89,26.58-146.6,27.06c-22.68,3.95-39.93,23.74-39.94,47.56v0V400
		c0,27.61,22.39,50,50,50h0L625,475h0c27.61,0,50,22.38,50,49.99V525v0.01c0,27.61-22.39,49.99-50,49.99h0h0
		c-12.84,0-24.54-4.84-33.4-12.79c-4.29-3.85-42.27-60.15-51.1-68.71c-4.39-4.26-10.14-10.22-16-13c-11.25-5.33-24.5-5.5-24.5-5.5
		h-0.01c-16.42,0-31,7.92-40.11,20.15C457.17,498.79,412.84,558,409.52,561.17z"/>
	<path class="st1" d="M355.07,534.73c-54.86,48.87-124.23-33.53-67.86-79.72c5.98-4.52,53.39-40.41,62.14-46.74
		c41.68-28.64,19.11-98.2-32.32-95.63c-18.29,0-34.32,9.65-43.28,24.14c-4.8,7.76-43.06,58.23-44.33,59.93
		c-49.93,61.01-134.65-22.22-74.15-73.2c5.79-4.45,46.25-27.91,69.37-52.42c20.35-23.44,20.61-48.64,2.11-72.57
		c-42.01-48.47-88.82-43.82-92.03-96.23c-0.05-29.54,24.47-53.38,53.98-52.57c21.48,0.21,39.83,13.37,47.66,32.02
		c2.61,6.22,30.45,161.37,31.63,165.74c13.52,54.11,95.8,49.35,102.82-6.17c0.36-2.47,27.2-146.21,27.9-149.63
		c4.9-23.96,26.1-41.98,51.51-41.98c52.8-0.93,72.09,72.39,26.78,97.85c-7.84,4.65-46.54,36.1-54.81,41.32
		c-15.06,9.45-25.07,26.39-25.07,45.4c-1.64,46.11,59.76,70.14,90.53,37.25c10.86-9.85,43.9-72.45,72.48-85.63
		c37.59-15.59,72.95,9.98,74.15,47.85c0,24.87-17.26,45.71-40.46,51.18c-3.89,0.92-151.33,27.96-154.18,28.45
		c-24.5,4.2-42.87,26.21-42,51.83c0,29.04,23.54,52.58,52.58,52.58c0,0,131.47,26.29,131.47,26.29c29.04,0,52.59,23.55,52.58,52.59
		c1.47,44.41-56.13,69.47-87.71,39.12c-12.98-13.65-48.16-75.04-70.56-85.93c-31.14-11.65-49.78-5.48-67.96,15.41
		C405.19,469.12,358.57,531.4,355.07,534.73z"/>
</g>
<g id="_x3F__x3F__x3F_" class="st0">
	<path class="st1" d="M283.79,549.15L283.79,549.15h-131.4h0c-29.01,0-52.51-23.55-52.44-52.56l0.01-3.59v0
		c0-16.62,0.15-81.09,0.27-128.35c0.07-29.05,23.64-52.56,52.69-52.56h0l0.01,0c17.88,0.36,33.53,9.63,42.75,23.51
		c3.42,5.15,24.83,41.43,47.65,63.74c14.06,13.75,28.1,18.52,40.47,18.4h0h0c29.03,0,52.56-23.53,52.56-52.56v0v0
		c0-25.85-18.66-47.34-43.25-51.74c-3.02-0.54-148.54-27.58-152.05-28.37c-23.31-5.21-40.7-26.03-40.7-50.87V180.7
		c0,0-0.53-62.5-0.53-78.32v0v0c0-29.03,23.53-52.56,52.56-52.56h0h131.4h0c29.03,0,52.56,23.53,52.56,52.56v0v0
		c0,15.39-6.62,29.24-17.16,38.85c-9.28,8.46-66.36,49.93-69.01,52.14c-11.58,9.64-18.95,24.16-18.95,40.41v0v0
		c0,29.03,23.53,52.56,52.56,52.56h0h0c26.46,0,48.35-19.55,52.02-45c0.36-2.47,27.19-146.14,27.89-149.56
		c4.9-23.95,26.09-41.96,51.49-41.96h0c0.09,0,0.35,0.05,0.27,0c-0.12-0.08,0.39-0.12,1.35-0.14c15.59-0.27,30.65,5.66,42.02,16.34
		c33.74,31.67,108.3,103.06,130.33,135.7c8.79,13.02,9.99,26.22,9.99,32.06v0.01v0.01c0,24.85-17.26,45.68-40.44,51.15
		c-3.89,0.92-151.26,27.94-154.11,28.44c-23.85,4.16-41.98,24.96-41.98,49.99v0v1.81c0,29.03,23.53,52.56,52.56,52.56h0h0
		c0.19,0,0.39,0,0.59,0.01c18.25,0.18,34.33-9.25,43.47-23.55c1.01-1.58,38.68-51.6,44.9-60.18c9.37-12.91,24.69-21.22,41.92-20.88
		l1.05,0.02h0.02c29.01,0,52.54,23.52,52.54,52.54v0.03c0,0-0.53,114.53-0.53,130.87v0.01v0.01c-0.01,29.02-23.54,52.55-52.56,52.55
		h0h0c-13.49,0-131.92,0.53-131.92,0.53C397.4,549.68,297.86,549.15,283.79,549.15z"/>
</g>
<g id="D_B_copy" class="st0">
	<path class="st4" d="M500.02,574.97c0,0-100.46,0-124.09,0h-50.91c0,0-59.46,0.5-74.5,0.5h0h0c-27.61,0-50-22.39-50-50l0,0v-125v0
		c0-27.61,22.39-50,50-50h0h0c14.64,0,27.82,6.29,36.96,16.33c8.05,8.83,47.5,63.13,49.6,65.65c9.17,11.01,22.99,18.02,38.44,18.02
		h0h0c27.61,0,50-22.39,50-50v0v0c0-25.17-18.6-46-42.8-49.49c-2.35-0.34-139.02-25.86-142.28-26.53
		c-22.78-4.66-39.92-24.82-39.92-48.98v0c0-0.08,0.05-0.34,0-0.26c-0.07,0.11-0.12-0.37-0.13-1.29c0-0.07,0-0.14,0-0.22
		c-0.21-13.23,0.64-123.74,0.64-123.74v0c-0.55-26.98,21.03-49.22,48.01-49.49h0c16.51-0.16,125-0.51,125.47,0.02
		c0.29,0.32,126-1,126-1l0.14,0c27.32,0.63,49.3,22.67,49.86,50v0v126v0v0c0,27.5-22.5,50-50,50h0c-13.95,0-26.56-5.71-35.63-14.92
		c-8.89-9.03-42.83-56.98-48.71-65.18c-9.07-12.66-23.91-20.9-40.67-20.9h0h0c-27.89,0.56-50.26,23.22-50.48,51.11
		c0,0.2,0,0.32,0,0.36v0c0,22.86,15.36,42.19,36.4,48.12c4.01,1.13,264.08,25.41,264.08,25.41l2.09,0.04
		c26.89,0.55,48.3,22.71,47.92,49.61c0,0.12,0,0.24-0.01,0.35c0,0.05,0,126,0,126c0,0,0,0,0,0.01
		c0.01,27.11-21.88,49.14-48.98,49.29c-0.5,0-1.01,0.01-1.52,0.01c-45.24,0.25-106.96,0.51-123.64,0.18L500.02,574.97z"/>
	<path class="st1" d="M1082.02,587.97c0,0-100.46,0-124.09,0h-50.91c0,0-59.46,0.5-74.5,0.5l0,0h0c-27.61,0-50-22.39-50-50l0,0v-125
		v0c0-27.61,22.39-50,50-50h0l0,0c14.64,0,27.82,6.29,36.96,16.33c8.05,8.83,47.5,63.13,49.6,65.65
		c9.17,11.01,22.99,18.02,38.44,18.02h0l0,0c27.61,0,50-22.39,50-50v0v0c0-25.17-18.6-46-42.8-49.49
		c-2.35-0.34-139.02-25.86-142.28-26.53c-22.78-4.66-39.92-24.82-39.92-48.98v0c0-0.08,0.05-0.34,0-0.26
		c-0.08,0.11-0.12-0.37-0.13-1.29c0-0.07,0-0.14,0-0.22c-0.21-13.23,0.64-123.74,0.64-123.74v0c-0.55-26.98,21.03-49.22,48.01-49.49
		h0c16.51-0.16,125-0.51,125.47,0.02c0.29,0.32,126-1,126-1l0.14,0c27.32,0.63,49.3,22.67,49.86,50v0v126v0v0c0,27.5-22.5,50-50,50
		h0c-13.95,0-26.56-5.71-35.63-14.92c-8.89-9.03-42.83-56.98-48.71-65.18c-9.07-12.66-23.91-20.9-40.67-20.9h0h0
		c-27.89,0.56-50.26,23.22-50.48,51.11c0,0.2,0,0.32,0,0.36v0c0,22.86,15.36,42.19,36.4,48.12c4.01,1.13,264.08,25.41,264.08,25.41
		l2.09,0.04c26.89,0.55,48.3,22.71,47.92,49.61c0,0.12,0,0.24-0.01,0.35c0,0.05,0,126,0,126c0,0,0,0,0,0.01
		c0.01,27.11-21.88,49.14-48.98,49.29c-0.5,0-1.01,0.01-1.52,0.01c-45.24,0.25-106.96,0.51-123.64,0.18L1082.02,587.97z"/>
</g>
<g id="B_x3F_" class="st0">
	<path class="st4" d="M403.06,483.31c13.21,8.54,22.07,23.28,22.4,40.19l0.04,2v0c0,27.61-22.39,50-50,50h0
		c-12.08,0-23.17-4.29-31.81-11.42c-11.11-9.17-117.98-118.75-126.63-126.22c-10.39-8.98-16.89-22.34-16.61-37.2
		c0.01-0.27,0.01-0.54,0.02-0.81l0.03-1.34c0,0,0-100.46,0-124.09v0c0-14.54,6.35-27.6,16.42-36.56
		c2.92-2.6,116.92-116.66,119.33-119.62c9.01-11.07,22.84-18.04,38.25-17.73l0.17,0c10.07,0.21,76.13,0.15,124.33,0.08
		c27.71-0.04,50.46,21.87,51.49,49.56c0,0.12,0.01,0.24,0.01,0.35c0,0.01-0.01,0.35-0.02,0.98c-0.42,21.59-14.75,39.64-34.27,45.79
		c-4.95,1.56-150.69,27.81-154.06,28.63c-21.36,5.17-37.15,24.42-37.15,47.29c0,0.12,0,0.24,0,0.35c0,0.16,0,0.31,0,0.47v0v0
		c0,27.61,22.39,50,50,50h0h0l0.01,0c12.8,0.25,24.53-4.42,33.41-12.26c10.16-8.97,45.98-61.47,53.52-70.11
		c9.21-10.55,22.9-17.08,38.05-16.63h0h0c27.61,0,50,22.38,50,50v0l-0.01,49.99L550,400v0.01c0,16.92,0.56,78.97,1,124.5
		c0.27,27.92-22.58,50.54-50.5,49.99h0h0c-22.12,0-40.88-14.36-47.48-34.27c-0.59-1.77-28.85-146.35-29.48-149.52
		c-4.4-22.34-23.57-39.52-47.13-40.56c-0.95-0.04-1.46-0.09-1.41-0.14H375h-0.01l-0.24,0c-23.5-0.01-43.29,16.13-48.76,38.01
		c-0.25,1-0.25,5.93-0.15,12.61c0.2,12.88,5.2,24.6,13.3,33.43C348.19,443.93,395.13,478.19,403.06,483.31z"/>
	<path class="st1" d="M1014.06,481.31c13.21,8.54,22.07,23.28,22.4,40.19l0.04,2v0c0,27.61-22.39,50-50,50h0
		c-12.08,0-23.17-4.29-31.81-11.42c-11.11-9.17-117.98-118.75-126.63-126.22c-10.39-8.98-16.89-22.34-16.61-37.2
		c0.01-0.27,0.01-0.54,0.02-0.81l0.03-1.34c0,0,0-100.46,0-124.09v0c0-14.54,6.35-27.6,16.42-36.56
		c2.92-2.6,116.92-116.66,119.33-119.62c9.01-11.07,22.84-18.04,38.25-17.73l0.17,0c10.07,0.21,76.13,0.15,124.33,0.08
		c27.71-0.04,50.46,21.87,51.49,49.56c0,0.12,0.01,0.24,0.01,0.35c0,0.01-0.01,0.35-0.02,0.98c-0.42,21.59-14.75,39.64-34.27,45.79
		c-4.95,1.56-150.69,27.81-154.06,28.63c-21.36,5.17-37.15,24.42-37.15,47.29c0,0.12,0,0.24,0,0.35c0,0.16,0,0.31,0,0.47v0v0
		c0,27.61,22.39,50,50,50h0h0l0.01,0c12.8,0.25,24.53-4.42,33.41-12.26c10.16-8.97,45.98-61.47,53.52-70.11
		c9.21-10.55,22.9-17.08,38.05-16.63l0,0l0,0c27.61,0,50,22.38,50,50v0l-0.01,49.99L1161,398v0.01c0,16.92,0.56,78.97,1,124.5
		c0.27,27.92-22.58,50.54-50.5,49.99l0,0h0c-22.12,0-40.88-14.36-47.48-34.27c-0.59-1.77-28.85-146.35-29.48-149.52
		c-4.4-22.34-23.57-39.52-47.13-40.56c-0.95-0.04-1.46-0.09-1.41-0.14H986h-0.01l-0.24,0c-23.5-0.01-43.29,16.13-48.76,38.01
		c-0.25,1-0.25,5.93-0.15,12.61c0.2,12.88,5.2,24.6,13.3,33.43C959.19,441.93,1006.13,476.19,1014.06,481.31z"/>
	<path class="st7" d="M878.84,544.49C870,555.16,856.68,562,841.73,562.1c-0.57,0-1.15,0.01-1.73,0.01l-0.85,0.01
		c-27.2,0.2-49.21-22.08-48.67-49.28l0.03-1.34c0,0,0-100.46,0-124.09v0c0-14.54,6.35-27.6,16.42-36.56
		c2.92-2.6,116.92-116.66,119.33-119.62c9.01-11.07,22.84-18.04,38.25-17.73l0.17,0c27.44,0.56,49.71,22.38,50.83,49.81
		c0,0.07,0.01,0.14,0.01,0.19v0c-0.29,14.45-6.7,27.37-16.71,36.31c-8.85,7.9-64.14,45.57-72.95,56.35
		c-6.77,8.28-10.83,18.85-10.84,30.37c0,0.16,0,0.31,0,0.47v0v0c0,27.61,22.39,50,50,50h0h0l0.01,0
		c12.8,0.25,24.53-4.42,33.41-12.26c10.16-8.97,45.98-61.47,53.52-70.11c9.21-10.55,22.9-17.08,38.05-16.63l0,0l0,0
		c27.61,0,50,22.38,50,50v0l-0.01,49.99L1140,513v0.01c0,27.61-22.39,49.99-50,49.99l0,0l0,0c-14.57,0-27.69-6.24-36.83-16.19
		c-8.18-8.9-46.53-61.91-49.58-65.62c-9.17-11.11-23.05-18.2-38.58-18.2H965h-0.01c-17.95,0-33.69,9.46-42.51,23.67
		C920.28,490.22,885.92,535.95,878.84,544.49z"/>
</g>
<g id="D5" class="st0">
	<path class="st4" d="M499.52,574.47c0,0-100.46,0-124.09,0h-50.91c0,0-59.46,0.5-74.5,0.5h0h0c-27.61,0-50-22.39-50-50l0,0v-125v0
		c0-27.61,22.39-50,50-50h0h0c14.64,0,27.82,6.29,36.96,16.33c8.05,8.83,47.5,63.13,49.6,65.65c9.17,11.01,22.99,18.02,38.44,18.02
		h0h0c27.61,0,50-22.39,50-50v0v0c0.48,0.53,0.48-125.47,0.48-125.47v0c-0.56-27.22-22.78-49-50.01-49h-0.99h0
		c-17.65-0.35-33.26,8.65-42.17,22.42c-4.95,7.65-35.6,49.12-41.94,57.36c-9.21,11.99-23.85,19.57-40.17,19.13
		c-5.53-0.15-9.49-0.3-10.29-0.47c-22.78-4.66-39.92-24.82-39.92-48.98v0c0-0.08,0.05-0.34,0-0.26c-0.07,0.11-0.12-0.37-0.13-1.29
		c0-0.07,0-0.14,0-0.22c-0.21-13.23,0.64-123.74,0.64-123.74v0c-0.55-26.98,21.03-49.22,48.01-49.49h0
		c23.82-0.24,185.16,0.33,251.97,0.52h0c27.59,0,49.94,22.4,49.86,50c-0.23,82.67-0.69,239.7-0.84,248.84c0,0.07,0,0.12,0,0.14
		c-0.1,19.71,0.29,80.81,0.61,125.5l0.01,0.85c0.2,27.2-22.08,49.21-49.28,48.67L499.52,574.47z"/>
	<path class="st1" d="M1149.52,603.47c0,0-100.46,0-124.09,0h-50.91c0,0-59.46,0.5-74.5,0.5l0,0h0c-27.61,0-50-22.39-50-50l0,0v-125
		v0c0-27.61,22.39-50,50-50h0l0,0c14.64,0,27.82,6.29,36.96,16.33c8.05,8.83,47.5,63.13,49.6,65.65
		c9.17,11.01,22.99,18.02,38.44,18.02l0,0h0c27.61,0,50-22.39,50-50v0v0c0.48,0.53,0.48-125.47,0.48-125.47v0
		c-0.56-27.22-22.78-49-50.01-49h-0.99l0,0c-17.65-0.35-33.26,8.65-42.17,22.42c-4.95,7.65-35.6,49.12-41.94,57.36
		c-9.21,11.99-23.85,19.57-40.17,19.13c-5.53-0.15-9.49-0.3-10.29-0.47c-22.78-4.66-39.92-24.82-39.92-48.98v0
		c0-0.08,0.05-0.34,0-0.26c-0.08,0.11-0.12-0.37-0.13-1.29c0-0.07,0-0.14,0-0.22c-0.21-13.23,0.64-123.74,0.64-123.74v0
		c-0.55-26.98,21.03-49.22,48.01-49.49h0c23.82-0.24,185.16,0.33,251.97,0.52l0,0c27.59,0,49.94,22.4,49.86,50
		c-0.23,82.67-0.69,239.7-0.84,248.84c0,0.07,0,0.12,0,0.14c-0.1,19.71,0.29,80.81,0.61,125.5l0.01,0.85
		c0.2,27.2-22.08,49.21-49.28,48.67L1149.52,603.47z"/>
</g>
<g id="D4" class="st0">
	<path class="st4" d="M499.52,574.47c0,0-100.46,0-124.09,0h-1.93c-8.08,0-15.69-2-22.37-5.52
		c-15.53-8.19-137.96-135.41-140.51-138.67c-6.55-8.37-10.49-18.88-10.6-30.31v0v0c0-27.61,22.39-50,50-50h0h0
		c14.64,0,27.82,6.29,36.96,16.33c8.05,8.83,47.5,63.13,49.6,65.65c9.17,11.01,22.99,18.02,38.44,18.02h0h0c27.61,0,50-22.39,50-50
		v0v0c0.48,0.53,0.48-125.47,0.48-125.47v0c-0.56-27.22-22.78-49-50.01-49h-0.99h0c-17.65-0.35-33.26,8.65-42.17,22.42
		c-4.95,7.65-35.6,49.12-41.94,57.36c-9.21,11.99-23.85,19.57-40.17,19.13c-5.53-0.15-9.49-0.3-10.29-0.47
		c-22.78-4.66-39.92-24.82-39.92-48.98v0c0-0.08,0.05-0.34,0-0.26c-0.07,0.11-0.12-0.37-0.13-1.29c0-0.07,0-0.14,0-0.22
		c0-0.13,0-0.27-0.01-0.4c-0.16-11.27,3.69-21.66,10.23-29.81c2.83-3.53,126.56-125.84,129.63-128.86
		c9.21-9.06,21.85-14.64,35.76-14.64h0c0,0,115.05,1,123,1h2h0c27.59,0,49.94,22.4,49.86,50c-0.23,82.67-0.69,239.7-0.84,248.84
		c0,0.07,0,0.12,0,0.14c-0.1,19.71,0.29,80.81,0.61,125.5l0.01,0.85c0.2,27.2-22.08,49.21-49.28,48.67L499.52,574.47z"/>
	<path class="st1" d="M1070.52,573.47c0,0-100.46,0-124.09,0h-1.93c-8.08,0-15.69-2-22.37-5.52
		c-15.53-8.19-137.96-135.41-140.51-138.67c-6.55-8.37-10.49-18.88-10.6-30.31v0v0c0-27.61,22.39-50,50-50h0l0,0
		c14.64,0,27.82,6.29,36.96,16.33c8.05,8.83,47.5,63.13,49.6,65.65c9.17,11.01,22.99,18.02,38.44,18.02h0l0,0
		c27.61,0,50-22.39,50-50v0v0c0.48,0.53,0.48-125.47,0.48-125.47v0c-0.56-27.22-22.78-49-50.01-49h-0.99h0
		c-17.65-0.35-33.26,8.65-42.17,22.42c-4.95,7.65-35.6,49.12-41.94,57.36c-9.21,11.99-23.85,19.57-40.17,19.13
		c-5.53-0.15-9.49-0.3-10.29-0.47c-22.78-4.66-39.92-24.82-39.92-48.98v0c0-0.08,0.05-0.34,0-0.26c-0.08,0.11-0.12-0.37-0.13-1.29
		c0-0.07,0-0.14,0-0.22c0-0.13,0-0.27-0.01-0.4c-0.16-11.27,3.69-21.66,10.23-29.81c2.83-3.53,126.56-125.84,129.63-128.86
		c9.21-9.06,21.85-14.64,35.76-14.64h0c0,0,115.05,1,123,1h2l0,0c27.59,0,49.94,22.4,49.86,50c-0.23,82.67-0.69,239.7-0.84,248.84
		c0,0.07,0,0.12,0,0.14c-0.1,19.71,0.29,80.81,0.61,125.5l0.01,0.85c0.2,27.2-22.08,49.21-49.28,48.67L1070.52,573.47z"/>
</g>
<g id="D3" class="st0">
	<path class="st4" d="M410.48,560.16c-8.76,8.84-20.92,14.31-34.35,14.31c-0.24,0-0.47,0-0.71,0h-0.93
		c-10.95,0-21.05-3.59-29.2-9.65c-12.27-9.12-133.94-132.64-136.59-136.47c-5.57-8.05-8.79-17.84-8.68-28.38v0v0
		c0-27.61,22.39-50,50-50h0h0c14.64,0,27.82,6.29,36.96,16.33c8.05,8.83,47.5,63.13,49.6,65.65c9.17,11.01,22.99,18.02,38.44,18.02
		h0h0c27.61,0,50-22.39,50-50v0v0c0-25.17-18.6-46-42.8-49.49c-2.35-0.34-139.02-25.86-142.28-26.53
		c-22.78-4.66-39.92-24.82-39.92-48.98v0c0-0.08,0.05-0.34,0-0.26c-0.07,0.11-0.12-0.37-0.13-1.29c0-0.07,0-0.14,0-0.22
		c-0.21-13.23,0.64-123.74,0.64-123.74v0c-0.55-26.98,21.03-49.22,48.01-49.49h0c29.05-0.29,53.4,21.86,55.87,50.8
		c2.55,29.91,20.12,123.68,20.12,124.68v0c0,22.86,15.36,42.19,36.4,48.12c4.01,1.13,146.33,27.1,149.54,27.71
		c22.49,4.25,39.47,24.21,39.06,48.04c0,0.07,0,0.12,0,0.14c0,0.41,0,0.8-0.01,1.18c-0.06,15.91-7.68,30.02-19.46,38.94
		C521.84,445.81,411.73,558.9,410.48,560.16z"/>
	<path class="st1" d="M985.48,563.19c-8.76,8.84-20.92,14.31-34.35,14.31c-0.24,0-0.47,0-0.71,0h-0.93
		c-10.95,0-21.05-3.59-29.2-9.65c-12.27-9.12-133.94-132.64-136.59-136.47c-5.57-8.05-8.79-17.84-8.68-28.38v0v0
		c0-27.61,22.39-50,50-50h0l0,0c14.64,0,27.82,6.29,36.96,16.33c8.05,8.83,47.5,63.13,49.6,65.65
		c9.17,11.01,22.99,18.02,38.44,18.02h0l0,0c27.61,0,50-22.39,50-50v0v0c0-25.17-18.6-46-42.8-49.49
		c-2.35-0.34-139.02-25.86-142.28-26.53c-22.78-4.66-39.92-24.82-39.92-48.98v0c0-0.08,0.05-0.34,0-0.26
		c-0.08,0.11-0.12-0.37-0.13-1.29c0-0.07,0-0.14,0-0.22c-0.21-13.23,0.64-123.74,0.64-123.74v0c-0.55-26.98,21.03-49.22,48.01-49.49
		h0c29.05-0.29,53.4,21.86,55.87,50.8c2.55,29.91,20.12,123.68,20.12,124.68v0c0,22.86,15.36,42.19,36.4,48.12
		c4.01,1.13,146.33,27.1,149.54,27.71c22.49,4.25,39.47,24.21,39.06,48.04c0,0.07,0,0.12,0,0.14c0,0.41,0,0.8-0.01,1.18
		c-0.06,15.91-7.68,30.02-19.46,38.94C1096.84,448.84,986.73,561.93,985.48,563.19z"/>
</g>
<g id="D2" class="st0">
	<path class="st6" d="M410.48,560.16c-8.76,8.84-20.92,14.31-34.35,14.31c-0.24,0-0.47,0-0.71,0h-50.91c0,0-59.46,0.5-74.5,0.5h0h0
		c-27.61,0-50-22.39-50-50l0,0v-125v0c0-27.61,22.39-50,50-50h0h0c14.64,0,27.82,6.29,36.96,16.33c8.05,8.83,47.5,63.13,49.6,65.65
		c9.17,11.01,22.99,18.02,38.44,18.02h0h0c27.61,0,50-22.39,50-50v0v0c0-25.17-18.6-46-42.8-49.49
		c-2.35-0.34-139.02-25.86-142.28-26.53c-22.78-4.66-39.92-24.82-39.92-48.98v0c0-0.08,0.05-0.34,0-0.26
		c-0.07,0.11-0.12-0.37-0.13-1.29c0-0.07,0-0.14,0-0.22c-0.21-13.23,0.64-123.74,0.64-123.74v0c-0.55-26.98,21.03-49.22,48.01-49.49
		h0c29.05-0.29,53.4,21.86,55.87,50.8c2.55,29.91,20.12,123.68,20.12,124.68v0c0,22.86,15.36,42.19,36.4,48.12
		c4.01,1.13,146.33,27.1,149.54,27.71c22.49,4.25,39.47,24.21,39.06,48.04c0,0.07,0,0.12,0,0.14c0,0.41,0,0.8-0.01,1.18
		c-0.06,15.91-7.68,30.02-19.46,38.94C521.84,445.81,411.73,558.9,410.48,560.16z"/>
	<path class="st1" d="M216.3,426.59c-12.13-9.12-19.8-23.98-19.46-40.25c-0.41-23.83,16.57-43.79,39.06-48.04
		c3.21-0.61,145.53-26.58,149.54-27.71c21.04-5.93,36.4-25.26,36.4-48.12c0-1,17.57-94.77,20.12-124.68
		c3.91-63.64,103.5-68.88,103.88-1.32c-0.17,0.94,1.18,111.44,0.5,125.24c0.16,24.16-17.04,44.59-39.92,49.24
		c-3.25,0.67-139.93,26.19-142.28,26.53c-24.21,3.49-42.8,24.32-42.8,49.48c-1.66,45.78,61.03,67.53,88.44,31.98
		c2.1-2.52,41.55-56.82,49.6-65.65c28.36-33.48,88.53-11,86.96,33.67c0,0,0,125,0,125c0,27.61-22.39,50-50,50
		c-15.04,0-74.5-0.5-74.5-0.5c-23.29-1.67-69.29,7.04-85.97-14.31C334.63,545.9,224.52,432.81,216.3,426.59z"/>
</g>
<g id="D1" class="st0">
	<path class="st1" d="M193.63,549.48c-27.2,0.56-49.48-22.6-49.28-51.24l0.01-0.9c0.32-47.05,0.72-111.36,0.61-132.11
		c0-0.02,0-0.06,0-0.14c-0.41-25.08,16.57-46.09,39.06-50.57c3.21-0.64,145.53-27.98,149.54-29.17
		c21.04-6.24,31.43-27.36,36.4-50.65v0c0-1.05,17.57-99.77,20.12-131.25c2.47-30.47,26.82-53.78,55.87-53.48h0
		c26.98,0.28,48.56,23.69,48.01,52.09v0l0.5,132.11c0,25.43-17.14,46.65-39.92,51.56c-3.25,0.7-139.93,27.57-142.28,27.93
		c-24.21,3.67-42.8,25.6-42.8,52.09v0v0c0,29.07,22.39,52.63,50,52.63h0h0c15.45,0,29.27-7.38,38.44-18.97
		c2.1-2.65,41.55-59.81,49.6-69.11c9.15-10.56,22.32-17.19,36.96-17.19h0h0c27.61,0,50,23.56,50,52.63v0v131.58v0
		c0,29.07-22.39,52.63-50,52.63h0h0c-15.04,0-249.5-0.53-249.5-0.53L193.63,549.48z"/>
</g>
<g id="B" class="st0">
	<path class="st1" d="M436.02,549.45c0,0-100.46,0-124.09,0h-50.91c0,0-59.46,0.53-74.5,0.53h0h0c-27.61,0-50-23.56-50-52.63v0
		V365.76v0c0-29.07,22.39-52.63,50-52.63h0h0c14.64,0,27.82,6.62,36.96,17.19c8.05,9.29,47.5,66.46,49.6,69.11
		c9.17,11.59,22.99,18.97,38.44,18.97h0h0c27.61,0,50-23.56,50-52.63v0v0c0-26.5-18.6-48.42-42.8-52.09
		c-2.35-0.36-139.02-27.23-142.28-27.93c-22.78-4.91-39.92-26.13-39.92-51.56v0c0-0.09,0.05-0.35,0-0.27
		c-0.07,0.12-0.12-0.39-0.13-1.35c0-0.07,0-0.15,0-0.23c-0.21-13.93,0.64-130.25,0.64-130.25v0c-0.55-28.4,21.03-51.81,48.01-52.09
		h0c29.05-0.3,53.4,23.01,55.87,53.48c2.55,31.48,20.12,130.19,20.12,131.25v0c0,24.06,15.36,44.41,36.4,50.65
		c4.01,1.19,146.33,28.53,149.54,29.17c22.49,4.48,39.47,25.49,39.06,50.57c0,0.08,0,0.13,0,0.14c-0.1,20.75,0.29,85.06,0.61,132.11
		l0.01,0.9c0.2,28.63-22.08,51.8-49.28,51.24L436.02,549.45z"/>
</g>
<g id="J2" class="st0">
	<path class="st4" d="M499.52,574.47c0,0-100.46,0-124.09,0h-50.91c0,0-59.46,0.5-74.5,0.5h0h0c-27.61,0-50-22.39-50-50l0,0v-125v0
		c0-27.61,22.39-50,50-50h0h0c14.64,0,27.82,6.29,36.96,16.33c8.05,8.83,47.5,63.13,49.6,65.65c9.17,11.01,22.99,18.02,38.44,18.02
		h0h0c27.61,0,50-22.39,50-50v0v0c0.48,0.53,0.48-125.47,0.48-125.47v0c-0.56-27.22-22.78-49-50.01-49h-0.99h0
		c-17.65-0.35-33.26,8.65-42.17,22.42c-4.95,7.65-35.6,49.12-41.94,57.36c-9.21,11.99-23.85,19.57-40.17,19.13
		c-5.53-0.15-9.49-0.3-10.29-0.47c-22.78-4.66-39.92-24.82-39.92-48.98v0c0-0.08,0.05-0.34,0-0.26c-0.07,0.11-0.12-0.37-0.13-1.29
		c0-0.07,0-0.14,0-0.22c0-0.13,0-0.27-0.01-0.4c-0.23-16.16,7.79-30.5,20.14-39.04c3.44-2.38,251.19-125.38,256.4-128.01
		c6.64-3.36,14.14-5.25,22.09-5.25h2h0c27.59,0,49.94,22.4,49.86,50c-0.23,82.67-0.69,239.7-0.84,248.84c0,0.07,0,0.12,0,0.14
		c-0.1,19.71,0.29,80.81,0.61,125.5l0.01,0.85c0.2,27.2-22.08,49.21-49.28,48.67L499.52,574.47z"/>
	<path class="st1" d="M1099.52,584.47c0,0-100.46,0-124.09,0h-50.91c0,0-59.46,0.5-74.5,0.5l0,0h0c-27.61,0-50-22.39-50-50l0,0v-125
		v0c0-27.61,22.39-50,50-50h0l0,0c14.64,0,27.82,6.29,36.96,16.33c8.05,8.83,47.5,63.13,49.6,65.65
		c9.17,11.01,22.99,18.02,38.44,18.02h0l0,0c27.61,0,50-22.39,50-50v0v0c0.48,0.53,0.48-125.47,0.48-125.47v0
		c-0.56-27.22-22.78-49-50.01-49h-0.99h0c-17.65-0.35-33.26,8.65-42.17,22.42c-4.95,7.65-35.6,49.12-41.94,57.36
		c-9.21,11.99-23.85,19.57-40.17,19.13c-5.53-0.15-9.49-0.3-10.29-0.47c-22.78-4.66-39.92-24.82-39.92-48.98v0
		c0-0.08,0.05-0.34,0-0.26c-0.08,0.11-0.12-0.37-0.13-1.29c0-0.07,0-0.14,0-0.22c0-0.13,0-0.27-0.01-0.4
		c-0.23-16.16,7.79-30.5,20.14-39.04c3.44-2.38,251.19-125.38,256.4-128.01c6.64-3.36,14.14-5.25,22.09-5.25h2l0,0
		c27.59,0,49.94,22.4,49.86,50c-0.23,82.67-0.69,239.7-0.84,248.84c0,0.07,0,0.12,0,0.14c-0.1,19.71,0.29,80.81,0.61,125.5
		l0.01,0.85c0.2,27.2-22.08,49.21-49.28,48.67L1099.52,584.47z"/>
</g>
<g id="J">
	<path class="st7" d="M433.22,549.47c-0.43,0-246.96,0.53-263.16,0.53c-27.92-0.01-50.53-22.65-50.53-50.56
		c-0.9-3.9,0.65-129.53,0-133.13c0-28.81,22.74-52.48,51.53-53.64c44.95-2.28,69.05,69.46,98.65,94.34
		c32.14,27.62,86.57,1.58,85.09-41.23c0-8.68,1.58-132.11,1.58-132.12c0-22-13.92-40.81-33.55-48.01
		c-3.21-1.18-163.33-31.01-169.05-33.14c-21.15-7.68-35.42-28.95-34.29-52.48c-0.55-27.33,21.36-49.83,48.7-50.02
		c0.59-0.11,216.27,0.43,268.2,0.47c28.49,0.02,51.58,23.12,51.58,51.62c2.15,41.58-58.32,64.06-87.42,91.77
		c-11.35,9.64-18.63,24.12-18.9,40.07c-0.15,16.19,7.15,30.7,18.67,40.32c9.02,7.53,56.97,44,62.33,47.45
		c14.23,9.17,23.58,25.32,23.21,43.56c-0.11,20.75,0.31,85.06,0.65,132.11C487.28,526.81,462.64,550.87,433.22,549.47z"/>
	<path class="st8" d="M1234.25,585.25c0,0-100.46,0-124.09,0h-50.91c0,0-59.46,0.5-74.5,0.5h0h0c-0.17,0-0.34,0-0.5,0
		c-26.52-0.01-48-21.51-48-48.03v-2.47v-124v0c0-27.37,21.6-49.86,48.95-50.96c0.5-0.02,0.86-0.03,1.05-0.04h0
		c14.45,0.29,27.37,6.7,36.31,16.71c7.9,8.85,45.57,64.14,56.35,72.95c8.28,6.77,18.85,10.83,30.37,10.83c0.16,0,0.31,0,0.47,0l0,0
		l0,0c27.61,0,50-22.39,50-50v0v0c0-8.23,1.5-125.5,1.5-125.5s0-0.01,0-0.01c0-20.9-13.22-38.77-31.87-45.61
		c-4.71-1.73-273.49-29.52-275.61-29.8c-24-3.17-42.52-23.71-42.52-48.58v-1v-0.44c0-27.01,21.64-49.04,48.64-49.55
		c0.12,0,0.23,0,0.35-0.01l0.01,0h75c0,0,35.07,0.62,47.61,0.52c0.14,0,0.27,0,0.4,0l128.99,0.35c6,0.02,75.67,0.07,125,0.1
		c27.07,0.02,49,21.97,49,49.03v0v0c0,14.62-6.27,27.74-16.24,36.88c-2.58,2.36-58.15,42.91-66.81,50.3
		c-10.55,9-17.4,22.25-17.92,37.13c-0.01,0.23-0.02,0.46-0.03,0.69c0,0.03,0,0.12,0,0.24c-0.14,15.38,6.79,29.16,17.74,38.3
		c8.57,7.15,54.12,41.8,59.21,45.08c13.49,8.69,22.35,23.95,22.05,41.25c0,0.07,0,0.12,0,0.14c-0.1,19.71,0.29,80.81,0.61,125.5
		l0.01,0.85c0.2,27.2-22.08,49.21-49.28,48.67L1234.25,585.25z"/>
	<path class="st8" d="M1180.25,552.25c0,0-100.46,0-124.09,0h-50.91c0,0-59.46,0.5-74.5,0.5h0h0c-16.96,0-78.52-0.19-123.5-0.33
		c-27.64-0.09-50-22.52-50-50.17v0v-125v0c0-26.82,21.16-48.86,47.96-49.96l1.04-0.04h0c14.61,0,27.8,6.15,37.11,16.01
		c8.39,8.89,43.7,61.2,52.46,69.86c9.09,8.98,21.65,14.41,35.43,14.13h0c0,0,109.05,0.5,124.5,0.5l0,0l0,0c27.61,0,50-22.39,50-50v0
		v0c0-8.23,1.5-125.5,1.5-125.5s0-0.01,0-0.01c0-20.9-13.22-38.77-31.87-45.61c-4.71-1.73-273.49-29.52-275.61-29.8
		c-24-3.17-42.52-23.71-42.52-48.58v-1v-0.44c0-27.01,21.64-49.04,48.64-49.55c0.12,0,0.23,0,0.35-0.01l0.01,0h75
		c0,0,35.07,0.62,47.61,0.52c0.14,0,0.27,0,0.4,0l128.99,0.35c6,0.02,75.67,0.07,125,0.1c27.07,0.02,49,21.97,49,49.03v0v0
		c0,14.62-6.27,27.74-16.24,36.88c-2.58,2.36-58.15,42.91-66.81,50.3c-10.55,9-17.4,22.25-17.92,37.13
		c-0.01,0.23-0.02,0.46-0.03,0.69c0,0.03,0,0.12,0,0.24c-0.14,15.38,6.79,29.16,17.74,38.3c8.57,7.15,54.12,41.8,59.21,45.08
		c13.49,8.69,22.35,23.95,22.05,41.25c0,0.07,0,0.12,0,0.14c-0.1,19.71,0.29,80.81,0.61,125.5l0.01,0.85
		c0.2,27.2-22.08,49.21-49.28,48.67L1180.25,552.25z"/>
	<path class="st8" d="M1215.25,569.25c0,0-100.46,0-124.09,0h-50.91c0,0-59.46,0.5-74.5,0.5h0h0c-16.96,0-78.52-0.19-123.5-0.33
		c-27.64-0.09-50-22.52-50-50.17v0v-125v0c0-26.82,21.16-48.86,47.96-49.96l1.04-0.04h0c14.61,0,27.8,6.15,37.11,16.01
		c8.39,8.89,43.7,61.2,52.46,69.86c9.09,8.98,21.65,14.41,35.43,14.13h0c0,0,109.05,0.5,124.5,0.5l0,0l0,0c27.61,0,50-22.39,50-50v0
		v0c0-21.95-14.15-40.6-33.83-47.33c-2.88-0.99-47.95-13.81-70.67-35.17c-15.52-14.6-19.35-48.84-20.02-52.09
		c-4.07-19.86-19.92-35.42-39.92-39.09c-0.06-0.01-139.42-26.97-141.54-27.25c-24-3.17-42.52-23.71-42.52-48.58v-1v-0.44
		c0-27.01,21.64-49.04,48.64-49.55c0.12,0,0.23,0,0.35-0.01l0.01,0h75c0,0,35.07,0.62,47.61,0.52c0.14,0,0.27,0,0.4,0l128.99,0.35
		c6,0.02,75.67,0.07,125,0.1c27.07,0.02,49,21.97,49,49.03v0v0c0,24.35-17.38,44.56-40.34,49.07
		c-3.39,0.67-144.2,26.47-148.22,27.49c-21.43,5.44-37.52,24.47-38.38,47.54c-0.04,1.12-0.06,1.79-0.06,1.9v0
		c0,22.86,15.36,42.19,36.4,48.12c4.01,1.13,146.33,27.1,149.54,27.71c22.49,4.25,39.47,24.21,39.06,48.04c0,0.07,0,0.12,0,0.14
		c-0.1,19.71,0.29,80.81,0.61,125.5l0.01,0.85c0.2,27.2-22.08,49.21-49.28,48.67L1215.25,569.25z"/>
	<path class="st8" d="M748.5,501.5c0,0,0-100.46,0-124.09V326.5c0,0-0.5-59.46-0.5-74.5v0v0c0-16.96,0.19-78.52,0.33-123.5
		c0.09-27.64,22.52-50,50.17-50h0h125h0c26.82,0,48.86,21.16,49.96,47.96l0.04,1.04v0c0,14.61-6.15,27.8-16.01,37.11
		c-8.89,8.39-61.2,43.7-69.86,52.46c-8.98,9.09-14.41,21.65-14.13,35.43v0c0,0-0.5,109.05-0.5,124.5v0v0c0,27.61,22.39,50,50,50h0h0
		c21.95,0,40.6-14.15,47.33-33.83c0.99-2.88,13.81-47.95,35.17-70.67c14.6-15.52,48.84-19.35,52.09-20.02
		c19.86-4.07,35.42-19.92,39.09-39.92c0.01-0.06,26.97-139.42,27.25-141.54c3.17-24,23.71-42.52,48.58-42.52h1h0.44
		c27.01,0,49.04,21.64,49.55,48.64c0,0.12,0,0.23,0.01,0.35l0,0.01v75c0,0-0.62,35.07-0.52,47.61c0,0.14,0,0.27,0,0.4l-0.35,128.99
		c-0.04,15.23-7.01,28.83-17.92,37.82c-3.87,3.18-120.23,120.07-125.26,124.17c-8.44,6.88-19.21,11.01-30.95,11.01l0,0
		c-28.49,0-49.3-21.56-51-50c-0.01-0.22-0.03-0.46-0.04-0.7c-0.71-15.49,6.31-29.44,17.55-38.33c8.17-6.46,59.87-41.07,68.9-50.27
		s14.58-21.81,14.58-35.7v0v0c0-27.42-21.7-49.92-49.1-50.94c-1.12-0.04-1.79-0.06-1.9-0.06l0,0c-22.86,0-42.19,15.36-48.12,36.4
		c-1.13,4.01-27.1,146.33-27.71,149.54c-4.25,22.49-24.21,39.47-48.04,39.06c-0.07,0-0.12,0-0.14,0
		c-19.71-0.1-80.81,0.29-125.5,0.61l-0.85,0.01c-27.2,0.2-49.21-22.08-48.67-49.28L748.5,501.5z"/>
	<path class="st8" d="M1251.49,544.49c0,0-100.46,0-124.09,0h-50.91c0,0-59.46,0.5-74.5,0.5h0h0c-16.96,0-78.52-0.19-123.5-0.33
		c-27.64-0.09-50-22.52-50-50.17v0v-125v0c0-26.82,21.16-48.86,47.96-49.96l1.04-0.04h0c14.61,0,27.8,6.15,37.11,16.01
		c8.39,8.89,43.7,61.2,52.46,69.86c9.09,8.98,21.65,14.41,35.43,14.13h0c0,0,109.05,0.5,124.5,0.5l0,0h0c27.61,0,50-22.39,50-50v0v0
		c0-21.95-14.15-40.6-33.83-47.33c-2.88-0.99-47.95-13.81-70.67-35.17c-15.52-14.6-19.35-48.84-20.02-52.09
		c-4.07-19.86-19.92-35.42-39.92-39.09c-0.14-0.02-3.69-0.14-9-0.31c-16.57-0.52-31.44,7.16-40.8,19.31
		c-1.42,1.84-39.84,56.18-48.85,65.06c-9.08,8.95-21.62,14.39-35.4,14.11l-0.01,0h0c-27.42,0-49.53-22.5-49.02-49.91
		c0.01-0.36,0.01-0.73,0.02-1.09v0c-0.27-13.13,4.86-25.08,13.31-33.78c3.79-3.9,121.07-122.69,125.04-126.52
		c8.36-8.07,19.72-13.08,32.25-13.18c0.14,0,0.27,0,0.4,0l128.99,0.35c15.23,0.04,28.83,7.01,37.82,17.92
		c3.18,3.87,120.07,120.23,124.17,125.26c6.88,8.44,11.01,19.21,11.01,30.95v0c0,28.49-21.56,49.3-50,51
		c-0.22,0.01-0.46,0.03-0.7,0.04c-15.49,0.71-29.44-6.31-38.33-17.55c-6.46-8.17-41.07-59.87-50.27-68.9
		c-9.21-9.03-21.81-14.58-35.7-14.58h0l0,0c-27.42,0-49.92,21.7-50.94,49.1c-0.04,1.12-0.06,1.79-0.06,1.9v0
		c0,22.86,15.36,42.19,36.4,48.12c4.01,1.13,146.33,27.1,149.54,27.71c22.49,4.25,39.47,24.21,39.06,48.04c0,0.07,0,0.12,0,0.14
		c-0.1,19.71,0.29,80.81,0.61,125.5l0.01,0.85c0.2,27.2-22.08,49.21-49.28,48.67L1251.49,544.49z"/>
	<path class="st7" d="M983.78,562.46c-22.54-0.9-145.01,0.65-184.22,0c-36.49-3.09-129.26,20.33-131.05-52.11c0,0,0-131.58,0-131.58
		c0-29.07,23.56-52.63,52.63-52.63c15.41,0,29.28,6.62,38.91,17.19c8.47,9.29,50,66.46,52.21,69.11
		c28.86,37.41,94.84,14.54,93.1-33.66c-5.95-64.58-57.54-40.85-110-86.84c-33.35-41.11-6.48-82.16-63.1-95.98
		c-17.91-2.62-42.04,4.32-52.42,20.01c-1.49,1.94-41.94,59.14-51.42,68.49c-9.56,9.43-22.77,15.15-37.27,14.85
		c-45.13,1.62-68.67-58.52-37.56-89.24c3.99-4.1,127.44-129.15,131.62-133.18c8.8-8.5,20.76-13.77,33.95-13.88
		c0.28-0.36,135.86,0.62,136.21,0.37c16.04,0.04,30.35,7.38,39.81,18.87c3.35,4.07,126.39,126.56,130.71,131.85
		c7.25,8.88,11.59,20.23,11.59,32.58c2.5,47.61-64.99,73.23-93.72,35.25c-6.8-8.6-43.23-63.03-52.92-72.53
		c-67.38-57.82-136.53,58.52-52.95,88.99c4.22,1.19,154.03,28.53,157.41,29.17c23.68,4.48,41.55,25.49,41.12,50.57
		c-0.11,20.9,0.3,85.08,0.64,132.25C1037.83,539.81,1013.2,563.87,983.78,562.46z"/>
	<path class="st8" d="M1162.25,577.25c0,0-100.46,0-124.09,0h-50.91c0,0-59.46,0.5-74.5,0.5h0h0c-27.61,0-50-22.39-50-50v0v-125v0
		c0-27.61,22.39-50,50-50h0h0c14.64,0,27.82,6.29,36.96,16.33c8.05,8.83,47.5,63.13,49.6,65.65c9.17,11.01,22.99,18.02,38.44,18.02
		l0,0l0,0c27.61,0,50-22.39,50-50v0v0c0-21.95-14.15-40.6-33.83-47.33c-2.88-0.99-47.95-13.81-70.67-35.17
		c-15.52-14.6-19.35-48.84-20.02-52.09c-4.07-19.86-19.92-35.42-39.92-39.09c-2.94-0.54-144.02-26.44-148.21-27.61
		c-21.01-5.84-36.31-25.32-35.85-48.21v0l0-0.01c-0.55-28,22-50.99,50-50.99h0c0,0,108.84,0.65,122.01,0.51l151.99-0.51h101.99
		c27.46,0,49.56,22.55,49.01,50v0v0c0,28.49-22.18,52.05-50.62,53.75c-38.9,2.33-125.38,21.25-125.38,21.25l0,0
		c-27.42,0-49.92,21.7-50.94,49.1c-0.04,1.12-0.06,1.79-0.06,1.9v0c0,22.86,15.36,42.19,36.4,48.12
		c4.01,1.13,146.33,27.1,149.54,27.71c22.49,4.25,39.47,24.21,39.06,48.04c0,0.07,0,0.12,0,0.14c-0.1,19.71,0.29,80.81,0.61,125.5
		l0.01,0.85c0.2,27.2-22.08,49.21-49.28,48.67L1162.25,577.25z"/>
	<path class="st8" d="M981.97,621.01c-119.51-0.76-253.08,1.16-392.22,0.17c-29.07-0.09-52.57-23.68-52.57-52.75
		c0,0,0-131.44,0-131.44c0-28.2,22.25-51.38,50.43-52.53c62.82-2.64,70.35,106.71,132.53,105.11c0,0,114.67,0.53,130.92,0.53
		c29.04,0,52.58-23.54,52.58-52.58c0-23.09-14.88-42.7-35.57-49.76c-38.6-12.39-92.21-28.79-95.37-91.76
		c-4.29-20.88-20.95-37.25-41.98-41.1c-0.07-0.01-146.6-28.35-148.83-28.65c-62.56-8.62-57.23-103.24,6.44-104.7
		c70.47-0.49,344.93,0.97,396.8,1.01c28.46,0.02,51.52,23.1,51.52,51.56c0,25.6-18.28,46.86-42.42,51.6
		c-3.56,0.7-151.63,27.84-155.86,28.91c-51.76,12.42-53.9,88.52-2.14,102.59c4.22,1.19,153.87,28.5,157.24,29.13
		c23.65,4.47,41.5,25.46,41.07,50.51c-0.11,20.87,0.3,84.98,0.64,132.11C1035.97,598.39,1011.36,622.42,981.97,621.01z"/>
</g>
<g id="A4" class="st0">
	<path id="reduced_points" class="st1" d="M762.5,452.96c43,25.86,22.19,98.92-29.01,97.04c0,0-132.63,0-132.63,0
		c-28.87,0.03-52.16-23.79-51.58-52.63c0,0,0.33-237.59,0-264.31c0-15.3,6.68-29.05,17.28-38.48
		c3.07-2.73,123.07-122.8,125.61-125.92c9.51-11.7,24.17-19.05,40.44-18.65c10.6,0.22,80.14,0.16,130.87,0.09
		c59.07-0.27,75.24,83.46,18.12,101.76c-5.21,1.64-158.61,29.28-162.17,30.14c-93.65,30.03,0.05,205.76,105.05,16.56
		c29.46-35.85,94.5-12.37,92.69,35.13c-0.14,93.76-0.1,154.27,1.05,262.63c1.15,59.36-85.77,72.05-103.13,16.54
		c-0.62-1.86-30.37-154.05-31.03-157.39C753.31,253.48,582.53,355.1,762.5,452.96z"/>
	<path class="st7" d="M1184.5,458.96c43,25.86,22.19,98.92-29.01,97.04c0,0-132.63,0-132.63,0c-28.87,0.03-52.16-23.79-51.58-52.63
		c0,0,0.33-237.59,0-264.31c0-15.3,6.68-29.05,17.28-38.48c3.07-2.73,123.07-122.8,125.61-125.92c9.51-11.7,24.17-19.05,40.44-18.65
		c10.6,0.22,80.14,0.16,130.87,0.09c59.07-0.27,75.24,83.46,18.12,101.76c-5.21,1.64-158.61,29.28-162.17,30.14
		c-58.75,13.85-46.97,104.04,13.53,103.27c40.92,4.14,69.74-64.12,91.52-86.7c29.45-35.86,94.49-12.37,92.68,35.13
		c-0.14,93.76-0.1,154.27,1.05,262.63c1.15,59.36-85.77,72.05-103.13,16.54c-0.62-1.86-30.37-154.05-31.03-157.39
		c-23.12-86.77-146.18-24.92-88.84,45.63C1126.75,417.5,1176.16,453.57,1184.5,458.96z"/>
</g>
<g id="A3" class="st0">
	<path class="st4" d="M297.38,540.82c-6.12,20.04-24.77,34.68-46.89,34.68h-0.99h0c-27.06,0-49-21.94-49-49v-1
		c0,0-0.56-98.46-0.03-125.66l0.03-1.34c0,0,0-100.46,0-124.09v0c0,0.09-1-123.91-1-123.91l0.04-2c0.53-27.06,22.91-48.55,49.96-48
		h0c0,0,125,0,125,0c0,0,76.3,0.16,124.49,0.09c27.71-0.04,50.46,21.87,51.49,49.56c0,0.12,0.01,0.24,0.01,0.35
		c0,0.01-0.01,0.35-0.02,0.98c-0.42,21.59-14.75,39.64-34.27,45.79c-4.95,1.56-150.69,27.81-154.06,28.63
		c-21.36,5.17-37.15,24.42-37.15,47.29c0,0.12,0,0.24,0,0.35c0,0.16,0,0.31,0,0.47v0v0c0,27.61,22.39,50,50,50h0h0l0.01,0
		c12.8,0.25,24.53-4.42,33.41-12.26c10.16-8.97,45.98-61.47,53.52-70.11c9.21-10.55,22.9-17.08,38.05-16.63h0h0
		c27.61,0,50,22.38,50,50v0l-0.01,49.99L550,400v0.01c0,16.92,0.56,78.97,1,124.5c0.27,27.92-22.58,50.54-50.5,49.99h0h0
		c-22.12,0-40.88-14.36-47.48-34.27c-0.59-1.77-28.85-146.35-29.48-149.52c-4.4-22.34-23.57-39.52-47.13-40.56
		c-0.95-0.04-1.46-0.09-1.41-0.14H375h-0.01l-0.24,0c-23.5-0.01-43.29,16.13-48.76,38.01C325.09,391.61,298.26,537.96,297.38,540.82
		z"/>
	<path class="st1" d="M913.38,530.82c-6.12,20.04-24.77,34.68-46.89,34.68h-0.99h0c-27.06,0-49-21.94-49-49v-1
		c0,0-0.56-98.46-0.03-125.66l0.03-1.34c0,0,0-100.46,0-124.09v0c0,0.09-1-123.91-1-123.91l0.04-2c0.53-27.06,22.91-48.55,49.96-48
		h0c0,0,125,0,125,0c0,0,76.3,0.16,124.49,0.09c27.71-0.04,50.46,21.87,51.49,49.56c0,0.12,0.01,0.24,0.01,0.35
		c0,0.01-0.01,0.35-0.02,0.98c-0.42,21.59-14.75,39.64-34.27,45.79c-4.95,1.56-150.69,27.81-154.06,28.63
		c-21.36,5.17-37.15,24.42-37.15,47.29c0,0.12,0,0.24,0,0.35c0,0.16,0,0.31,0,0.47v0v0c0,27.61,22.39,50,50,50h0h0l0.01,0
		c12.8,0.25,24.53-4.42,33.41-12.26c10.16-8.97,45.98-61.47,53.52-70.11c9.21-10.55,22.9-17.08,38.05-16.63l0,0l0,0
		c27.61,0,50,22.38,50,50v0l-0.01,49.99L1166,390v0.01c0,16.92,0.56,78.97,1,124.5c0.27,27.92-22.58,50.54-50.5,49.99l0,0h0
		c-22.12,0-40.88-14.36-47.48-34.27c-0.59-1.77-28.85-146.35-29.48-149.52c-4.4-22.34-23.57-39.52-47.13-40.56
		c-0.95-0.04-1.46-0.09-1.41-0.14H991h-0.01l-0.24,0c-23.5-0.01-43.29,16.13-48.76,38.01C941.09,381.61,914.26,527.96,913.38,530.82
		z"/>
	<path class="st7" d="M878.84,544.49C870,555.16,856.68,562,841.73,562.1c-0.57,0-1.15,0.01-1.73,0.01l-0.85,0.01
		c-27.2,0.2-49.21-22.08-48.67-49.28l0.03-1.34c0,0,0-100.46,0-124.09v0c0-14.54,6.35-27.6,16.42-36.56
		c2.92-2.6,116.92-116.66,119.33-119.62c9.01-11.07,22.84-18.04,38.25-17.73l0.17,0c27.44,0.56,49.71,22.38,50.83,49.81
		c0,0.07,0.01,0.14,0.01,0.19v0c-0.29,14.45-6.7,27.37-16.71,36.31c-8.85,7.9-64.14,45.57-72.95,56.35
		c-6.77,8.28-10.83,18.85-10.84,30.37c0,0.16,0,0.31,0,0.47v0v0c0,27.61,22.39,50,50,50h0h0l0.01,0
		c12.8,0.25,24.53-4.42,33.41-12.26c10.16-8.97,45.98-61.47,53.52-70.11c9.21-10.55,22.9-17.08,38.05-16.63l0,0l0,0
		c27.61,0,50,22.38,50,50v0l-0.01,49.99L1140,513v0.01c0,27.61-22.39,49.99-50,49.99l0,0l0,0c-14.57,0-27.69-6.24-36.83-16.19
		c-8.18-8.9-46.53-61.91-49.58-65.62c-9.17-11.11-23.05-18.2-38.58-18.2H965h-0.01c-17.95,0-33.69,9.46-42.51,23.67
		C920.28,490.22,885.92,535.95,878.84,544.49z"/>
</g>
<g id="A2_1_" class="st0">
	<path class="st4" d="M288.84,556.49C280,567.16,266.68,574,251.73,574.1c-0.57,0-1.15,0.01-1.73,0.01l-0.85,0.01
		c-27.2,0.2-49.21-22.08-48.67-49.28l0.03-1.34c0,0,0-100.46,0-124.09v0c0-14.54,6.35-27.6,16.42-36.56
		c2.92-2.6,116.92-116.66,119.33-119.62c9.01-11.07,22.84-18.04,38.25-17.73l0.17,0c10.07,0.21,76.13,0.15,124.33,0.08
		c27.71-0.04,50.47,21.88,51.49,49.56c0,0.12,0.01,0.23,0.01,0.35c0,0.01-0.01,0.35-0.02,0.98c-0.42,21.59-14.75,39.64-34.27,45.79
		c-4.95,1.56-150.69,27.81-154.06,28.63c-21.36,5.17-37.15,24.42-37.15,47.29c0,0.12,0,0.24,0,0.35c0,0.16,0,0.31,0,0.47v0v0
		c0,27.61,22.39,50,50,50h0h0l0.01,0c12.8,0.25,24.53-4.42,33.41-12.26c10.16-8.97,45.98-61.47,53.52-70.11
		c9.21-10.55,22.9-17.08,38.05-16.63h0h0c27.61,0,50,22.38,50,50v0l-0.01,49.99L550,525v0.01c0,27.61-22.39,49.99-50,49.99h0h0
		c-14.57,0-27.69-6.24-36.83-16.19c-8.18-8.9-46.53-61.91-49.58-65.62c-9.17-11.11-23.05-18.2-38.58-18.2H375h-0.01
		c-17.95,0-33.69,9.46-42.51,23.67C330.28,502.22,295.92,547.95,288.84,556.49z"/>
	<path class="st1" d="M851.84,540.49C843,551.16,829.68,558,814.73,558.1c-0.57,0-1.15,0.01-1.73,0.01l-0.85,0.01
		c-27.2,0.2-49.21-22.08-48.67-49.28l0.03-1.34c0,0,0-100.46,0-124.09v0c0-14.54,6.35-27.6,16.42-36.56
		c2.92-2.6,116.92-116.66,119.33-119.62c9.01-11.07,22.84-18.04,38.25-17.73l0.17,0c10.07,0.21,76.13,0.15,124.33,0.08
		c27.71-0.04,50.47,21.88,51.49,49.56c0,0.12,0.01,0.23,0.01,0.35c0,0.01-0.01,0.35-0.02,0.98c-0.42,21.59-14.75,39.64-34.27,45.79
		c-4.95,1.56-150.69,27.81-154.06,28.63c-21.36,5.17-37.15,24.42-37.15,47.29c0,0.12,0,0.24,0,0.35c0,0.16,0,0.31,0,0.47v0v0
		c0,27.61,22.39,50,50,50h0h0l0.01,0c12.8,0.25,24.53-4.42,33.41-12.26c10.16-8.97,45.98-61.47,53.52-70.11
		c9.21-10.55,22.9-17.08,38.05-16.63l0,0l0,0c27.61,0,50,22.38,50,50v0l-0.01,49.99L1113,509v0.01c0,27.61-22.39,49.99-50,49.99l0,0
		l0,0c-14.57,0-27.69-6.24-36.83-16.19c-8.18-8.9-46.53-61.91-49.58-65.62c-9.17-11.11-23.05-18.2-38.58-18.2H938h-0.01
		c-17.95,0-33.69,9.46-42.51,23.67C893.28,486.22,858.92,531.95,851.84,540.49z"/>
	<path class="st7" d="M878.84,544.49C870,555.16,856.68,562,841.73,562.1c-0.57,0-1.15,0.01-1.73,0.01l-0.85,0.01
		c-27.2,0.2-49.21-22.08-48.67-49.28l0.03-1.34c0,0,0-100.46,0-124.09v0c0-14.54,6.35-27.6,16.42-36.56
		c2.92-2.6,116.92-116.66,119.33-119.62c9.01-11.07,22.84-18.04,38.25-17.73l0.17,0c27.44,0.56,49.71,22.38,50.83,49.81
		c0,0.07,0.01,0.14,0.01,0.19v0c-0.29,14.45-6.7,27.37-16.71,36.31c-8.85,7.9-64.14,45.57-72.95,56.35
		c-6.77,8.28-10.83,18.85-10.84,30.37c0,0.16,0,0.31,0,0.47v0v0c0,27.61,22.39,50,50,50h0h0l0.01,0
		c12.8,0.25,24.53-4.42,33.41-12.26c10.16-8.97,45.98-61.47,53.52-70.11c9.21-10.55,22.9-17.08,38.05-16.63l0,0l0,0
		c27.61,0,50,22.38,50,50v0l-0.01,49.99L1140,513v0.01c0,27.61-22.39,49.99-50,49.99l0,0l0,0c-14.57,0-27.69-6.24-36.83-16.19
		c-8.18-8.9-46.53-61.91-49.58-65.62c-9.17-11.11-23.05-18.2-38.58-18.2H965h-0.01c-17.95,0-33.69,9.46-42.51,23.67
		C920.28,490.22,885.92,535.95,878.84,544.49z"/>
</g>
<g id="A" class="st0">
	<path class="st1" d="M221.31,513.74c-16.04,55.47-102.64,43.76-101.98-15.07c-0.47-0.62,0.34-239.72,0-265.36
		c0-15.3,6.68-29.05,17.28-38.48c3.07-2.73,123.07-122.8,125.61-125.92c9.51-11.7,24.17-19.05,40.44-18.65
		c10.6,0.22,80.14,0.16,130.87,0.09c29.16-0.04,53.12,23.03,54.2,52.17c0.23,23.13-15.1,43.05-36.08,49.59
		c-5.21,1.64-158.61,29.28-162.17,30.14c-22.48,5.44-39.11,25.7-39.1,49.77c-2.27,44.75,55.74,70.55,87.82,40.59
		c28.83-25.28,51.38-94.45,96.39-91.3c29.07,0,52.63,23.56,52.63,52.63c0,0,0.59,214.7,1.05,262.64
		c1.15,59.35-85.76,72.06-103.13,16.54c-0.62-1.86-30.37-154.05-31.03-157.39c-4.65-24.13-25.89-42.19-51.1-42.85
		c-24.81-0.14-45.82,16.89-51.59,40.01C250.48,356.68,222.23,510.73,221.31,513.74z"/>
</g>
<g id="Y5" class="st0">
	<path class="st7" d="M851.84,540.49C843,551.16,829.68,558,814.73,558.1c-0.57,0-1.15,0.01-1.73,0.01l-0.85,0.01
		c-27.2,0.2-49.21-22.08-48.67-49.28l0.03-1.34c0,0,0-100.46,0-124.09v0c0-14.54,6.35-27.6,16.42-36.56
		c2.92-2.6,116.92-116.66,119.33-119.62c9.01-11.07,22.84-18.04,38.25-17.73l0.17,0c10.07,0.21,76.13,0.15,124.33,0.08
		c27.71-0.04,50.47,21.88,51.49,49.56c0,0.12,0.01,0.23,0.01,0.35c0,0.01-0.01,0.35-0.02,0.98c-0.42,21.59-14.75,39.64-34.27,45.79
		c-4.95,1.56-150.69,27.81-154.06,28.63c-21.36,5.17-37.15,24.42-37.15,47.29c0,0.12,0,0.24,0,0.35c0,0.16,0,0.31,0,0.47v0v0
		c0,27.61,22.39,50,50,50h0h0l0.01,0c12.8,0.25,24.53-4.42,33.41-12.26c10.16-8.97,45.98-61.47,53.52-70.11
		c9.21-10.55,22.9-17.08,38.05-16.63l0,0l0,0c27.61,0,50,22.38,50,50v0l-0.01,49.99L1113,509v0.01c0,27.61-22.39,49.99-50,49.99l0,0
		l0,0c-14.57,0-27.69-6.24-36.83-16.19c-8.18-8.9-46.53-61.91-49.58-65.62c-9.17-11.11-23.05-18.2-38.58-18.2H938h-0.01
		c-17.95,0-33.69,9.46-42.51,23.67C893.28,486.22,858.92,531.95,851.84,540.49z"/>
	<path class="st7" d="M878.84,544.49C870,555.16,856.68,562,841.73,562.1c-0.57,0-1.15,0.01-1.73,0.01l-0.85,0.01
		c-27.2,0.2-49.21-22.08-48.67-49.28l0.03-1.34c0,0,0-100.46,0-124.09v0c0-14.54,6.35-27.6,16.42-36.56
		c2.92-2.6,116.92-116.66,119.33-119.62c9.01-11.07,22.84-18.04,38.25-17.73l0.17,0c27.44,0.56,49.71,22.38,50.83,49.81
		c0,0.07,0.01,0.14,0.01,0.19v0c-0.29,14.45-6.7,27.37-16.71,36.31c-8.85,7.9-64.14,45.57-72.95,56.35
		c-6.77,8.28-10.83,18.85-10.84,30.37c0,0.16,0,0.31,0,0.47v0v0c0,27.61,22.39,50,50,50h0h0l0.01,0
		c12.8,0.25,24.53-4.42,33.41-12.26c10.16-8.97,45.98-61.47,53.52-70.11c9.21-10.55,22.9-17.08,38.05-16.63l0,0l0,0
		c27.61,0,50,22.38,50,50v0l-0.01,49.99L1140,513v0.01c0,27.61-22.39,49.99-50,49.99l0,0l0,0c-14.57,0-27.69-6.24-36.83-16.19
		c-8.18-8.9-46.53-61.91-49.58-65.62c-9.17-11.11-23.05-18.2-38.58-18.2H965h-0.01c-17.95,0-33.69,9.46-42.51,23.67
		C920.28,490.22,885.92,535.95,878.84,544.49z"/>
	<path class="st4" d="M375,575L375,575c27.61,0,50-22.38,50-50v0l0-49.99l0-25l0-36.62c0-8.47,3.81-16.49,10.38-21.84
		c25.17-20.49,87.88-71.5,94.53-76.47C542.1,305.96,550,291.4,550,275.01V275v-0.01c0-14.15,0.2-79.9,0.35-126.5
		c0.08-26.48-21.36-47.99-47.85-47.99h0c-0.84,0.01-1.94,0.02-3.25,0.02c-20.76,0.09-38.45,13.09-45.49,31.37
		c-1.12,2.91-23.21,100.02-43.63,190.25c-8.45,37.32-61.56,37.49-70.23,0.22c-21.8-93.62-45.62-195.69-46.11-196.59
		c-8.1-15.03-23.98-25.27-42.3-25.27h-0.99h-1.01c-27.05,0-48.99,21.93-48.99,48.99v0.01c0,0-0.5,108.24-0.5,125.5v0l0,0.12
		c0.04,15.92,7.51,30.09,19.13,39.22c6.89,5.41,72.1,58.28,96.61,78.16c5.86,4.75,9.25,11.88,9.25,19.42V525v0
		C325,552.61,347.38,575,375,575L375,575z"/>
	<path class="st1" d="M780,526L780,526c27.61,0,50-22.38,50-50v0l0-49.99l0-25l0-36.62c0-8.47,3.81-16.49,10.38-21.84
		c25.17-20.49,87.88-71.5,94.53-76.47C947.1,256.96,955,242.4,955,226.01V226v-0.01c0-14.15,0.2-79.9,0.35-126.5
		c0.08-26.48-21.36-47.99-47.85-47.99h0c-0.84,0.01-1.94,0.02-3.25,0.02c-20.76,0.09-38.45,13.09-45.49,31.37
		c-1.12,2.91-23.21,100.02-43.63,190.25c-8.45,37.32-61.56,37.49-70.23,0.22c-21.8-93.62-45.62-195.69-46.11-196.59
		c-8.1-15.03-23.98-25.27-42.3-25.27h-0.99h-1.01c-27.05,0-48.99,21.93-48.99,48.99v0.01c0,0-0.5,108.24-0.5,125.5v0l0,0.12
		c0.04,15.92,7.51,30.09,19.13,39.22c6.89,5.41,72.1,58.28,96.61,78.16c5.86,4.75,9.25,11.88,9.25,19.42V476v0
		C730,503.61,752.38,526,780,526L780,526z"/>
</g>
<g id="Y4" class="st0">
	<path class="st1" d="M781.97,542.73c-29.09,0-52.68-23.59-52.68-52.68c0,0,0-119.15,0-119.15c0-7.94-3.58-15.46-9.75-20.47
		c-25.83-20.95-94.54-76.65-101.8-82.35c-12.24-9.62-20.12-24.55-20.16-41.32c0-18.24,0.53-132.28,0.53-132.36
		c-0.01-28.51,23.1-51.63,51.61-51.63c19.89-0.75,37.9,10.14,46.68,26.63c0.95,1.76,34.08,166.24,35.07,170.11
		c5.71,22.46,25.85,38.97,49.97,40.34c23.7,0.06,43.94-15.8,50.44-37.41c1.46-4.84,30.86-160.83,33.08-166.59
		c18.64-51.55,102.65-39.66,101.77,17.49c-2.22,193.75,24.47,135.27-121.14,256.09c-6.92,5.64-10.93,14.09-10.94,23.02
		c0,0,0,117.6,0,117.6C834.66,519.15,811.07,542.74,781.97,542.73z"/>
</g>
<g id="Y3" class="st0">
	<path class="st7" d="M851.84,540.49C843,551.16,829.68,558,814.73,558.1c-0.57,0-1.15,0.01-1.73,0.01l-0.85,0.01
		c-27.2,0.2-49.21-22.08-48.67-49.28l0.03-1.34c0,0,0-100.46,0-124.09v0c0-14.54,6.35-27.6,16.42-36.56
		c2.92-2.6,116.92-116.66,119.33-119.62c9.01-11.07,22.84-18.04,38.25-17.73l0.17,0c10.07,0.21,76.13,0.15,124.33,0.08
		c27.71-0.04,50.47,21.88,51.49,49.56c0,0.12,0.01,0.23,0.01,0.35c0,0.01-0.01,0.35-0.02,0.98c-0.42,21.59-14.75,39.64-34.27,45.79
		c-4.95,1.56-150.69,27.81-154.06,28.63c-21.36,5.17-37.15,24.42-37.15,47.29c0,0.12,0,0.24,0,0.35c0,0.16,0,0.31,0,0.47v0v0
		c0,27.61,22.39,50,50,50h0h0l0.01,0c12.8,0.25,24.53-4.42,33.41-12.26c10.16-8.97,45.98-61.47,53.52-70.11
		c9.21-10.55,22.9-17.08,38.05-16.63l0,0l0,0c27.61,0,50,22.38,50,50v0l-0.01,49.99L1113,509v0.01c0,27.61-22.39,49.99-50,49.99l0,0
		l0,0c-14.57,0-27.69-6.24-36.83-16.19c-8.18-8.9-46.53-61.91-49.58-65.62c-9.17-11.11-23.05-18.2-38.58-18.2H938h-0.01
		c-17.95,0-33.69,9.46-42.51,23.67C893.28,486.22,858.92,531.95,851.84,540.49z"/>
	<path class="st7" d="M878.84,544.49C870,555.16,856.68,562,841.73,562.1c-0.57,0-1.15,0.01-1.73,0.01l-0.85,0.01
		c-27.2,0.2-49.21-22.08-48.67-49.28l0.03-1.34c0,0,0-100.46,0-124.09v0c0-14.54,6.35-27.6,16.42-36.56
		c2.92-2.6,116.92-116.66,119.33-119.62c9.01-11.07,22.84-18.04,38.25-17.73l0.17,0c27.44,0.56,49.71,22.38,50.83,49.81
		c0,0.07,0.01,0.14,0.01,0.19v0c-0.29,14.45-6.7,27.37-16.71,36.31c-8.85,7.9-64.14,45.57-72.95,56.35
		c-6.77,8.28-10.83,18.85-10.84,30.37c0,0.16,0,0.31,0,0.47v0v0c0,27.61,22.39,50,50,50h0h0l0.01,0
		c12.8,0.25,24.53-4.42,33.41-12.26c10.16-8.97,45.98-61.47,53.52-70.11c9.21-10.55,22.9-17.08,38.05-16.63l0,0l0,0
		c27.61,0,50,22.38,50,50v0l-0.01,49.99L1140,513v0.01c0,27.61-22.39,49.99-50,49.99l0,0l0,0c-14.57,0-27.69-6.24-36.83-16.19
		c-8.18-8.9-46.53-61.91-49.58-65.62c-9.17-11.11-23.05-18.2-38.58-18.2H965h-0.01c-17.95,0-33.69,9.46-42.51,23.67
		C920.28,490.22,885.92,535.95,878.84,544.49z"/>
	<path class="st4" d="M375,575L375,575c27.61,0,50-22.38,50-50v0l0-49.99l0-25l0-36.62c0-8.47,3.81-16.49,10.38-21.84
		c25.17-20.49,87.88-71.5,94.53-76.47C542.1,305.96,550,291.4,550,275.01V275v-0.01c0-14.15,0.2-79.9,0.35-126.5
		c0.08-26.48-21.36-47.99-47.85-47.99h0c-0.84,0.01-1.94,0.02-3.25,0.02c-20.76,0.09-38.45,13.09-45.49,31.37
		c-2.11,5.47-30.01,153.51-31.39,158.1c-6.11,20.21-24.68,35.06-46.86,35.51l-0.01,0h0h-1c-12.85,0-24.57-4.85-33.43-12.81
		c-10.18-9.15-44.33-57.12-49.55-65.15c-8.73-13.42-23.8-22.36-41.03-22.54l-0.49,0h0c-27.61,0-50,22.38-50,50v0l0,0.12
		c0.04,15.92,7.51,30.09,19.13,39.22c6.89,5.41,72.1,58.28,96.61,78.16c5.86,4.75,9.25,11.88,9.25,19.42V525v0
		C325,552.61,347.38,575,375,575L375,575z"/>
	<path class="st1" d="M1157,610L1157,610c27.61,0,50-22.38,50-50v0l0-49.99l0-25l0-36.62c0-8.47,3.81-16.49,10.38-21.84
		c25.17-20.49,87.88-71.5,94.53-76.47c12.19-9.12,20.09-23.67,20.09-40.07V310v-0.01c0-14.15,0.2-79.9,0.35-126.5
		c0.08-26.48-21.36-47.99-47.85-47.99l0,0c-0.84,0.01-1.94,0.02-3.25,0.02c-20.76,0.09-38.45,13.09-45.49,31.37
		c-2.11,5.47-30.01,153.51-31.39,158.1c-6.11,20.21-24.68,35.06-46.86,35.51l-0.01,0l0,0h-1c-12.85,0-24.57-4.85-33.43-12.81
		c-10.18-9.15-44.33-57.12-49.55-65.15c-8.73-13.42-23.8-22.36-41.03-22.54l-0.49,0l0,0c-27.61,0-50,22.38-50,50v0l0,0.12
		c0.04,15.92,7.51,30.09,19.13,39.22c6.89,5.41,72.1,58.28,96.61,78.16c5.86,4.75,9.25,11.88,9.25,19.42V560v0
		C1107,587.61,1129.38,610,1157,610L1157,610z"/>
</g>
<g id="Y2" class="st0">
	<path class="st7" d="M851.84,540.49C843,551.16,829.68,558,814.73,558.1c-0.57,0-1.15,0.01-1.73,0.01l-0.85,0.01
		c-27.2,0.2-49.21-22.08-48.67-49.28l0.03-1.34c0,0,0-100.46,0-124.09v0c0-14.54,6.35-27.6,16.42-36.56
		c2.92-2.6,116.92-116.66,119.33-119.62c9.01-11.07,22.84-18.04,38.25-17.73l0.17,0c10.07,0.21,76.13,0.15,124.33,0.08
		c27.71-0.04,50.47,21.88,51.49,49.56c0,0.12,0.01,0.23,0.01,0.35c0,0.01-0.01,0.35-0.02,0.98c-0.42,21.59-14.75,39.64-34.27,45.79
		c-4.95,1.56-150.69,27.81-154.06,28.63c-21.36,5.17-37.15,24.42-37.15,47.29c0,0.12,0,0.24,0,0.35c0,0.16,0,0.31,0,0.47v0v0
		c0,27.61,22.39,50,50,50h0h0l0.01,0c12.8,0.25,24.53-4.42,33.41-12.26c10.16-8.97,45.98-61.47,53.52-70.11
		c9.21-10.55,22.9-17.08,38.05-16.63l0,0l0,0c27.61,0,50,22.38,50,50v0l-0.01,49.99L1113,509v0.01c0,27.61-22.39,49.99-50,49.99l0,0
		l0,0c-14.57,0-27.69-6.24-36.83-16.19c-8.18-8.9-46.53-61.91-49.58-65.62c-9.17-11.11-23.05-18.2-38.58-18.2H938h-0.01
		c-17.95,0-33.69,9.46-42.51,23.67C893.28,486.22,858.92,531.95,851.84,540.49z"/>
	<path class="st7" d="M878.84,544.49C870,555.16,856.68,562,841.73,562.1c-0.57,0-1.15,0.01-1.73,0.01l-0.85,0.01
		c-27.2,0.2-49.21-22.08-48.67-49.28l0.03-1.34c0,0,0-100.46,0-124.09v0c0-14.54,6.35-27.6,16.42-36.56
		c2.92-2.6,116.92-116.66,119.33-119.62c9.01-11.07,22.84-18.04,38.25-17.73l0.17,0c27.44,0.56,49.71,22.38,50.83,49.81
		c0,0.07,0.01,0.14,0.01,0.19v0c-0.29,14.45-6.7,27.37-16.71,36.31c-8.85,7.9-64.14,45.57-72.95,56.35
		c-6.77,8.28-10.83,18.85-10.84,30.37c0,0.16,0,0.31,0,0.47v0v0c0,27.61,22.39,50,50,50h0h0l0.01,0
		c12.8,0.25,24.53-4.42,33.41-12.26c10.16-8.97,45.98-61.47,53.52-70.11c9.21-10.55,22.9-17.08,38.05-16.63l0,0l0,0
		c27.61,0,50,22.38,50,50v0l-0.01,49.99L1140,513v0.01c0,27.61-22.39,49.99-50,49.99l0,0l0,0c-14.57,0-27.69-6.24-36.83-16.19
		c-8.18-8.9-46.53-61.91-49.58-65.62c-9.17-11.11-23.05-18.2-38.58-18.2H965h-0.01c-17.95,0-33.69,9.46-42.51,23.67
		C920.28,490.22,885.92,535.95,878.84,544.49z"/>
	<path class="st4" d="M326.25,527.49c0.14,26.39,21.86,47.56,48.25,47.01h0h0c27.98,0.55,50.93-22.02,50.85-50.01L425,288.39
		c0-8.47,3.81-16.49,10.38-21.84c25.17-20.49,87.88-71.5,94.53-76.47C542.1,180.96,550,166.4,550,150.01V150v-0.01
		c0-27.61-22.39-49.99-50-49.99h0h0c-16.47,0.17-31.09,8.14-40.3,20.4c-6.21,8.27-41.48,59.58-52.24,68.54
		c-8.67,7.22-19.81,11.55-31.96,11.55h0h-1c-12.85,0-24.57-4.85-33.43-12.81c-10.18-9.15-44.33-57.12-49.55-65.15
		c-8.73-13.42-23.8-22.36-41.03-22.54l-0.49,0h0c-27.61,0-50,22.38-50,50v0l0,0.12c0.04,15.92,7.51,30.09,19.13,39.22
		c6.89,5.41,72.1,58.28,96.61,78.16c5.86,4.75,9.25,11.88,9.25,19.42L326.25,527.49z"/>
	<path class="st1" d="M935.25,550.49c0.14,26.39,21.86,47.56,48.25,47.01h0h0c27.98,0.55,50.93-22.02,50.85-50.01l-0.36-236.1
		c0-8.47,3.81-16.49,10.38-21.84c25.17-20.49,87.88-71.5,94.53-76.47c12.19-9.12,20.09-23.67,20.09-40.07V173v-0.01
		c0-27.61-22.39-49.99-50-49.99l0,0l0,0c-16.47,0.17-31.09,8.14-40.3,20.4c-6.21,8.27-41.48,59.58-52.24,68.54
		c-8.67,7.22-19.81,11.55-31.96,11.55h0h-1c-12.85,0-24.57-4.85-33.43-12.81c-10.18-9.15-44.33-57.12-49.55-65.15
		c-8.73-13.42-23.8-22.36-41.03-22.54l-0.49,0h0c-27.61,0-50,22.38-50,50v0l0,0.12c0.04,15.92,7.51,30.09,19.13,39.22
		c6.89,5.41,72.1,58.28,96.61,78.16c5.86,4.75,9.25,11.88,9.25,19.42L935.25,550.49z"/>
</g>
<g id="Y" class="st0">
	<path class="st1" d="M317.99,555c-39.45,0-71.42-31.98-71.42-71.43c0,0,0-161.54,0-161.54c0-10.77-4.85-20.96-13.22-27.75
		c-35.02-28.4-128.18-103.92-138.02-111.65C78.73,169.58,68.06,149.34,68,126.6c-0.13-39.75,32.38-72.03,72.13-71.6
		c82.35,0.59,91.11,142.81,177.15,143.56c0,0,1.43,0,1.43,0s33.27-6.19,45.65-16.5C407.19,145.64,433.59,53.94,496.57,55
		c39.46,0,71.44,31.99,71.43,71.44c0,23.42-11.28,44.21-28.7,57.24c-9.5,7.1-99.08,79.97-135.04,109.25
		c-9.39,7.64-14.83,19.1-14.83,31.2c0,0,0,159.45,0,159.45C389.43,523.03,357.44,555.01,317.99,555z"/>
</g>
<g id="E3" class="st0">
	<path class="st6" d="M407.81,111.89c-8.71-7.7-20.16-12.38-32.72-12.38c-0.24,0-0.47,0-0.71,0h0h0c-10.65,0-20.5,3.4-28.53,9.18
		c-4.63,3.33-131.32,128.81-135.65,134.59c-6.25,8.35-9.89,18.75-9.73,29.97c0,0.1,0,0.18,0,0.25l0,0.17
		c0.15,7.53-1,125.83-1,125.83c0,2,0,125,0,125v0c0.56,27.38,22.62,49.43,50,49.98l1,0.02h50l200.75-0.8
		c27.23-0.11,49.25-22.21,49.25-49.45v0c0-28.03-22.72-50.75-50.75-50.75H375.48l-4.64,0.06c-38.71,0.52-70.36-30.72-70.36-69.43
		v-4.63c0,0,26.11-142.71,29.39-149.1c8.08-15.7,24.46-26.41,43.28-26.4c0.12,0,0.24,0,0.35,0c0.16,0,0.31,0,0.47,0h0h0
		c27.61,0,50,22.39,50,50v0v0l0,0.01c0.25,12.8-4.42,24.53-12.26,33.41c-8.97,10.16-61.47,45.98-70.11,53.52
		c-10.55,9.21-17.08,22.9-16.63,38.05v0v0c0,27.61,22.38,50,50,50h0l2.51-0.03c10.4-0.11,19.98-3.55,27.74-9.29
		c3.81-2.82,128.41-125.24,131.37-128.31c7.94-8.27,12.81-19.52,12.77-31.9c-0.01-1.81-0.01-3.56-0.01-5.26
		c-0.03-11.44-3.99-21.95-10.59-30.25C536.48,241.1,418.3,121.16,407.81,111.89z"/>
	<path class="st1" d="M507.39,202.08c15.65,19.13,15.48,53.25-2.28,70.96c-3.11,3.24-134.28,132.1-138.28,135.07
		c-8.17,6.05-18.25,9.67-29.2,9.78c-48.64,4.1-74.66-62.27-37.77-92.66c9.09-7.94,64.35-45.65,73.8-56.34
		c29.67-31.76,4.64-89.38-39.73-87.81c-20.06-0.34-37.82,11-46.43,27.79c-3.46,6.72-30.94,156.94-30.94,156.94
		c2.3,159.58,254.69,4.84,263.16,131.31c0,28.67-23.18,51.94-51.84,52.05c0,0-211.32,0.85-211.32,0.85
		c-44.41,0.27-101.73,8.45-106.32-52.63c-0.23-68.82,0.42-190.68,1.05-264.47c-0.17-11.82,3.67-22.76,10.24-31.55
		C368.52-4.47,306.61,3.66,507.39,202.08z"/>
</g>
<g id="E2" class="st0">
	<path class="st6" d="M251.73,574.1c-0.57,0-1.15,0.01-1.73,0.01l-0.85,0.01c-27.2,0.2-49.21-22.08-48.67-49.28l0.03-1.34
		c0,0,0-100.46,0-124.09v0V273.29c0-26.41,21.39-47.84,47.8-47.87c48.04-0.07,116.35-0.12,126.2,0.08l0.17,0
		c7.53,0.15,125.83-1,125.83-1c2,0,125,0,125,0h0c27.38,0.56,49.43,22.62,49.98,50l0.02,1v50l-0.8,200.75
		c-0.11,27.23-22.21,49.25-49.45,49.25h0c-28.03,0-50.75-22.72-50.75-50.75V400.5l0.06-4.64c0.52-38.71-30.72-70.36-69.43-70.36
		h-4.63c0,0-142.71,26.11-149.1,29.39c-15.7,8.08-26.41,24.46-26.4,43.28c0,0.12,0,0.24,0,0.35c0,0.16,0,0.31,0,0.47v0v0
		c0,27.61,22.39,50,50,50h0h0l0.01,0c12.8,0.25,24.53-4.42,33.41-12.26c10.16-8.97,45.98-61.47,53.52-70.11
		c9.21-10.55,22.9-17.08,38.05-16.63h0h0c27.61,0,50,22.38,50,50v0l-0.5,74.5L550,525v0.01c0,27.61-22.39,49.99-50,49.99h0h0
		C485.43,575,266.68,574,251.73,574.1z"/>
	<path class="st1" d="M568.18,365.28c-2.41,60.24-62.48,53.47-105.78,52.1c-44.41-1.61-130.25,16.82-131.04-52.1
		c-0.48-15.95,6.4-30.36,17.5-40.05c9.09-7.94,64.35-45.65,73.8-56.33c29.96-32.05,4.15-90.1-40.59-87.81
		c-19.81-0.01-37.05,11.26-45.56,27.79c-3.46,6.72-30.94,156.93-30.94,156.93c-2.47,42.37,31.4,78.68,74.06,77.95
		c0,0,135.66-0.06,135.66-0.06c68.33-0.16,70.84,104.61,1.58,105.46c-39.82,0.16-229.31,1.03-264.98,0.82
		c-28.82-0.58-52.04-23.79-52.63-52.61c0,0,0-129.46,0-131.57c1.55-84.84,0.63-157.82,0.97-265.45
		c0.04-27.8,22.59-50.32,50.39-50.32c0,0,132.74,0,132.74,0c27.01,0.03,129.56,0.01,132.02-0.03c28.63-0.56,52.08,22.6,51.87,51.23
		C567.29,118.07,568.04,348.33,568.18,365.28z"/>
</g>
<g id="E" class="st0">
	<path class="st1" d="M504.54,239.47c0.04,13.03-5.09,24.87-13.44,33.57c-3.11,3.24-134.27,132.09-138.27,135.06
		c-32.95,25.14-85.84-0.43-84.47-42.82c-0.48-15.95,6.4-30.36,17.5-40.05c9.09-7.94,64.35-45.65,73.8-56.33
		c29.95-32.06,4.15-90.1-40.59-87.81c-19.81-0.01-37.05,11.26-45.56,27.79c-3.46,6.72-30.94,156.93-30.94,156.93
		c-2.47,42.37,31.4,78.68,74.06,77.95c0,0,135.66-0.06,135.66-0.06c68.66,0.7,71.21,103.73,1.58,105.46
		c-39.88,0.17-229.27,1.03-264.98,0.82c-28.82-0.58-52.04-23.79-52.63-52.61c0,0,0-129.46,0-131.57
		c0.02-0.37,1.22-124.65,1.05-132.89c-0.16-11.82,3.67-22.76,10.24-31.55c4.55-6.09,137.9-138.16,142.78-141.67
		c8.45-6.08,18.82-9.66,30.03-9.66c24.87,0,130.61,0,130.61,0c30.14-1.48,54.99,23.85,53.26,53.93
		C504.16,114.63,504.39,188.33,504.54,239.47z"/>
</g>
<g id="B3" class="st0">
	<path class="st4" d="M516.11,477.27c19.71,6.8,33.94,25.31,34.39,47.23v0v0.99c0,27.46-22.55,49.56-50,49.01h0c0,0-107.41,1-125,1
		h0c-12.08,0-23.17-4.29-31.81-11.42c-11.11-9.17-117.98-118.75-126.63-126.22c-10.39-8.98-16.89-22.34-16.61-37.2
		c0.01-0.27,0.01-0.54,0.02-0.81l0.03-1.34c0,0,0-100.46,0-124.09v0c0-14.54,6.35-27.6,16.42-36.56
		c2.92-2.6,116.92-116.66,119.33-119.62c9.01-11.07,22.84-18.04,38.25-17.73l0.17,0c10.07,0.21,76.13,0.15,124.33,0.08
		c27.71-0.04,50.46,21.87,51.49,49.56c0,0.12,0.01,0.24,0.01,0.35c0,0.01-0.01,0.35-0.02,0.98c-0.42,21.59-14.75,39.64-34.27,45.79
		c-4.95,1.56-150.69,27.81-154.06,28.63c-21.36,5.17-37.15,24.42-37.15,47.29c0,0.12,0,0.24,0,0.35c0,0.16,0,0.31,0,0.47v0v0
		c0,27.61,22.39,50,50,50h0h0l0.01,0c12.8,0.25,24.53-4.42,33.41-12.26c10.16-8.97,45.98-61.47,53.52-70.11
		c9.21-10.55,22.9-17.08,38.05-16.63h0h0c27.61,0,50,22.38,50,50v0l-0.01,49.99L550,400v0.01l0,0.5c0.27,27.53-21.97,50-49.51,50h0
		c0,0-0.01,0-0.02,0c-14.11-0.28-26.96-6.26-36.15-15.83c-1.9-1.98-46.38-60.42-51.88-66.88c-8.75-10.28-21.57-17.01-36.05-17.65
		c-0.95-0.04-1.46-0.09-1.41-0.14H375h-0.01l-0.24,0c0.07-0.05-0.3-0.09-1.02-0.13c-25.7-1.37-47.23,19.26-47.23,45v5.63v2.37
		c0,21.93,15.12,40.27,35.42,45.29C363.88,448.64,511.35,475.63,516.11,477.27z"/>
	<path class="st1" d="M1056.11,499.27c19.71,6.8,33.94,25.31,34.39,47.23v0v0.99c0,27.46-22.55,49.56-50,49.01l0,0
		c0,0-107.41,1-125,1h0c-12.08,0-23.17-4.29-31.81-11.42c-11.11-9.17-117.98-118.75-126.63-126.22
		c-10.39-8.98-16.89-22.34-16.61-37.2c0.01-0.27,0.01-0.54,0.02-0.81l0.03-1.34c0,0,0-100.46,0-124.09v0
		c0-14.54,6.35-27.6,16.42-36.56c2.92-2.6,116.92-116.66,119.33-119.62c9.01-11.07,22.84-18.04,38.25-17.73l0.17,0
		c10.07,0.21,76.13,0.15,124.33,0.08c27.71-0.04,50.46,21.87,51.49,49.56c0,0.12,0.01,0.24,0.01,0.35c0,0.01-0.01,0.35-0.02,0.98
		c-0.42,21.59-14.75,39.64-34.27,45.79c-4.95,1.56-150.69,27.81-154.06,28.63c-21.36,5.17-37.15,24.42-37.15,47.29
		c0,0.12,0,0.24,0,0.35c0,0.16,0,0.31,0,0.47v0v0c0,27.61,22.39,50,50,50h0h0l0.01,0c12.8,0.25,24.53-4.42,33.41-12.26
		c10.16-8.97,45.98-61.47,53.52-70.11c9.21-10.55,22.9-17.08,38.05-16.63l0,0l0,0c27.61,0,50,22.38,50,50v0l-0.01,49.99L1090,422
		v0.01l0,0.5c0.27,27.53-21.97,50-49.5,50h0c0,0-0.01,0-0.02,0c-14.11-0.28-26.96-6.26-36.15-15.83
		c-1.9-1.98-46.38-60.42-51.88-66.88c-8.75-10.28-21.57-17.01-36.05-17.65c-0.95-0.04-1.46-0.09-1.41-0.14H915h-0.01l-0.24,0
		c0.07-0.05-0.3-0.09-1.02-0.13c-25.7-1.37-47.23,19.26-47.23,45v5.63v2.37c0,21.93,15.12,40.27,35.42,45.29
		C903.88,470.64,1051.35,497.63,1056.11,499.27z"/>
	<path class="st7" d="M878.84,544.49C870,555.16,856.68,562,841.73,562.1c-0.57,0-1.15,0.01-1.73,0.01l-0.85,0.01
		c-27.2,0.2-49.21-22.08-48.67-49.28l0.03-1.34c0,0,0-100.46,0-124.09v0c0-14.54,6.35-27.6,16.42-36.56
		c2.92-2.6,116.92-116.66,119.33-119.62c9.01-11.07,22.84-18.04,38.25-17.73l0.17,0c27.44,0.56,49.71,22.38,50.83,49.81
		c0,0.07,0.01,0.14,0.01,0.19v0c-0.29,14.45-6.7,27.37-16.71,36.31c-8.85,7.9-64.14,45.57-72.95,56.35
		c-6.77,8.28-10.83,18.85-10.84,30.37c0,0.16,0,0.31,0,0.47v0v0c0,27.61,22.39,50,50,50h0h0l0.01,0
		c12.8,0.25,24.53-4.42,33.41-12.26c10.16-8.97,45.98-61.47,53.52-70.11c9.21-10.55,22.9-17.08,38.05-16.63l0,0l0,0
		c27.61,0,50,22.38,50,50v0l-0.01,49.99L1140,513v0.01c0,27.61-22.39,49.99-50,49.99l0,0l0,0c-14.57,0-27.69-6.24-36.83-16.19
		c-8.18-8.9-46.53-61.91-49.58-65.62c-9.17-11.11-23.05-18.2-38.58-18.2H965h-0.01c-17.95,0-33.69,9.46-42.51,23.67
		C920.28,490.22,885.92,535.95,878.84,544.49z"/>
</g>
<g id="B3_copy_2" class="st0">
	<path class="st4" d="M516.11,477.27c19.71,6.8,33.94,25.31,34.39,47.23v0v0.99c0,27.46-22.55,49.56-50,49.01h0c0,0-107.41,1-125,1
		h0c-12.08,0-23.17-4.29-31.81-11.42c-11.11-9.17-117.98-118.75-126.63-126.22c-10.39-8.98-16.89-22.34-16.61-37.2
		c0.01-0.27,0.01-0.54,0.02-0.81l0.03-1.34c0,0,0-100.46,0-124.09v0c0-14.54,6.35-27.6,16.42-36.56
		c2.92-2.6,116.92-116.66,119.33-119.62c9.01-11.07,22.84-18.04,38.25-17.73l0.17,0c10.07,0.21,76.13,0.15,124.33,0.08
		c27.71-0.04,50.46,21.87,51.49,49.56c0,0.12,0.01,0.24,0.01,0.35c0,0.01-0.01,0.35-0.02,0.98c-0.42,21.59-14.75,39.64-34.27,45.79
		c-4.95,1.56-150.69,27.81-154.06,28.63c-21.36,5.17-37.15,24.42-37.15,47.29c0,0.12,0,0.24,0,0.35c0,0.16,0,0.31,0,0.47v0v0
		c0,27.61,22.39,50,50,50h0h0l0.01,0c12.8,0.25,24.53-4.42,33.41-12.26c10.16-8.97,45.98-61.47,53.52-70.11
		c9.21-10.55,22.9-17.08,38.05-16.63h0h0c27.61,0,50,22.38,50,50v0l-0.01,49.99L550,400v0.01l0,0.5c0.27,27.53-21.97,50-49.51,50h0
		c0,0-0.01,0-0.02,0c-14.11-0.28-26.96-6.26-36.15-15.83c-1.9-1.98-46.38-60.42-51.88-66.88c-8.75-10.28-21.57-17.01-36.05-17.65
		c-0.95-0.04-1.46-0.09-1.41-0.14H375h-0.01l-0.24,0c0.07-0.05-0.3-0.09-1.02-0.13c-25.7-1.37-47.23,19.26-47.23,45v5.63v2.37
		c0,21.93,15.12,40.27,35.42,45.29C363.88,448.64,511.35,475.63,516.11,477.27z"/>
	<path class="st1" d="M1056.11,499.27c19.71,6.8,33.94,25.31,34.39,47.23v0v0.99c0,27.46-22.55,49.56-50,49.01l0,0
		c0,0-107.41,1-125,1h0c-12.08,0-23.17-4.29-31.81-11.42c-11.11-9.17-117.98-118.75-126.63-126.22
		c-10.39-8.98-16.89-22.34-16.61-37.2c0.01-0.27,0.01-0.54,0.02-0.81l0.03-1.34c0,0,0-100.46,0-124.09v0
		c0-14.54,6.35-27.6,16.42-36.56c2.92-2.6,116.92-116.66,119.33-119.62c9.01-11.07,22.84-18.04,38.25-17.73l0.17,0
		c10.07,0.21,76.13,0.15,124.33,0.08c27.71-0.04,50.46,21.87,51.49,49.56c0,0.12,0.01,0.24,0.01,0.35c0,0.01-0.01,0.35-0.02,0.98
		c-0.42,21.59-14.75,39.64-34.27,45.79c-4.95,1.56-150.69,27.81-154.06,28.63c-21.36,5.17-37.15,24.42-37.15,47.29
		c0,0.12,0,0.24,0,0.35c0,0.16,0,0.31,0,0.47v0v0c0,27.61,22.39,50,50,50h0h0l0.01,0c12.8,0.25,24.53-4.42,33.41-12.26
		c10.16-8.97,45.98-61.47,53.52-70.11c9.21-10.55,22.9-17.08,38.05-16.63l0,0l0,0c27.61,0,50,22.38,50,50v0l-0.01,49.99L1090,422
		v0.01l0,0.5c0.27,27.53-21.97,50-49.5,50h0c0,0-0.01,0-0.02,0c-14.11-0.28-26.96-6.26-36.15-15.83
		c-1.9-1.98-46.38-60.42-51.88-66.88c-8.75-10.28-21.57-17.01-36.05-17.65c-0.95-0.04-1.46-0.09-1.41-0.14H915h-0.01l-0.24,0
		c0.07-0.05-0.3-0.09-1.02-0.13c-25.7-1.37-47.23,19.26-47.23,45v5.63v2.37c0,21.93,15.12,40.27,35.42,45.29
		C903.88,470.64,1051.35,497.63,1056.11,499.27z"/>
	<path class="st7" d="M878.84,544.49C870,555.16,856.68,562,841.73,562.1c-0.57,0-1.15,0.01-1.73,0.01l-0.85,0.01
		c-27.2,0.2-49.21-22.08-48.67-49.28l0.03-1.34c0,0,0-100.46,0-124.09v0c0-14.54,6.35-27.6,16.42-36.56
		c2.92-2.6,116.92-116.66,119.33-119.62c9.01-11.07,22.84-18.04,38.25-17.73l0.17,0c27.44,0.56,49.71,22.38,50.83,49.81
		c0,0.07,0.01,0.14,0.01,0.19v0c-0.29,14.45-6.7,27.37-16.71,36.31c-8.85,7.9-64.14,45.57-72.95,56.35
		c-6.77,8.28-10.83,18.85-10.84,30.37c0,0.16,0,0.31,0,0.47v0v0c0,27.61,22.39,50,50,50h0h0l0.01,0
		c12.8,0.25,24.53-4.42,33.41-12.26c10.16-8.97,45.98-61.47,53.52-70.11c9.21-10.55,22.9-17.08,38.05-16.63l0,0l0,0
		c27.61,0,50,22.38,50,50v0l-0.01,49.99L1140,513v0.01c0,27.61-22.39,49.99-50,49.99l0,0l0,0c-14.57,0-27.69-6.24-36.83-16.19
		c-8.18-8.9-46.53-61.91-49.58-65.62c-9.17-11.11-23.05-18.2-38.58-18.2H965h-0.01c-17.95,0-33.69,9.46-42.51,23.67
		C920.28,490.22,885.92,535.95,878.84,544.49z"/>
</g>
<g id="B3_copy" class="st0">
	<path class="st4" d="M516.11,477.27c19.71,6.8,33.94,25.31,34.39,47.23v0v0.99c0,27.46-22.55,49.56-50,49.01h0c0,0-107.41,1-125,1
		h0c0,0-74.33-1.27-126.38-1.33c-27.25-0.03-49.16-22.43-48.62-49.67v0c0,0,0-125-0.04-123.84c-0.01,0.27,0.01-0.54,0.02-0.81
		l0.03-1.34c0,0,0-100.46,0-124.09v0c0-14.54,6.35-27.6,16.42-36.56c2.92-2.6,116.92-116.66,119.33-119.62
		c9.01-11.07,22.84-18.04,38.25-17.73l0.17,0c10.07,0.21,76.13,0.15,124.33,0.08c27.71-0.04,50.46,21.87,51.49,49.56
		c0,0.12,0.01,0.24,0.01,0.35c0,0.01-0.01,0.35-0.02,0.98c-0.42,21.59-14.75,39.64-34.27,45.79
		c-4.95,1.56-150.69,27.81-154.06,28.63c-21.36,5.17-37.15,24.42-37.15,47.29c0,0.12,0,0.24,0,0.35c0,0.16,0,0.31,0,0.47v0v0
		c0,27.61,22.39,50,50,50h0h0l0.01,0c12.8,0.25,24.53-4.42,33.41-12.26c10.16-8.97,45.98-61.47,53.52-70.11
		c9.21-10.55,22.9-17.08,38.05-16.63h0h0c27.61,0,50,22.38,50,50v0l-0.01,49.99L550,400v0.01l0,0.5c0.27,27.53-21.97,50-49.51,50h0
		c0,0-0.01,0-0.02,0c-14.11-0.28-26.96-6.26-36.15-15.83c-1.9-1.98-46.38-60.42-51.88-66.88c-8.75-10.28-21.57-17.01-36.05-17.65
		c-0.95-0.04-1.46-0.09-1.41-0.14H375h-0.01l-0.24,0c0.07-0.05-0.3-0.09-1.02-0.13c-25.7-1.37-47.23,19.26-47.23,45v5.63v2.37
		c0,21.93,15.12,40.27,35.42,45.29C363.88,448.64,511.35,475.63,516.11,477.27z"/>
	<path class="st1" d="M1048.11,469.27c19.71,6.8,33.94,25.31,34.39,47.23v0v0.99c0,27.46-22.55,49.56-50,49.01l0,0
		c0,0-107.41,1-125,1h0c0,0-74.33-1.27-126.38-1.33c-27.25-0.03-49.16-22.43-48.62-49.67v0c0,0,0-125-0.04-123.84
		c-0.01,0.27,0.01-0.54,0.02-0.81l0.03-1.34c0,0,0-100.46,0-124.09v0c0-14.54,6.35-27.6,16.42-36.56
		c2.92-2.6,116.92-116.66,119.33-119.62c9.01-11.07,22.84-18.04,38.25-17.73l0.17,0c10.07,0.21,76.13,0.15,124.33,0.08
		c27.71-0.04,50.46,21.87,51.49,49.56c0,0.12,0.01,0.24,0.01,0.35c0,0.01-0.01,0.35-0.02,0.98c-0.42,21.59-14.75,39.64-34.27,45.79
		c-4.95,1.56-150.69,27.81-154.06,28.63c-21.36,5.17-37.15,24.42-37.15,47.29c0,0.12,0,0.24,0,0.35c0,0.16,0,0.31,0,0.47v0v0
		c0,27.61,22.39,50,50,50h0h0l0.01,0c12.8,0.25,24.53-4.42,33.41-12.26c10.16-8.97,45.98-61.47,53.52-70.11
		c9.21-10.55,22.9-17.08,38.05-16.63l0,0l0,0c27.61,0,50,22.38,50,50v0l-0.01,49.99L1082,392v0.01l0,0.5
		c0.27,27.53-21.97,50-49.5,50h0c0,0-0.01,0-0.02,0c-14.11-0.28-26.96-6.26-36.15-15.83c-1.9-1.98-46.38-60.42-51.88-66.88
		c-8.75-10.28-21.57-17.01-36.05-17.65c-0.95-0.04-1.46-0.09-1.41-0.14H907h-0.01l-0.24,0c0.07-0.05-0.3-0.09-1.02-0.13
		c-25.7-1.37-47.23,19.26-47.23,45v5.63v2.37c0,21.93,15.12,40.27,35.42,45.29C895.88,440.64,1043.35,467.63,1048.11,469.27z"/>
	<path class="st7" d="M878.84,544.49C870,555.16,856.68,562,841.73,562.1c-0.57,0-1.15,0.01-1.73,0.01l-0.85,0.01
		c-27.2,0.2-49.21-22.08-48.67-49.28l0.03-1.34c0,0,0-100.46,0-124.09v0c0-14.54,6.35-27.6,16.42-36.56
		c2.92-2.6,116.92-116.66,119.33-119.62c9.01-11.07,22.84-18.04,38.25-17.73l0.17,0c27.44,0.56,49.71,22.38,50.83,49.81
		c0,0.07,0.01,0.14,0.01,0.19v0c-0.29,14.45-6.7,27.37-16.71,36.31c-8.85,7.9-64.14,45.57-72.95,56.35
		c-6.77,8.28-10.83,18.85-10.84,30.37c0,0.16,0,0.31,0,0.47v0v0c0,27.61,22.39,50,50,50h0h0l0.01,0
		c12.8,0.25,24.53-4.42,33.41-12.26c10.16-8.97,45.98-61.47,53.52-70.11c9.21-10.55,22.9-17.08,38.05-16.63l0,0l0,0
		c27.61,0,50,22.38,50,50v0l-0.01,49.99L1140,513v0.01c0,27.61-22.39,49.99-50,49.99l0,0l0,0c-14.57,0-27.69-6.24-36.83-16.19
		c-8.18-8.9-46.53-61.91-49.58-65.62c-9.17-11.11-23.05-18.2-38.58-18.2H965h-0.01c-17.95,0-33.69,9.46-42.51,23.67
		C920.28,490.22,885.92,535.95,878.84,544.49z"/>
</g>
<g id="B3_copy_4" class="st0">
	<path class="st4" d="M516.11,477.27c19.71,6.8,33.94,25.31,34.39,47.23v0v0.99c0,27.46-22.55,49.56-50,49.01h0c0,0-107.41,1-125,1
		h0c0,0-74.32-1.27-126.37-1.33c-27.25-0.03-49.17-22.4-48.64-49.64l0-0.03c0,0,0-125-0.04-123.84c-0.01,0.27,0.01-0.54,0.02-0.81
		l0.03-1.34c0,0,0-100.46,0-124.09v0c0-14.54,6.35-27.6,16.42-36.56c2.92-2.6,116.92-116.66,119.33-119.62
		c9.01-11.07,22.84-18.04,38.25-17.73l0.17,0c10.07,0.21,76.13,0.15,124.33,0.08c17.2-0.02,81.05-0.05,127.01-0.07
		c27.33-0.01,49.49,22.15,49.49,49.48c0,24.72,0,49.44,0,49.5c0,0,0.01,222.24,0.01,325c0,28.17-22.84,51-51.01,51h0h0
		c-27.61,0-50-22.39-50-50V273.51c0-40.71-33.29-73.56-74-73.01c0,0-134.98,24.57-138.35,25.39c-21.36,5.17-37.15,24.42-37.15,47.29
		c0,0.12,0,0.24,0,0.35c0,0.16,0,0.31,0,0.47v0v0c0,27.61,22.39,50,50,50h0h0l0.01,0c12.8,0.25,24.53-4.42,33.41-12.26
		c10.16-8.97,45.98-61.47,53.52-70.11c9.21-10.55,22.9-17.08,38.05-16.63h0h0c27.61,0,50,22.38,50,50v0l-0.01,49.99L550,400v0.01
		l0,0.5c0.27,27.53-21.97,50-49.51,50h0c0,0-0.01,0-0.02,0c-14.11-0.28-26.96-6.26-36.15-15.83c-1.9-1.98-46.38-60.42-51.88-66.88
		c-8.75-10.28-21.57-17.01-36.05-17.65c-0.95-0.04-1.46-0.09-1.41-0.14H375h-0.01l-0.24,0c0.07-0.05-0.3-0.09-1.02-0.13
		c-25.7-1.37-47.23,19.26-47.23,45v5.63v2.37c0,21.93,15.12,40.27,35.42,45.29C363.88,448.64,511.35,475.63,516.11,477.27z"/>
	<path class="st1" d="M1122.11,503.27c19.71,6.8,33.94,25.31,34.39,47.23v0v0.99c0,27.46-22.55,49.56-50,49.01l0,0
		c0,0-107.41,1-125,1h0c0,0-74.32-1.27-126.37-1.33c-27.25-0.03-49.17-22.4-48.64-49.64l0-0.03c0,0,0-125-0.04-123.84
		c-0.01,0.27,0.01-0.54,0.02-0.81l0.03-1.34c0,0,0-100.46,0-124.09v0c0-14.54,6.35-27.6,16.42-36.56
		c2.92-2.6,116.92-116.66,119.33-119.62c9.01-11.07,22.84-18.04,38.25-17.73l0.17,0c10.07,0.21,76.13,0.15,124.33,0.08
		c17.2-0.02,81.05-0.05,127.01-0.07c27.33-0.01,49.49,22.15,49.49,49.48c0,24.72,0,49.44,0,49.5c0,0,0.01,222.24,0.01,325
		c0,28.17-22.84,51-51.01,51l0,0l0,0c-27.61,0-50-22.39-50-50V299.51c0-40.71-33.29-73.56-74-73.01c0,0-134.98,24.57-138.35,25.39
		c-21.36,5.17-37.15,24.42-37.15,47.29c0,0.12,0,0.24,0,0.35c0,0.16,0,0.31,0,0.47v0v0c0,27.61,22.39,50,50,50h0h0l0.01,0
		c12.8,0.25,24.53-4.42,33.41-12.26c10.16-8.97,45.98-61.47,53.52-70.11c9.21-10.55,22.9-17.08,38.05-16.63l0,0l0,0
		c27.61,0,50,22.38,50,50v0l-0.01,49.99L1156,426v0.01l0,0.5c0.27,27.53-21.97,50-49.5,50h0c0,0-0.01,0-0.02,0
		c-14.11-0.28-26.96-6.26-36.15-15.83c-1.9-1.98-46.38-60.42-51.88-66.88c-8.75-10.28-21.57-17.01-36.05-17.65
		c-0.95-0.04-1.46-0.09-1.41-0.14H981h-0.01l-0.24,0c0.07-0.05-0.3-0.09-1.02-0.13c-25.7-1.37-47.23,19.26-47.23,45v5.63v2.37
		c0,21.93,15.12,40.27,35.42,45.29C969.88,474.64,1117.35,501.63,1122.11,503.27z"/>
	<path class="st7" d="M878.84,544.49C870,555.16,856.68,562,841.73,562.1c-0.57,0-1.15,0.01-1.73,0.01l-0.85,0.01
		c-27.2,0.2-49.21-22.08-48.67-49.28l0.03-1.34c0,0,0-100.46,0-124.09v0c0-14.54,6.35-27.6,16.42-36.56
		c2.92-2.6,116.92-116.66,119.33-119.62c9.01-11.07,22.84-18.04,38.25-17.73l0.17,0c27.44,0.56,49.71,22.38,50.83,49.81
		c0,0.07,0.01,0.14,0.01,0.19v0c-0.29,14.45-6.7,27.37-16.71,36.31c-8.85,7.9-64.14,45.57-72.95,56.35
		c-6.77,8.28-10.83,18.85-10.84,30.37c0,0.16,0,0.31,0,0.47v0v0c0,27.61,22.39,50,50,50h0h0l0.01,0
		c12.8,0.25,24.53-4.42,33.41-12.26c10.16-8.97,45.98-61.47,53.52-70.11c9.21-10.55,22.9-17.08,38.05-16.63l0,0l0,0
		c27.61,0,50,22.38,50,50v0l-0.01,49.99L1140,513v0.01c0,27.61-22.39,49.99-50,49.99l0,0l0,0c-14.57,0-27.69-6.24-36.83-16.19
		c-8.18-8.9-46.53-61.91-49.58-65.62c-9.17-11.11-23.05-18.2-38.58-18.2H965h-0.01c-17.95,0-33.69,9.46-42.51,23.67
		C920.28,490.22,885.92,535.95,878.84,544.49z"/>
</g>
<g id="B3_copy_3" class="st0">
	<path class="st1" d="M1026.11,499.27c19.71,6.8,33.94,25.31,34.39,47.23v0v0.99c0,27.46-22.55,49.56-50,49.01h0c0,0-107.41,1-125,1
		h0h0c-14.01,0-26.68-5.76-35.76-15.05c-1.3-1.33-120.02-121.22-121.94-122.87c-10.39-8.93-17.04-22.12-17.34-36.89
		c0-0.06,0-0.07,0-0.04c-0.01,0.27,0.01-0.54,0.02-0.81l0.03-1.34c0,0,0-100.46,0-124.09v0c0-14.54,6.35-27.6,16.42-36.56
		c2.92-2.6,116.92-116.66,119.33-119.62c9.01-11.07,22.84-18.04,38.25-17.73l0.17,0c10.07,0.21,76.13,0.15,124.33,0.08
		c17.2-0.02,81.05-0.05,127.01-0.07c27.33-0.01,49.49,22.15,49.49,49.48c0,24.72,0,49.44,0,49.5c0,0,0.01,222.24,0.01,325
		c0,28.17-22.84,51-51.01,51l0,0l0,0c-27.61,0-50-22.39-50-50V295.51c0-40.71-33.29-73.56-74-73.01c0,0-134.98,24.57-138.35,25.39
		c-21.36,5.17-37.15,24.42-37.15,47.29c0,0.12,0,0.24,0,0.35c0,0.16,0,0.31,0,0.47v0v0c0,27.61,22.39,50,50,50h0h0l0.01,0
		c12.8,0.25,24.53-4.42,33.41-12.26c10.16-8.97,45.98-61.47,53.52-70.11c9.21-10.55,22.9-17.08,38.05-16.63h0h0
		c27.61,0,50,22.38,50,50v0l-0.01,49.99L1060,422v0.01l0,0.5c0.27,27.53-21.97,50-49.5,50h0c0,0-0.01,0-0.02,0
		c-14.11-0.28-26.96-6.26-36.15-15.83c-1.9-1.98-46.38-60.42-51.88-66.88c-8.75-10.28-21.57-17.01-36.05-17.65
		c-0.95-0.04-1.46-0.09-1.41-0.14H885h-0.01l-0.24,0c0.07-0.05-0.3-0.09-1.02-0.13c-25.7-1.37-47.23,19.26-47.23,45v5.63v2.37
		c0,21.93,15.12,40.27,35.42,45.29C873.88,470.64,1021.35,497.63,1026.11,499.27z"/>
	<path class="st7" d="M878.84,544.49C870,555.16,856.68,562,841.73,562.1c-0.57,0-1.15,0.01-1.73,0.01l-0.85,0.01
		c-27.2,0.2-49.21-22.08-48.67-49.28l0.03-1.34c0,0,0-100.46,0-124.09v0c0-14.54,6.35-27.6,16.42-36.56
		c2.92-2.6,116.92-116.66,119.33-119.62c9.01-11.07,22.84-18.04,38.25-17.73l0.17,0c27.44,0.56,49.71,22.38,50.83,49.81
		c0,0.07,0.01,0.14,0.01,0.19v0c-0.29,14.45-6.7,27.37-16.71,36.31c-8.85,7.9-64.14,45.57-72.95,56.35
		c-6.77,8.28-10.83,18.85-10.84,30.37c0,0.16,0,0.31,0,0.47v0v0c0,27.61,22.39,50,50,50h0h0l0.01,0
		c12.8,0.25,24.53-4.42,33.41-12.26c10.16-8.97,45.98-61.47,53.52-70.11c9.21-10.55,22.9-17.08,38.05-16.63l0,0l0,0
		c27.61,0,50,22.38,50,50v0l-0.01,49.99L1140,513v0.01c0,27.61-22.39,49.99-50,49.99l0,0l0,0c-14.57,0-27.69-6.24-36.83-16.19
		c-8.18-8.9-46.53-61.91-49.58-65.62c-9.17-11.11-23.05-18.2-38.58-18.2H965h-0.01c-17.95,0-33.69,9.46-42.51,23.67
		C920.28,490.22,885.92,535.95,878.84,544.49z"/>
</g>
<g id="Layer_47" class="st0">
	<line class="st9" x1="0" y1="50" x2="700" y2="50"/>
	<line class="st9" x1="0" y1="550" x2="700" y2="550"/>
</g>
</svg>
