<svg id="_" data-name="???" xmlns="http://www.w3.org/2000/svg" viewBox="0 0 500 500"><defs><style>.cls-1{fill:#bdc91a;}</style></defs><path class="cls-1" d="M954.71,338.66h0a53.19,53.19,0,0,1,53.15,52.7v.46h0a58.85,58.85,0,0,1-15.23,36.65l-64.25,48.81a52.63,52.63,0,0,0,25.79,98.21h131.23c29,0,53.16-23,53.51-52a52.62,52.62,0,0,0-25.25-45.61l-49.29-35.82c-1.06-.76-2.32-1.65-3.74-2.63a64.61,64.61,0,0,1-27.44-47.84l-.07-.86a52.51,52.51,0,0,1,43.5-51.34c2.58-.44,121.46-22.12,150.19-27.6.17,0,20.69-6.88,32.63-20,10.52-11.58,11-31.25,11-32.11a52.56,52.56,0,0,0-21-42.08c-1.32-1-87-73.68-123.73-123.71-11.58-15.79-33.1-18.42-39.47-18.42a54.13,54.13,0,0,0-6.53.4,52.63,52.63,0,0,0-46.1,52.22s-26.6,137.92-27.15,141a52.64,52.64,0,0,1-103.82-1.35c-.4-2.62-27.82-149.33-28-150.18a52.64,52.64,0,0,0-52.61-42c-28.73.55-51.47,24.61-51.48,53.35l-.11,262.43a52.63,52.63,0,0,0,52.1,52.63h.53a52.44,52.44,0,0,0,35.76-14c5.69-5.27,36-48.07,51.08-69.66l.68-1a44.57,44.57,0,0,1,33.44-19.69Z" transform="translate(-770.5 -75.5)"/></svg>