<svg id="_" data-name="???" xmlns="http://www.w3.org/2000/svg" viewBox="0 0 499.67 500"><defs><style>.cls-1{fill:#bdc91a;}</style></defs><path class="cls-1" d="M872.55,271h0a51.49,51.49,0,0,0-22.31-43.5c-8.3-5.72-54.44-41.15-57.72-43.18a52,52,0,0,1-24.6-44.76V139h0A52.46,52.46,0,0,1,820.5,86.53h3.59c16.62,0,81.11.15,128.38.27A52.7,52.7,0,0,1,1005,139.52h0a52.55,52.55,0,0,1-23.51,42.76c-5.16,3.42-41.45,24.83-63.77,47.66C904,244,899.24,258.06,899.36,270.43h0A52.58,52.58,0,0,0,951.94,323h0a52.58,52.58,0,0,0,51.75-43.26c.54-3,27.59-148.58,28.38-152.1A52.15,52.15,0,0,1,1083,86.94h53.53s62.52-.53,78.34-.53h0A52.58,52.58,0,0,1,1267.4,139h0V270.43h0A52.58,52.58,0,0,1,1214.82,323h0A52.47,52.47,0,0,1,1176,305.84c-8.46-9.28-49.94-66.39-52.15-69a52.47,52.47,0,0,0-40.42-19h0a52.58,52.58,0,0,0-52.58,52.58h0a52.59,52.59,0,0,0,45,52c2.47.35,146.19,27.19,149.61,27.89a52.6,52.6,0,0,1,42,51.51h0c0,.09-.06.35,0,.27s.12.4.14,1.36c.27,15.59-.67,130.34-.67,130.34v1a50.49,50.49,0,0,1-51.52,50.48h0a51.55,51.55,0,0,1-49.21-33.18c-2.17-5.7-31.41-162.08-33-167.24a51.4,51.4,0,0,0-49.2-36c-50.72.15-121.14.36-130.15.36h-1.81a52.58,52.58,0,0,0-52.58,52.58h0v.58a50.94,50.94,0,0,0,23.56,43.49c1.58,1,51.62,38.69,60.2,44.91A50.48,50.48,0,0,1,1004,532.79l0,1.05v0a52.55,52.55,0,0,1-52.55,52.55h0s-114.56-.52-130.9-.52h0a52.58,52.58,0,0,1-52.57-52.58h0v-.09A51.8,51.8,0,0,1,786,493.78c4-3.42,60.62-36.81,79.2-65.09,5.62-8.56,7.36-19.7,7.36-27.34h0Z" transform="translate(-767.91 -86.41)"/></svg>