<svg id="_" data-name="???" xmlns="http://www.w3.org/2000/svg" viewBox="0 0 500 500"><defs><style>.cls-1{fill:#bdc91a;}</style></defs><path class="cls-1" d="M355.05,534.94a52.47,52.47,0,0,1-36.34,14.56h0a51.58,51.58,0,0,1-52.1-51.58v-1.57a51.48,51.48,0,0,1,20.52-41.19c6-4.53,53.44-40.45,62.19-46.78a53.13,53.13,0,0,0,22-42.56v-.53h0a52.63,52.63,0,0,0-52.63-52.63H317a50.87,50.87,0,0,0-43.32,24.16c-4.8,7.77-43.09,58.29-44.37,60a52.52,52.52,0,0,1-42.15,21.11h0a52.64,52.64,0,0,1-52.63-52.5v-.13h0a52.54,52.54,0,0,1,20.57-41.74c5.8-4.46,46.3-27.93,69.43-52.47,12.29-13,15.26-26.18,15.26-37.37h0a53.28,53.28,0,0,0-13.15-35.26c-23.57-26.54-67.62-51-74.05-56.63a52.53,52.53,0,0,1-18.06-39.69h0A52.64,52.64,0,0,1,187.13,49.5h0l1.4,0a52.28,52.28,0,0,1,47.7,32c2.62,6.23,30.48,161.52,31.66,165.9a52.66,52.66,0,0,0,50.82,38.88h0a52.64,52.64,0,0,0,52.09-45.06C371.16,238.81,398,95,398.73,91.52a52.65,52.65,0,0,1,51.56-42h0a52.63,52.63,0,0,1,52.63,52.63h0a52.62,52.62,0,0,1-25.83,45.31c-7.85,4.65-46.58,36.13-54.86,41.35a53.66,53.66,0,0,0-25.08,44.38l0,1.07h0a52.64,52.64,0,0,0,52.63,52.63h1.06a52,52,0,0,0,36.92-15.34c7.81-7.84,35.62-53.52,56.79-74.84a62.27,62.27,0,0,1,15.76-10.87c9.47-4.21,21.58-4.74,21.58-4.74h0a52.59,52.59,0,0,1,52.63,52.63h0A52.65,52.65,0,0,1,594,284.94c-3.9.92-151.46,28-154.32,28.48a50.84,50.84,0,0,0-42,50.05h0v1.82a52.63,52.63,0,0,0,52.63,52.63h0l131.59,26.32h0a52.64,52.64,0,0,1,52.63,52.62h0a52.64,52.64,0,0,1-52.63,52.62h0A52.39,52.39,0,0,1,546.71,536c-4.52-4-44.5-63.31-53.79-72.32C488.3,459.23,482.25,453,476.08,450c-11.84-5.61-25.79-5.79-25.79-5.79h0a52.51,52.51,0,0,0-42.22,21.21C405.21,469.27,358.54,531.6,355.05,534.94Z" transform="translate(-134.5 -49.5)"/></svg>