<svg id="_" data-name="???" xmlns="http://www.w3.org/2000/svg" viewBox="0 0 550 500"><defs><style>.cls-1{fill:#bdc91a;}</style></defs><path class="cls-1" d="M452,355.45,398.85,514.29C393.94,534.71,373.93,550,350,550H200c-27.45.49-50-19.6-50-44.56v-410h0C150,70.36,172.39,50,200,50h0c23.9,0,43.88,15.24,48.83,35.61.76,3.17,51.63,153.33,52.51,156.7,5.21,20,25,34.95,48.66,34.95h0c23.94,0,43.95-15.29,48.85-35.72.36-1.48,51.59-153,52.42-156.32C456.37,65.05,476.25,50,500,50H650c27.61,0,50,20.35,50,45.45h0c0,18.79-12.55,34.93-30.45,41.85-1.12.43-181.83,50.42-182.92,50.7C465.51,193.33,450,210.93,450,231.82h0c0,20.34,14.7,37.56,35,43.36L661.84,324c21.9,4.83,38.16,22.78,38.16,44.17h0c0,25.1-22.39,45.45-50,45.45h0a53.3,53.3,0,0,1-14.81-1.78,50.79,50.79,0,0,1-20.7-11.14c-41.45-33.1-68.77-55.4-78.49-64.35a47.66,47.66,0,0,0-9.38-6.81c-9.6-5.35-19.53-6.63-26.62-6.82h0c-22.87,0-42.16,14-48.11,33" transform="translate(-150 -50.01)"/></svg>