<svg id="Y" xmlns="http://www.w3.org/2000/svg" viewBox="0 0 507 507"><defs><style>.cls-1{fill:#bdc91a;stroke:#bdc91a;stroke-miterlimit:10;stroke-width:7px;}</style></defs><path class="cls-1" d="M318,550h0a71.43,71.43,0,0,0,71.43-71.42h0V319.13a40.24,40.24,0,0,1,14.83-31.21c36-29.27,125.54-102.14,135-109.24A71.34,71.34,0,0,0,568,121.44h0A71.43,71.43,0,0,0,496.57,50h0A72.77,72.77,0,0,0,439,79.15c-8.87,11.81-59.26,85.12-74.63,97.92a71.14,71.14,0,0,1-45.66,16.5h-1.42a71.15,71.15,0,0,1-47.75-18.3C255,162.19,206.21,93.67,198.75,82.2A70.64,70.64,0,0,0,140.13,50h-.7A71.42,71.42,0,0,0,68,121.42h0v.17a71.34,71.34,0,0,0,27.33,56c9.84,7.73,103,83.25,138,111.65A35.69,35.69,0,0,1,246.57,317V478.57h0A71.42,71.42,0,0,0,318,550Z" transform="translate(-64.5 -46.5)"/></svg>